%TF.GenerationSoftware,KiCad,Pcbnew,6.0.2-378541a8eb~116~ubuntu20.04.1*%
%TF.CreationDate,2022-03-18T17:48:31-05:00*%
%TF.ProjectId,mother,6d6f7468-6572-42e6-9b69-6361645f7063,rev?*%
%TF.SameCoordinates,Original*%
%TF.FileFunction,Legend,Top*%
%TF.FilePolarity,Positive*%
%FSLAX46Y46*%
G04 Gerber Fmt 4.6, Leading zero omitted, Abs format (unit mm)*
G04 Created by KiCad (PCBNEW 6.0.2-378541a8eb~116~ubuntu20.04.1) date 2022-03-18 17:48:31*
%MOMM*%
%LPD*%
G01*
G04 APERTURE LIST*
G04 Aperture macros list*
%AMFreePoly0*
4,1,22,0.500000,-0.750000,0.000000,-0.750000,0.000000,-0.745033,-0.079941,-0.743568,-0.215256,-0.701293,-0.333266,-0.622738,-0.424486,-0.514219,-0.481581,-0.384460,-0.499164,-0.250000,-0.500000,-0.250000,-0.500000,0.250000,-0.499164,0.250000,-0.499963,0.256109,-0.478152,0.396186,-0.417904,0.524511,-0.324060,0.630769,-0.204165,0.706417,-0.067858,0.745374,0.000000,0.744959,0.000000,0.750000,
0.500000,0.750000,0.500000,-0.750000,0.500000,-0.750000,$1*%
%AMFreePoly1*
4,1,20,0.000000,0.744959,0.073905,0.744508,0.209726,0.703889,0.328688,0.626782,0.421226,0.519385,0.479903,0.390333,0.500000,0.250000,0.500000,-0.250000,0.499851,-0.262216,0.476331,-0.402017,0.414519,-0.529596,0.319384,-0.634700,0.198574,-0.708877,0.061801,-0.746166,0.000000,-0.745033,0.000000,-0.750000,-0.500000,-0.750000,-0.500000,0.750000,0.000000,0.750000,0.000000,0.744959,
0.000000,0.744959,$1*%
G04 Aperture macros list end*
%ADD10C,0.150000*%
%ADD11C,0.120000*%
%ADD12C,0.010000*%
%ADD13C,2.500000*%
%ADD14R,3.000000X3.000000*%
%ADD15C,3.000000*%
%ADD16R,1.800000X1.800000*%
%ADD17C,1.800000*%
%ADD18R,1.727200X1.727200*%
%ADD19O,1.727200X1.727200*%
%ADD20R,3.960000X1.980000*%
%ADD21O,3.960000X1.980000*%
%ADD22C,1.524000*%
%ADD23C,1.600000*%
%ADD24O,1.600000X1.600000*%
%ADD25R,1.600000X1.600000*%
%ADD26FreePoly0,180.000000*%
%ADD27FreePoly1,180.000000*%
%ADD28FreePoly0,90.000000*%
%ADD29FreePoly1,90.000000*%
G04 APERTURE END LIST*
D10*
X163101976Y-84689761D02*
X163244833Y-84737380D01*
X163482928Y-84737380D01*
X163578166Y-84689761D01*
X163625785Y-84642142D01*
X163673404Y-84546904D01*
X163673404Y-84451666D01*
X163625785Y-84356428D01*
X163578166Y-84308809D01*
X163482928Y-84261190D01*
X163292452Y-84213571D01*
X163197214Y-84165952D01*
X163149595Y-84118333D01*
X163101976Y-84023095D01*
X163101976Y-83927857D01*
X163149595Y-83832619D01*
X163197214Y-83785000D01*
X163292452Y-83737380D01*
X163530547Y-83737380D01*
X163673404Y-83785000D01*
X164530547Y-84689761D02*
X164435309Y-84737380D01*
X164244833Y-84737380D01*
X164149595Y-84689761D01*
X164101976Y-84642142D01*
X164054357Y-84546904D01*
X164054357Y-84261190D01*
X164101976Y-84165952D01*
X164149595Y-84118333D01*
X164244833Y-84070714D01*
X164435309Y-84070714D01*
X164530547Y-84118333D01*
X164959119Y-84737380D02*
X164959119Y-84070714D01*
X164959119Y-83737380D02*
X164911500Y-83785000D01*
X164959119Y-83832619D01*
X165006738Y-83785000D01*
X164959119Y-83737380D01*
X164959119Y-83832619D01*
X165816261Y-84689761D02*
X165721023Y-84737380D01*
X165530547Y-84737380D01*
X165435309Y-84689761D01*
X165387690Y-84594523D01*
X165387690Y-84213571D01*
X165435309Y-84118333D01*
X165530547Y-84070714D01*
X165721023Y-84070714D01*
X165816261Y-84118333D01*
X165863880Y-84213571D01*
X165863880Y-84308809D01*
X165387690Y-84404047D01*
X166292452Y-84070714D02*
X166292452Y-84737380D01*
X166292452Y-84165952D02*
X166340071Y-84118333D01*
X166435309Y-84070714D01*
X166578166Y-84070714D01*
X166673404Y-84118333D01*
X166721023Y-84213571D01*
X166721023Y-84737380D01*
X167625785Y-84689761D02*
X167530547Y-84737380D01*
X167340071Y-84737380D01*
X167244833Y-84689761D01*
X167197214Y-84642142D01*
X167149595Y-84546904D01*
X167149595Y-84261190D01*
X167197214Y-84165952D01*
X167244833Y-84118333D01*
X167340071Y-84070714D01*
X167530547Y-84070714D01*
X167625785Y-84118333D01*
X168435309Y-84689761D02*
X168340071Y-84737380D01*
X168149595Y-84737380D01*
X168054357Y-84689761D01*
X168006738Y-84594523D01*
X168006738Y-84213571D01*
X168054357Y-84118333D01*
X168149595Y-84070714D01*
X168340071Y-84070714D01*
X168435309Y-84118333D01*
X168482928Y-84213571D01*
X168482928Y-84308809D01*
X168006738Y-84404047D01*
X169673404Y-84737380D02*
X169673404Y-83737380D01*
X170006738Y-84451666D01*
X170340071Y-83737380D01*
X170340071Y-84737380D01*
X171244833Y-84070714D02*
X171244833Y-84737380D01*
X170816261Y-84070714D02*
X170816261Y-84594523D01*
X170863880Y-84689761D01*
X170959119Y-84737380D01*
X171101976Y-84737380D01*
X171197214Y-84689761D01*
X171244833Y-84642142D01*
X171673404Y-84689761D02*
X171768642Y-84737380D01*
X171959119Y-84737380D01*
X172054357Y-84689761D01*
X172101976Y-84594523D01*
X172101976Y-84546904D01*
X172054357Y-84451666D01*
X171959119Y-84404047D01*
X171816261Y-84404047D01*
X171721023Y-84356428D01*
X171673404Y-84261190D01*
X171673404Y-84213571D01*
X171721023Y-84118333D01*
X171816261Y-84070714D01*
X171959119Y-84070714D01*
X172054357Y-84118333D01*
X172911500Y-84689761D02*
X172816261Y-84737380D01*
X172625785Y-84737380D01*
X172530547Y-84689761D01*
X172482928Y-84594523D01*
X172482928Y-84213571D01*
X172530547Y-84118333D01*
X172625785Y-84070714D01*
X172816261Y-84070714D01*
X172911500Y-84118333D01*
X172959119Y-84213571D01*
X172959119Y-84308809D01*
X172482928Y-84404047D01*
X173816261Y-84070714D02*
X173816261Y-84737380D01*
X173387690Y-84070714D02*
X173387690Y-84594523D01*
X173435309Y-84689761D01*
X173530547Y-84737380D01*
X173673404Y-84737380D01*
X173768642Y-84689761D01*
X173816261Y-84642142D01*
X174292452Y-84737380D02*
X174292452Y-84070714D01*
X174292452Y-84165952D02*
X174340071Y-84118333D01*
X174435309Y-84070714D01*
X174578166Y-84070714D01*
X174673404Y-84118333D01*
X174721023Y-84213571D01*
X174721023Y-84737380D01*
X174721023Y-84213571D02*
X174768642Y-84118333D01*
X174863880Y-84070714D01*
X175006738Y-84070714D01*
X175101976Y-84118333D01*
X175149595Y-84213571D01*
X175149595Y-84737380D01*
X176530547Y-84737380D02*
X176435309Y-84689761D01*
X176387690Y-84642142D01*
X176340071Y-84546904D01*
X176340071Y-84261190D01*
X176387690Y-84165952D01*
X176435309Y-84118333D01*
X176530547Y-84070714D01*
X176673404Y-84070714D01*
X176768642Y-84118333D01*
X176816261Y-84165952D01*
X176863880Y-84261190D01*
X176863880Y-84546904D01*
X176816261Y-84642142D01*
X176768642Y-84689761D01*
X176673404Y-84737380D01*
X176530547Y-84737380D01*
X177149595Y-84070714D02*
X177530547Y-84070714D01*
X177292452Y-84737380D02*
X177292452Y-83880238D01*
X177340071Y-83785000D01*
X177435309Y-83737380D01*
X177530547Y-83737380D01*
X178625785Y-84737380D02*
X178625785Y-83737380D01*
X178959119Y-84451666D01*
X179292452Y-83737380D01*
X179292452Y-84737380D01*
X179768642Y-84737380D02*
X179768642Y-84070714D01*
X179768642Y-83737380D02*
X179721023Y-83785000D01*
X179768642Y-83832619D01*
X179816261Y-83785000D01*
X179768642Y-83737380D01*
X179768642Y-83832619D01*
X180244833Y-84070714D02*
X180244833Y-84737380D01*
X180244833Y-84165952D02*
X180292452Y-84118333D01*
X180387690Y-84070714D01*
X180530547Y-84070714D01*
X180625785Y-84118333D01*
X180673404Y-84213571D01*
X180673404Y-84737380D01*
X181149595Y-84070714D02*
X181149595Y-84737380D01*
X181149595Y-84165952D02*
X181197214Y-84118333D01*
X181292452Y-84070714D01*
X181435309Y-84070714D01*
X181530547Y-84118333D01*
X181578166Y-84213571D01*
X181578166Y-84737380D01*
X182435309Y-84689761D02*
X182340071Y-84737380D01*
X182149595Y-84737380D01*
X182054357Y-84689761D01*
X182006738Y-84594523D01*
X182006738Y-84213571D01*
X182054357Y-84118333D01*
X182149595Y-84070714D01*
X182340071Y-84070714D01*
X182435309Y-84118333D01*
X182482928Y-84213571D01*
X182482928Y-84308809D01*
X182006738Y-84404047D01*
X182863880Y-84689761D02*
X182959119Y-84737380D01*
X183149595Y-84737380D01*
X183244833Y-84689761D01*
X183292452Y-84594523D01*
X183292452Y-84546904D01*
X183244833Y-84451666D01*
X183149595Y-84404047D01*
X183006738Y-84404047D01*
X182911500Y-84356428D01*
X182863880Y-84261190D01*
X182863880Y-84213571D01*
X182911500Y-84118333D01*
X183006738Y-84070714D01*
X183149595Y-84070714D01*
X183244833Y-84118333D01*
X183863880Y-84737380D02*
X183768642Y-84689761D01*
X183721023Y-84642142D01*
X183673404Y-84546904D01*
X183673404Y-84261190D01*
X183721023Y-84165952D01*
X183768642Y-84118333D01*
X183863880Y-84070714D01*
X184006738Y-84070714D01*
X184101976Y-84118333D01*
X184149595Y-84165952D01*
X184197214Y-84261190D01*
X184197214Y-84546904D01*
X184149595Y-84642142D01*
X184101976Y-84689761D01*
X184006738Y-84737380D01*
X183863880Y-84737380D01*
X184482928Y-84070714D02*
X184863880Y-84070714D01*
X184625785Y-83737380D02*
X184625785Y-84594523D01*
X184673404Y-84689761D01*
X184768642Y-84737380D01*
X184863880Y-84737380D01*
X185625785Y-84737380D02*
X185625785Y-84213571D01*
X185578166Y-84118333D01*
X185482928Y-84070714D01*
X185292452Y-84070714D01*
X185197214Y-84118333D01*
X185625785Y-84689761D02*
X185530547Y-84737380D01*
X185292452Y-84737380D01*
X185197214Y-84689761D01*
X185149595Y-84594523D01*
X185149595Y-84499285D01*
X185197214Y-84404047D01*
X185292452Y-84356428D01*
X185530547Y-84356428D01*
X185625785Y-84308809D01*
X163149595Y-86347380D02*
X163149595Y-85347380D01*
X163530547Y-85347380D01*
X163625785Y-85395000D01*
X163673404Y-85442619D01*
X163721023Y-85537857D01*
X163721023Y-85680714D01*
X163673404Y-85775952D01*
X163625785Y-85823571D01*
X163530547Y-85871190D01*
X163149595Y-85871190D01*
X164292452Y-86347380D02*
X164197214Y-86299761D01*
X164149595Y-86252142D01*
X164101976Y-86156904D01*
X164101976Y-85871190D01*
X164149595Y-85775952D01*
X164197214Y-85728333D01*
X164292452Y-85680714D01*
X164435309Y-85680714D01*
X164530547Y-85728333D01*
X164578166Y-85775952D01*
X164625785Y-85871190D01*
X164625785Y-86156904D01*
X164578166Y-86252142D01*
X164530547Y-86299761D01*
X164435309Y-86347380D01*
X164292452Y-86347380D01*
X164959119Y-85680714D02*
X165149595Y-86347380D01*
X165340071Y-85871190D01*
X165530547Y-86347380D01*
X165721023Y-85680714D01*
X166482928Y-86299761D02*
X166387690Y-86347380D01*
X166197214Y-86347380D01*
X166101976Y-86299761D01*
X166054357Y-86204523D01*
X166054357Y-85823571D01*
X166101976Y-85728333D01*
X166197214Y-85680714D01*
X166387690Y-85680714D01*
X166482928Y-85728333D01*
X166530547Y-85823571D01*
X166530547Y-85918809D01*
X166054357Y-86014047D01*
X166959119Y-86347380D02*
X166959119Y-85680714D01*
X166959119Y-85871190D02*
X167006738Y-85775952D01*
X167054357Y-85728333D01*
X167149595Y-85680714D01*
X167244833Y-85680714D01*
X168292452Y-86299761D02*
X168435309Y-86347380D01*
X168673404Y-86347380D01*
X168768642Y-86299761D01*
X168816261Y-86252142D01*
X168863880Y-86156904D01*
X168863880Y-86061666D01*
X168816261Y-85966428D01*
X168768642Y-85918809D01*
X168673404Y-85871190D01*
X168482928Y-85823571D01*
X168387690Y-85775952D01*
X168340071Y-85728333D01*
X168292452Y-85633095D01*
X168292452Y-85537857D01*
X168340071Y-85442619D01*
X168387690Y-85395000D01*
X168482928Y-85347380D01*
X168721023Y-85347380D01*
X168863880Y-85395000D01*
X169292452Y-86347380D02*
X169292452Y-85347380D01*
X169721023Y-86347380D02*
X169721023Y-85823571D01*
X169673404Y-85728333D01*
X169578166Y-85680714D01*
X169435309Y-85680714D01*
X169340071Y-85728333D01*
X169292452Y-85775952D01*
X170197214Y-86347380D02*
X170197214Y-85680714D01*
X170197214Y-85347380D02*
X170149595Y-85395000D01*
X170197214Y-85442619D01*
X170244833Y-85395000D01*
X170197214Y-85347380D01*
X170197214Y-85442619D01*
X170530547Y-85680714D02*
X170911500Y-85680714D01*
X170673404Y-86347380D02*
X170673404Y-85490238D01*
X170721023Y-85395000D01*
X170816261Y-85347380D01*
X170911500Y-85347380D01*
X171101976Y-85680714D02*
X171482928Y-85680714D01*
X171244833Y-85347380D02*
X171244833Y-86204523D01*
X171292452Y-86299761D01*
X171387690Y-86347380D01*
X171482928Y-86347380D01*
X173149595Y-86347380D02*
X172816261Y-85871190D01*
X172578166Y-86347380D02*
X172578166Y-85347380D01*
X172959119Y-85347380D01*
X173054357Y-85395000D01*
X173101976Y-85442619D01*
X173149595Y-85537857D01*
X173149595Y-85680714D01*
X173101976Y-85775952D01*
X173054357Y-85823571D01*
X172959119Y-85871190D01*
X172578166Y-85871190D01*
X173959119Y-86299761D02*
X173863880Y-86347380D01*
X173673404Y-86347380D01*
X173578166Y-86299761D01*
X173530547Y-86204523D01*
X173530547Y-85823571D01*
X173578166Y-85728333D01*
X173673404Y-85680714D01*
X173863880Y-85680714D01*
X173959119Y-85728333D01*
X174006738Y-85823571D01*
X174006738Y-85918809D01*
X173530547Y-86014047D01*
X174863880Y-85680714D02*
X174863880Y-86490238D01*
X174816261Y-86585476D01*
X174768642Y-86633095D01*
X174673404Y-86680714D01*
X174530547Y-86680714D01*
X174435309Y-86633095D01*
X174863880Y-86299761D02*
X174768642Y-86347380D01*
X174578166Y-86347380D01*
X174482928Y-86299761D01*
X174435309Y-86252142D01*
X174387690Y-86156904D01*
X174387690Y-85871190D01*
X174435309Y-85775952D01*
X174482928Y-85728333D01*
X174578166Y-85680714D01*
X174768642Y-85680714D01*
X174863880Y-85728333D01*
X175340071Y-86347380D02*
X175340071Y-85680714D01*
X175340071Y-85347380D02*
X175292452Y-85395000D01*
X175340071Y-85442619D01*
X175387690Y-85395000D01*
X175340071Y-85347380D01*
X175340071Y-85442619D01*
X175768642Y-86299761D02*
X175863880Y-86347380D01*
X176054357Y-86347380D01*
X176149595Y-86299761D01*
X176197214Y-86204523D01*
X176197214Y-86156904D01*
X176149595Y-86061666D01*
X176054357Y-86014047D01*
X175911500Y-86014047D01*
X175816261Y-85966428D01*
X175768642Y-85871190D01*
X175768642Y-85823571D01*
X175816261Y-85728333D01*
X175911500Y-85680714D01*
X176054357Y-85680714D01*
X176149595Y-85728333D01*
X176482928Y-85680714D02*
X176863880Y-85680714D01*
X176625785Y-85347380D02*
X176625785Y-86204523D01*
X176673404Y-86299761D01*
X176768642Y-86347380D01*
X176863880Y-86347380D01*
X177578166Y-86299761D02*
X177482928Y-86347380D01*
X177292452Y-86347380D01*
X177197214Y-86299761D01*
X177149595Y-86204523D01*
X177149595Y-85823571D01*
X177197214Y-85728333D01*
X177292452Y-85680714D01*
X177482928Y-85680714D01*
X177578166Y-85728333D01*
X177625785Y-85823571D01*
X177625785Y-85918809D01*
X177149595Y-86014047D01*
X178054357Y-86347380D02*
X178054357Y-85680714D01*
X178054357Y-85871190D02*
X178101976Y-85775952D01*
X178149595Y-85728333D01*
X178244833Y-85680714D01*
X178340071Y-85680714D01*
X179435309Y-85966428D02*
X180197214Y-85966428D01*
X181435309Y-86347380D02*
X181435309Y-85347380D01*
X181768642Y-86061666D01*
X182101976Y-85347380D01*
X182101976Y-86347380D01*
X182721023Y-86347380D02*
X182625785Y-86299761D01*
X182578166Y-86252142D01*
X182530547Y-86156904D01*
X182530547Y-85871190D01*
X182578166Y-85775952D01*
X182625785Y-85728333D01*
X182721023Y-85680714D01*
X182863880Y-85680714D01*
X182959119Y-85728333D01*
X183006738Y-85775952D01*
X183054357Y-85871190D01*
X183054357Y-86156904D01*
X183006738Y-86252142D01*
X182959119Y-86299761D01*
X182863880Y-86347380D01*
X182721023Y-86347380D01*
X183340071Y-85680714D02*
X183721023Y-85680714D01*
X183482928Y-85347380D02*
X183482928Y-86204523D01*
X183530547Y-86299761D01*
X183625785Y-86347380D01*
X183721023Y-86347380D01*
X184054357Y-86347380D02*
X184054357Y-85347380D01*
X184482928Y-86347380D02*
X184482928Y-85823571D01*
X184435309Y-85728333D01*
X184340071Y-85680714D01*
X184197214Y-85680714D01*
X184101976Y-85728333D01*
X184054357Y-85775952D01*
X185340071Y-86299761D02*
X185244833Y-86347380D01*
X185054357Y-86347380D01*
X184959119Y-86299761D01*
X184911500Y-86204523D01*
X184911500Y-85823571D01*
X184959119Y-85728333D01*
X185054357Y-85680714D01*
X185244833Y-85680714D01*
X185340071Y-85728333D01*
X185387690Y-85823571D01*
X185387690Y-85918809D01*
X184911500Y-86014047D01*
X185816261Y-86347380D02*
X185816261Y-85680714D01*
X185816261Y-85871190D02*
X185863880Y-85775952D01*
X185911500Y-85728333D01*
X186006738Y-85680714D01*
X186101976Y-85680714D01*
X187530547Y-85823571D02*
X187673404Y-85871190D01*
X187721023Y-85918809D01*
X187768642Y-86014047D01*
X187768642Y-86156904D01*
X187721023Y-86252142D01*
X187673404Y-86299761D01*
X187578166Y-86347380D01*
X187197214Y-86347380D01*
X187197214Y-85347380D01*
X187530547Y-85347380D01*
X187625785Y-85395000D01*
X187673404Y-85442619D01*
X187721023Y-85537857D01*
X187721023Y-85633095D01*
X187673404Y-85728333D01*
X187625785Y-85775952D01*
X187530547Y-85823571D01*
X187197214Y-85823571D01*
X188340071Y-86347380D02*
X188244833Y-86299761D01*
X188197214Y-86252142D01*
X188149595Y-86156904D01*
X188149595Y-85871190D01*
X188197214Y-85775952D01*
X188244833Y-85728333D01*
X188340071Y-85680714D01*
X188482928Y-85680714D01*
X188578166Y-85728333D01*
X188625785Y-85775952D01*
X188673404Y-85871190D01*
X188673404Y-86156904D01*
X188625785Y-86252142D01*
X188578166Y-86299761D01*
X188482928Y-86347380D01*
X188340071Y-86347380D01*
X189530547Y-86347380D02*
X189530547Y-85823571D01*
X189482928Y-85728333D01*
X189387690Y-85680714D01*
X189197214Y-85680714D01*
X189101976Y-85728333D01*
X189530547Y-86299761D02*
X189435309Y-86347380D01*
X189197214Y-86347380D01*
X189101976Y-86299761D01*
X189054357Y-86204523D01*
X189054357Y-86109285D01*
X189101976Y-86014047D01*
X189197214Y-85966428D01*
X189435309Y-85966428D01*
X189530547Y-85918809D01*
X190006738Y-86347380D02*
X190006738Y-85680714D01*
X190006738Y-85871190D02*
X190054357Y-85775952D01*
X190101976Y-85728333D01*
X190197214Y-85680714D01*
X190292452Y-85680714D01*
X191054357Y-86347380D02*
X191054357Y-85347380D01*
X191054357Y-86299761D02*
X190959119Y-86347380D01*
X190768642Y-86347380D01*
X190673404Y-86299761D01*
X190625785Y-86252142D01*
X190578166Y-86156904D01*
X190578166Y-85871190D01*
X190625785Y-85775952D01*
X190673404Y-85728333D01*
X190768642Y-85680714D01*
X190959119Y-85680714D01*
X191054357Y-85728333D01*
%TO.C,REF\u002A\u002A*%
X213931666Y-111252380D02*
X213598333Y-110776190D01*
X213360238Y-111252380D02*
X213360238Y-110252380D01*
X213741190Y-110252380D01*
X213836428Y-110300000D01*
X213884047Y-110347619D01*
X213931666Y-110442857D01*
X213931666Y-110585714D01*
X213884047Y-110680952D01*
X213836428Y-110728571D01*
X213741190Y-110776190D01*
X213360238Y-110776190D01*
X214360238Y-110728571D02*
X214693571Y-110728571D01*
X214836428Y-111252380D02*
X214360238Y-111252380D01*
X214360238Y-110252380D01*
X214836428Y-110252380D01*
X215598333Y-110728571D02*
X215265000Y-110728571D01*
X215265000Y-111252380D02*
X215265000Y-110252380D01*
X215741190Y-110252380D01*
X216265000Y-110252380D02*
X216265000Y-110490476D01*
X216026904Y-110395238D02*
X216265000Y-110490476D01*
X216503095Y-110395238D01*
X216122142Y-110680952D02*
X216265000Y-110490476D01*
X216407857Y-110680952D01*
X217026904Y-110252380D02*
X217026904Y-110490476D01*
X216788809Y-110395238D02*
X217026904Y-110490476D01*
X217265000Y-110395238D01*
X216884047Y-110680952D02*
X217026904Y-110490476D01*
X217169761Y-110680952D01*
%TO.C,J7*%
X177466666Y-108672380D02*
X177466666Y-109386666D01*
X177419047Y-109529523D01*
X177323809Y-109624761D01*
X177180952Y-109672380D01*
X177085714Y-109672380D01*
X177847619Y-108672380D02*
X178514285Y-108672380D01*
X178085714Y-109672380D01*
%TO.C,J1*%
X57056666Y-108324380D02*
X57056666Y-109038666D01*
X57009047Y-109181523D01*
X56913809Y-109276761D01*
X56770952Y-109324380D01*
X56675714Y-109324380D01*
X58056666Y-109324380D02*
X57485238Y-109324380D01*
X57770952Y-109324380D02*
X57770952Y-108324380D01*
X57675714Y-108467238D01*
X57580476Y-108562476D01*
X57485238Y-108610095D01*
%TO.C,D2*%
X75456904Y-101798380D02*
X75456904Y-100798380D01*
X75695000Y-100798380D01*
X75837857Y-100846000D01*
X75933095Y-100941238D01*
X75980714Y-101036476D01*
X76028333Y-101226952D01*
X76028333Y-101369809D01*
X75980714Y-101560285D01*
X75933095Y-101655523D01*
X75837857Y-101750761D01*
X75695000Y-101798380D01*
X75456904Y-101798380D01*
X76409285Y-100893619D02*
X76456904Y-100846000D01*
X76552142Y-100798380D01*
X76790238Y-100798380D01*
X76885476Y-100846000D01*
X76933095Y-100893619D01*
X76980714Y-100988857D01*
X76980714Y-101084095D01*
X76933095Y-101226952D01*
X76361666Y-101798380D01*
X76980714Y-101798380D01*
%TO.C,D7*%
X177056904Y-101886380D02*
X177056904Y-100886380D01*
X177295000Y-100886380D01*
X177437857Y-100934000D01*
X177533095Y-101029238D01*
X177580714Y-101124476D01*
X177628333Y-101314952D01*
X177628333Y-101457809D01*
X177580714Y-101648285D01*
X177533095Y-101743523D01*
X177437857Y-101838761D01*
X177295000Y-101886380D01*
X177056904Y-101886380D01*
X177961666Y-100886380D02*
X178628333Y-100886380D01*
X178199761Y-101886380D01*
%TO.C,J9*%
X213026666Y-90638380D02*
X213026666Y-91352666D01*
X212979047Y-91495523D01*
X212883809Y-91590761D01*
X212740952Y-91638380D01*
X212645714Y-91638380D01*
X213550476Y-91638380D02*
X213740952Y-91638380D01*
X213836190Y-91590761D01*
X213883809Y-91543142D01*
X213979047Y-91400285D01*
X214026666Y-91209809D01*
X214026666Y-90828857D01*
X213979047Y-90733619D01*
X213931428Y-90686000D01*
X213836190Y-90638380D01*
X213645714Y-90638380D01*
X213550476Y-90686000D01*
X213502857Y-90733619D01*
X213455238Y-90828857D01*
X213455238Y-91066952D01*
X213502857Y-91162190D01*
X213550476Y-91209809D01*
X213645714Y-91257428D01*
X213836190Y-91257428D01*
X213931428Y-91209809D01*
X213979047Y-91162190D01*
X214026666Y-91066952D01*
%TO.C,J2*%
X75866666Y-108418380D02*
X75866666Y-109132666D01*
X75819047Y-109275523D01*
X75723809Y-109370761D01*
X75580952Y-109418380D01*
X75485714Y-109418380D01*
X76295238Y-108513619D02*
X76342857Y-108466000D01*
X76438095Y-108418380D01*
X76676190Y-108418380D01*
X76771428Y-108466000D01*
X76819047Y-108513619D01*
X76866666Y-108608857D01*
X76866666Y-108704095D01*
X76819047Y-108846952D01*
X76247619Y-109418380D01*
X76866666Y-109418380D01*
%TO.C,D8*%
X197376904Y-101886380D02*
X197376904Y-100886380D01*
X197615000Y-100886380D01*
X197757857Y-100934000D01*
X197853095Y-101029238D01*
X197900714Y-101124476D01*
X197948333Y-101314952D01*
X197948333Y-101457809D01*
X197900714Y-101648285D01*
X197853095Y-101743523D01*
X197757857Y-101838761D01*
X197615000Y-101886380D01*
X197376904Y-101886380D01*
X198519761Y-101314952D02*
X198424523Y-101267333D01*
X198376904Y-101219714D01*
X198329285Y-101124476D01*
X198329285Y-101076857D01*
X198376904Y-100981619D01*
X198424523Y-100934000D01*
X198519761Y-100886380D01*
X198710238Y-100886380D01*
X198805476Y-100934000D01*
X198853095Y-100981619D01*
X198900714Y-101076857D01*
X198900714Y-101124476D01*
X198853095Y-101219714D01*
X198805476Y-101267333D01*
X198710238Y-101314952D01*
X198519761Y-101314952D01*
X198424523Y-101362571D01*
X198376904Y-101410190D01*
X198329285Y-101505428D01*
X198329285Y-101695904D01*
X198376904Y-101791142D01*
X198424523Y-101838761D01*
X198519761Y-101886380D01*
X198710238Y-101886380D01*
X198805476Y-101838761D01*
X198853095Y-101791142D01*
X198900714Y-101695904D01*
X198900714Y-101505428D01*
X198853095Y-101410190D01*
X198805476Y-101362571D01*
X198710238Y-101314952D01*
%TO.C,J11*%
X54702380Y-79944523D02*
X55416666Y-79944523D01*
X55559523Y-79992142D01*
X55654761Y-80087380D01*
X55702380Y-80230238D01*
X55702380Y-80325476D01*
X55702380Y-78944523D02*
X55702380Y-79515952D01*
X55702380Y-79230238D02*
X54702380Y-79230238D01*
X54845238Y-79325476D01*
X54940476Y-79420714D01*
X54988095Y-79515952D01*
X55702380Y-77992142D02*
X55702380Y-78563571D01*
X55702380Y-78277857D02*
X54702380Y-78277857D01*
X54845238Y-78373095D01*
X54940476Y-78468333D01*
X54988095Y-78563571D01*
%TO.C,U3*%
X61174380Y-91439904D02*
X61983904Y-91439904D01*
X62079142Y-91392285D01*
X62126761Y-91344666D01*
X62174380Y-91249428D01*
X62174380Y-91058952D01*
X62126761Y-90963714D01*
X62079142Y-90916095D01*
X61983904Y-90868476D01*
X61174380Y-90868476D01*
X61174380Y-90487523D02*
X61174380Y-89868476D01*
X61555333Y-90201809D01*
X61555333Y-90058952D01*
X61602952Y-89963714D01*
X61650571Y-89916095D01*
X61745809Y-89868476D01*
X61983904Y-89868476D01*
X62079142Y-89916095D01*
X62126761Y-89963714D01*
X62174380Y-90058952D01*
X62174380Y-90344666D01*
X62126761Y-90439904D01*
X62079142Y-90487523D01*
%TO.C,R3*%
X102222380Y-106846666D02*
X101746190Y-107180000D01*
X102222380Y-107418095D02*
X101222380Y-107418095D01*
X101222380Y-107037142D01*
X101270000Y-106941904D01*
X101317619Y-106894285D01*
X101412857Y-106846666D01*
X101555714Y-106846666D01*
X101650952Y-106894285D01*
X101698571Y-106941904D01*
X101746190Y-107037142D01*
X101746190Y-107418095D01*
X101222380Y-106513333D02*
X101222380Y-105894285D01*
X101603333Y-106227619D01*
X101603333Y-106084761D01*
X101650952Y-105989523D01*
X101698571Y-105941904D01*
X101793809Y-105894285D01*
X102031904Y-105894285D01*
X102127142Y-105941904D01*
X102174761Y-105989523D01*
X102222380Y-106084761D01*
X102222380Y-106370476D01*
X102174761Y-106465714D01*
X102127142Y-106513333D01*
%TO.C,J8*%
X197786666Y-108672380D02*
X197786666Y-109386666D01*
X197739047Y-109529523D01*
X197643809Y-109624761D01*
X197500952Y-109672380D01*
X197405714Y-109672380D01*
X198405714Y-109100952D02*
X198310476Y-109053333D01*
X198262857Y-109005714D01*
X198215238Y-108910476D01*
X198215238Y-108862857D01*
X198262857Y-108767619D01*
X198310476Y-108720000D01*
X198405714Y-108672380D01*
X198596190Y-108672380D01*
X198691428Y-108720000D01*
X198739047Y-108767619D01*
X198786666Y-108862857D01*
X198786666Y-108910476D01*
X198739047Y-109005714D01*
X198691428Y-109053333D01*
X198596190Y-109100952D01*
X198405714Y-109100952D01*
X198310476Y-109148571D01*
X198262857Y-109196190D01*
X198215238Y-109291428D01*
X198215238Y-109481904D01*
X198262857Y-109577142D01*
X198310476Y-109624761D01*
X198405714Y-109672380D01*
X198596190Y-109672380D01*
X198691428Y-109624761D01*
X198739047Y-109577142D01*
X198786666Y-109481904D01*
X198786666Y-109291428D01*
X198739047Y-109196190D01*
X198691428Y-109148571D01*
X198596190Y-109100952D01*
%TO.C,J6*%
X157146666Y-108672380D02*
X157146666Y-109386666D01*
X157099047Y-109529523D01*
X157003809Y-109624761D01*
X156860952Y-109672380D01*
X156765714Y-109672380D01*
X158051428Y-108672380D02*
X157860952Y-108672380D01*
X157765714Y-108720000D01*
X157718095Y-108767619D01*
X157622857Y-108910476D01*
X157575238Y-109100952D01*
X157575238Y-109481904D01*
X157622857Y-109577142D01*
X157670476Y-109624761D01*
X157765714Y-109672380D01*
X157956190Y-109672380D01*
X158051428Y-109624761D01*
X158099047Y-109577142D01*
X158146666Y-109481904D01*
X158146666Y-109243809D01*
X158099047Y-109148571D01*
X158051428Y-109100952D01*
X157956190Y-109053333D01*
X157765714Y-109053333D01*
X157670476Y-109100952D01*
X157622857Y-109148571D01*
X157575238Y-109243809D01*
%TO.C,R4*%
X122542380Y-106846666D02*
X122066190Y-107180000D01*
X122542380Y-107418095D02*
X121542380Y-107418095D01*
X121542380Y-107037142D01*
X121590000Y-106941904D01*
X121637619Y-106894285D01*
X121732857Y-106846666D01*
X121875714Y-106846666D01*
X121970952Y-106894285D01*
X122018571Y-106941904D01*
X122066190Y-107037142D01*
X122066190Y-107418095D01*
X121875714Y-105989523D02*
X122542380Y-105989523D01*
X121494761Y-106227619D02*
X122209047Y-106465714D01*
X122209047Y-105846666D01*
%TO.C,U2*%
X116502380Y-90931904D02*
X117311904Y-90931904D01*
X117407142Y-90884285D01*
X117454761Y-90836666D01*
X117502380Y-90741428D01*
X117502380Y-90550952D01*
X117454761Y-90455714D01*
X117407142Y-90408095D01*
X117311904Y-90360476D01*
X116502380Y-90360476D01*
X116597619Y-89931904D02*
X116550000Y-89884285D01*
X116502380Y-89789047D01*
X116502380Y-89550952D01*
X116550000Y-89455714D01*
X116597619Y-89408095D01*
X116692857Y-89360476D01*
X116788095Y-89360476D01*
X116930952Y-89408095D01*
X117502380Y-89979523D01*
X117502380Y-89360476D01*
%TO.C,D6*%
X156736904Y-101798380D02*
X156736904Y-100798380D01*
X156975000Y-100798380D01*
X157117857Y-100846000D01*
X157213095Y-100941238D01*
X157260714Y-101036476D01*
X157308333Y-101226952D01*
X157308333Y-101369809D01*
X157260714Y-101560285D01*
X157213095Y-101655523D01*
X157117857Y-101750761D01*
X156975000Y-101798380D01*
X156736904Y-101798380D01*
X158165476Y-100798380D02*
X157975000Y-100798380D01*
X157879761Y-100846000D01*
X157832142Y-100893619D01*
X157736904Y-101036476D01*
X157689285Y-101226952D01*
X157689285Y-101607904D01*
X157736904Y-101703142D01*
X157784523Y-101750761D01*
X157879761Y-101798380D01*
X158070238Y-101798380D01*
X158165476Y-101750761D01*
X158213095Y-101703142D01*
X158260714Y-101607904D01*
X158260714Y-101369809D01*
X158213095Y-101274571D01*
X158165476Y-101226952D01*
X158070238Y-101179333D01*
X157879761Y-101179333D01*
X157784523Y-101226952D01*
X157736904Y-101274571D01*
X157689285Y-101369809D01*
%TO.C,R6*%
X163182380Y-106846666D02*
X162706190Y-107180000D01*
X163182380Y-107418095D02*
X162182380Y-107418095D01*
X162182380Y-107037142D01*
X162230000Y-106941904D01*
X162277619Y-106894285D01*
X162372857Y-106846666D01*
X162515714Y-106846666D01*
X162610952Y-106894285D01*
X162658571Y-106941904D01*
X162706190Y-107037142D01*
X162706190Y-107418095D01*
X162182380Y-105989523D02*
X162182380Y-106180000D01*
X162230000Y-106275238D01*
X162277619Y-106322857D01*
X162420476Y-106418095D01*
X162610952Y-106465714D01*
X162991904Y-106465714D01*
X163087142Y-106418095D01*
X163134761Y-106370476D01*
X163182380Y-106275238D01*
X163182380Y-106084761D01*
X163134761Y-105989523D01*
X163087142Y-105941904D01*
X162991904Y-105894285D01*
X162753809Y-105894285D01*
X162658571Y-105941904D01*
X162610952Y-105989523D01*
X162563333Y-106084761D01*
X162563333Y-106275238D01*
X162610952Y-106370476D01*
X162658571Y-106418095D01*
X162753809Y-106465714D01*
%TO.C,REF\u002A\u002A*%
X44386666Y-69977380D02*
X44053333Y-69501190D01*
X43815238Y-69977380D02*
X43815238Y-68977380D01*
X44196190Y-68977380D01*
X44291428Y-69025000D01*
X44339047Y-69072619D01*
X44386666Y-69167857D01*
X44386666Y-69310714D01*
X44339047Y-69405952D01*
X44291428Y-69453571D01*
X44196190Y-69501190D01*
X43815238Y-69501190D01*
X44815238Y-69453571D02*
X45148571Y-69453571D01*
X45291428Y-69977380D02*
X44815238Y-69977380D01*
X44815238Y-68977380D01*
X45291428Y-68977380D01*
X46053333Y-69453571D02*
X45720000Y-69453571D01*
X45720000Y-69977380D02*
X45720000Y-68977380D01*
X46196190Y-68977380D01*
X46720000Y-68977380D02*
X46720000Y-69215476D01*
X46481904Y-69120238D02*
X46720000Y-69215476D01*
X46958095Y-69120238D01*
X46577142Y-69405952D02*
X46720000Y-69215476D01*
X46862857Y-69405952D01*
X47481904Y-68977380D02*
X47481904Y-69215476D01*
X47243809Y-69120238D02*
X47481904Y-69215476D01*
X47720000Y-69120238D01*
X47339047Y-69405952D02*
X47481904Y-69215476D01*
X47624761Y-69405952D01*
X44386666Y-111252380D02*
X44053333Y-110776190D01*
X43815238Y-111252380D02*
X43815238Y-110252380D01*
X44196190Y-110252380D01*
X44291428Y-110300000D01*
X44339047Y-110347619D01*
X44386666Y-110442857D01*
X44386666Y-110585714D01*
X44339047Y-110680952D01*
X44291428Y-110728571D01*
X44196190Y-110776190D01*
X43815238Y-110776190D01*
X44815238Y-110728571D02*
X45148571Y-110728571D01*
X45291428Y-111252380D02*
X44815238Y-111252380D01*
X44815238Y-110252380D01*
X45291428Y-110252380D01*
X46053333Y-110728571D02*
X45720000Y-110728571D01*
X45720000Y-111252380D02*
X45720000Y-110252380D01*
X46196190Y-110252380D01*
X46720000Y-110252380D02*
X46720000Y-110490476D01*
X46481904Y-110395238D02*
X46720000Y-110490476D01*
X46958095Y-110395238D01*
X46577142Y-110680952D02*
X46720000Y-110490476D01*
X46862857Y-110680952D01*
X47481904Y-110252380D02*
X47481904Y-110490476D01*
X47243809Y-110395238D02*
X47481904Y-110490476D01*
X47720000Y-110395238D01*
X47339047Y-110680952D02*
X47481904Y-110490476D01*
X47624761Y-110680952D01*
%TO.C,J3*%
X96186666Y-108672380D02*
X96186666Y-109386666D01*
X96139047Y-109529523D01*
X96043809Y-109624761D01*
X95900952Y-109672380D01*
X95805714Y-109672380D01*
X96567619Y-108672380D02*
X97186666Y-108672380D01*
X96853333Y-109053333D01*
X96996190Y-109053333D01*
X97091428Y-109100952D01*
X97139047Y-109148571D01*
X97186666Y-109243809D01*
X97186666Y-109481904D01*
X97139047Y-109577142D01*
X97091428Y-109624761D01*
X96996190Y-109672380D01*
X96710476Y-109672380D01*
X96615238Y-109624761D01*
X96567619Y-109577142D01*
%TO.C,R7*%
X183502380Y-106846666D02*
X183026190Y-107180000D01*
X183502380Y-107418095D02*
X182502380Y-107418095D01*
X182502380Y-107037142D01*
X182550000Y-106941904D01*
X182597619Y-106894285D01*
X182692857Y-106846666D01*
X182835714Y-106846666D01*
X182930952Y-106894285D01*
X182978571Y-106941904D01*
X183026190Y-107037142D01*
X183026190Y-107418095D01*
X182502380Y-106513333D02*
X182502380Y-105846666D01*
X183502380Y-106275238D01*
%TO.C,D4*%
X115588904Y-101886380D02*
X115588904Y-100886380D01*
X115827000Y-100886380D01*
X115969857Y-100934000D01*
X116065095Y-101029238D01*
X116112714Y-101124476D01*
X116160333Y-101314952D01*
X116160333Y-101457809D01*
X116112714Y-101648285D01*
X116065095Y-101743523D01*
X115969857Y-101838761D01*
X115827000Y-101886380D01*
X115588904Y-101886380D01*
X117017476Y-101219714D02*
X117017476Y-101886380D01*
X116779380Y-100838761D02*
X116541285Y-101553047D01*
X117160333Y-101553047D01*
%TO.C,D5*%
X136416904Y-101798380D02*
X136416904Y-100798380D01*
X136655000Y-100798380D01*
X136797857Y-100846000D01*
X136893095Y-100941238D01*
X136940714Y-101036476D01*
X136988333Y-101226952D01*
X136988333Y-101369809D01*
X136940714Y-101560285D01*
X136893095Y-101655523D01*
X136797857Y-101750761D01*
X136655000Y-101798380D01*
X136416904Y-101798380D01*
X137893095Y-100798380D02*
X137416904Y-100798380D01*
X137369285Y-101274571D01*
X137416904Y-101226952D01*
X137512142Y-101179333D01*
X137750238Y-101179333D01*
X137845476Y-101226952D01*
X137893095Y-101274571D01*
X137940714Y-101369809D01*
X137940714Y-101607904D01*
X137893095Y-101703142D01*
X137845476Y-101750761D01*
X137750238Y-101798380D01*
X137512142Y-101798380D01*
X137416904Y-101750761D01*
X137369285Y-101703142D01*
%TO.C,R5*%
X142862380Y-106846666D02*
X142386190Y-107180000D01*
X142862380Y-107418095D02*
X141862380Y-107418095D01*
X141862380Y-107037142D01*
X141910000Y-106941904D01*
X141957619Y-106894285D01*
X142052857Y-106846666D01*
X142195714Y-106846666D01*
X142290952Y-106894285D01*
X142338571Y-106941904D01*
X142386190Y-107037142D01*
X142386190Y-107418095D01*
X141862380Y-105941904D02*
X141862380Y-106418095D01*
X142338571Y-106465714D01*
X142290952Y-106418095D01*
X142243333Y-106322857D01*
X142243333Y-106084761D01*
X142290952Y-105989523D01*
X142338571Y-105941904D01*
X142433809Y-105894285D01*
X142671904Y-105894285D01*
X142767142Y-105941904D01*
X142814761Y-105989523D01*
X142862380Y-106084761D01*
X142862380Y-106322857D01*
X142814761Y-106418095D01*
X142767142Y-106465714D01*
%TO.C,D3*%
X95776904Y-101886380D02*
X95776904Y-100886380D01*
X96015000Y-100886380D01*
X96157857Y-100934000D01*
X96253095Y-101029238D01*
X96300714Y-101124476D01*
X96348333Y-101314952D01*
X96348333Y-101457809D01*
X96300714Y-101648285D01*
X96253095Y-101743523D01*
X96157857Y-101838761D01*
X96015000Y-101886380D01*
X95776904Y-101886380D01*
X96681666Y-100886380D02*
X97300714Y-100886380D01*
X96967380Y-101267333D01*
X97110238Y-101267333D01*
X97205476Y-101314952D01*
X97253095Y-101362571D01*
X97300714Y-101457809D01*
X97300714Y-101695904D01*
X97253095Y-101791142D01*
X97205476Y-101838761D01*
X97110238Y-101886380D01*
X96824523Y-101886380D01*
X96729285Y-101838761D01*
X96681666Y-101791142D01*
%TO.C,REF\u002A\u002A*%
X213931666Y-69977380D02*
X213598333Y-69501190D01*
X213360238Y-69977380D02*
X213360238Y-68977380D01*
X213741190Y-68977380D01*
X213836428Y-69025000D01*
X213884047Y-69072619D01*
X213931666Y-69167857D01*
X213931666Y-69310714D01*
X213884047Y-69405952D01*
X213836428Y-69453571D01*
X213741190Y-69501190D01*
X213360238Y-69501190D01*
X214360238Y-69453571D02*
X214693571Y-69453571D01*
X214836428Y-69977380D02*
X214360238Y-69977380D01*
X214360238Y-68977380D01*
X214836428Y-68977380D01*
X215598333Y-69453571D02*
X215265000Y-69453571D01*
X215265000Y-69977380D02*
X215265000Y-68977380D01*
X215741190Y-68977380D01*
X216265000Y-68977380D02*
X216265000Y-69215476D01*
X216026904Y-69120238D02*
X216265000Y-69215476D01*
X216503095Y-69120238D01*
X216122142Y-69405952D02*
X216265000Y-69215476D01*
X216407857Y-69405952D01*
X217026904Y-68977380D02*
X217026904Y-69215476D01*
X216788809Y-69120238D02*
X217026904Y-69215476D01*
X217265000Y-69120238D01*
X216884047Y-69405952D02*
X217026904Y-69215476D01*
X217169761Y-69405952D01*
%TO.C,JP1*%
X49458666Y-106154380D02*
X49458666Y-106868666D01*
X49411047Y-107011523D01*
X49315809Y-107106761D01*
X49172952Y-107154380D01*
X49077714Y-107154380D01*
X49934857Y-107154380D02*
X49934857Y-106154380D01*
X50315809Y-106154380D01*
X50411047Y-106202000D01*
X50458666Y-106249619D01*
X50506285Y-106344857D01*
X50506285Y-106487714D01*
X50458666Y-106582952D01*
X50411047Y-106630571D01*
X50315809Y-106678190D01*
X49934857Y-106678190D01*
X51458666Y-107154380D02*
X50887238Y-107154380D01*
X51172952Y-107154380D02*
X51172952Y-106154380D01*
X51077714Y-106297238D01*
X50982476Y-106392476D01*
X50887238Y-106440095D01*
%TO.C,R1*%
X64122380Y-106846666D02*
X63646190Y-107180000D01*
X64122380Y-107418095D02*
X63122380Y-107418095D01*
X63122380Y-107037142D01*
X63170000Y-106941904D01*
X63217619Y-106894285D01*
X63312857Y-106846666D01*
X63455714Y-106846666D01*
X63550952Y-106894285D01*
X63598571Y-106941904D01*
X63646190Y-107037142D01*
X63646190Y-107418095D01*
X64122380Y-105894285D02*
X64122380Y-106465714D01*
X64122380Y-106180000D02*
X63122380Y-106180000D01*
X63265238Y-106275238D01*
X63360476Y-106370476D01*
X63408095Y-106465714D01*
%TO.C,JP2*%
X53532380Y-97607333D02*
X54246666Y-97607333D01*
X54389523Y-97654952D01*
X54484761Y-97750190D01*
X54532380Y-97893047D01*
X54532380Y-97988285D01*
X54532380Y-97131142D02*
X53532380Y-97131142D01*
X53532380Y-96750190D01*
X53580000Y-96654952D01*
X53627619Y-96607333D01*
X53722857Y-96559714D01*
X53865714Y-96559714D01*
X53960952Y-96607333D01*
X54008571Y-96654952D01*
X54056190Y-96750190D01*
X54056190Y-97131142D01*
X53627619Y-96178761D02*
X53580000Y-96131142D01*
X53532380Y-96035904D01*
X53532380Y-95797809D01*
X53580000Y-95702571D01*
X53627619Y-95654952D01*
X53722857Y-95607333D01*
X53818095Y-95607333D01*
X53960952Y-95654952D01*
X54532380Y-96226380D01*
X54532380Y-95607333D01*
%TO.C,J5*%
X136826666Y-108672380D02*
X136826666Y-109386666D01*
X136779047Y-109529523D01*
X136683809Y-109624761D01*
X136540952Y-109672380D01*
X136445714Y-109672380D01*
X137779047Y-108672380D02*
X137302857Y-108672380D01*
X137255238Y-109148571D01*
X137302857Y-109100952D01*
X137398095Y-109053333D01*
X137636190Y-109053333D01*
X137731428Y-109100952D01*
X137779047Y-109148571D01*
X137826666Y-109243809D01*
X137826666Y-109481904D01*
X137779047Y-109577142D01*
X137731428Y-109624761D01*
X137636190Y-109672380D01*
X137398095Y-109672380D01*
X137302857Y-109624761D01*
X137255238Y-109577142D01*
%TO.C,R2*%
X81902380Y-106846666D02*
X81426190Y-107180000D01*
X81902380Y-107418095D02*
X80902380Y-107418095D01*
X80902380Y-107037142D01*
X80950000Y-106941904D01*
X80997619Y-106894285D01*
X81092857Y-106846666D01*
X81235714Y-106846666D01*
X81330952Y-106894285D01*
X81378571Y-106941904D01*
X81426190Y-107037142D01*
X81426190Y-107418095D01*
X80997619Y-106465714D02*
X80950000Y-106418095D01*
X80902380Y-106322857D01*
X80902380Y-106084761D01*
X80950000Y-105989523D01*
X80997619Y-105941904D01*
X81092857Y-105894285D01*
X81188095Y-105894285D01*
X81330952Y-105941904D01*
X81902380Y-106513333D01*
X81902380Y-105894285D01*
%TO.C,U1*%
X51776380Y-98043904D02*
X52585904Y-98043904D01*
X52681142Y-97996285D01*
X52728761Y-97948666D01*
X52776380Y-97853428D01*
X52776380Y-97662952D01*
X52728761Y-97567714D01*
X52681142Y-97520095D01*
X52585904Y-97472476D01*
X51776380Y-97472476D01*
X52776380Y-96472476D02*
X52776380Y-97043904D01*
X52776380Y-96758190D02*
X51776380Y-96758190D01*
X51919238Y-96853428D01*
X52014476Y-96948666D01*
X52062095Y-97043904D01*
%TO.C,J4*%
X116076666Y-108352380D02*
X116076666Y-109066666D01*
X116029047Y-109209523D01*
X115933809Y-109304761D01*
X115790952Y-109352380D01*
X115695714Y-109352380D01*
X116981428Y-108685714D02*
X116981428Y-109352380D01*
X116743333Y-108304761D02*
X116505238Y-109019047D01*
X117124285Y-109019047D01*
%TO.C,J12*%
X204552380Y-89314523D02*
X205266666Y-89314523D01*
X205409523Y-89362142D01*
X205504761Y-89457380D01*
X205552380Y-89600238D01*
X205552380Y-89695476D01*
X205552380Y-88314523D02*
X205552380Y-88885952D01*
X205552380Y-88600238D02*
X204552380Y-88600238D01*
X204695238Y-88695476D01*
X204790476Y-88790714D01*
X204838095Y-88885952D01*
X204647619Y-87933571D02*
X204600000Y-87885952D01*
X204552380Y-87790714D01*
X204552380Y-87552619D01*
X204600000Y-87457380D01*
X204647619Y-87409761D01*
X204742857Y-87362142D01*
X204838095Y-87362142D01*
X204980952Y-87409761D01*
X205552380Y-87981190D01*
X205552380Y-87362142D01*
%TO.C,R8*%
X203822380Y-106846666D02*
X203346190Y-107180000D01*
X203822380Y-107418095D02*
X202822380Y-107418095D01*
X202822380Y-107037142D01*
X202870000Y-106941904D01*
X202917619Y-106894285D01*
X203012857Y-106846666D01*
X203155714Y-106846666D01*
X203250952Y-106894285D01*
X203298571Y-106941904D01*
X203346190Y-107037142D01*
X203346190Y-107418095D01*
X203250952Y-106275238D02*
X203203333Y-106370476D01*
X203155714Y-106418095D01*
X203060476Y-106465714D01*
X203012857Y-106465714D01*
X202917619Y-106418095D01*
X202870000Y-106370476D01*
X202822380Y-106275238D01*
X202822380Y-106084761D01*
X202870000Y-105989523D01*
X202917619Y-105941904D01*
X203012857Y-105894285D01*
X203060476Y-105894285D01*
X203155714Y-105941904D01*
X203203333Y-105989523D01*
X203250952Y-106084761D01*
X203250952Y-106275238D01*
X203298571Y-106370476D01*
X203346190Y-106418095D01*
X203441428Y-106465714D01*
X203631904Y-106465714D01*
X203727142Y-106418095D01*
X203774761Y-106370476D01*
X203822380Y-106275238D01*
X203822380Y-106084761D01*
X203774761Y-105989523D01*
X203727142Y-105941904D01*
X203631904Y-105894285D01*
X203441428Y-105894285D01*
X203346190Y-105941904D01*
X203298571Y-105989523D01*
X203250952Y-106084761D01*
%TO.C,D1*%
X56660904Y-101886380D02*
X56660904Y-100886380D01*
X56899000Y-100886380D01*
X57041857Y-100934000D01*
X57137095Y-101029238D01*
X57184714Y-101124476D01*
X57232333Y-101314952D01*
X57232333Y-101457809D01*
X57184714Y-101648285D01*
X57137095Y-101743523D01*
X57041857Y-101838761D01*
X56899000Y-101886380D01*
X56660904Y-101886380D01*
X58184714Y-101886380D02*
X57613285Y-101886380D01*
X57899000Y-101886380D02*
X57899000Y-100886380D01*
X57803761Y-101029238D01*
X57708523Y-101124476D01*
X57613285Y-101172095D01*
D11*
%TO.C,J7*%
X182880000Y-110490000D02*
X172720000Y-110490000D01*
X172720000Y-110490000D02*
X172720000Y-118110000D01*
X172720000Y-118110000D02*
X182880000Y-118110000D01*
X182880000Y-118110000D02*
X182880000Y-110490000D01*
X182880000Y-116840000D02*
X172720000Y-116840000D01*
%TO.C,J1*%
X62484000Y-117856000D02*
X62484000Y-110236000D01*
X52324000Y-110236000D02*
X52324000Y-117856000D01*
X62484000Y-110236000D02*
X52324000Y-110236000D01*
X52324000Y-117856000D02*
X62484000Y-117856000D01*
X62484000Y-116586000D02*
X52324000Y-116586000D01*
%TO.C,D2*%
X74635000Y-105474000D02*
X74635000Y-105630000D01*
X74635000Y-103158000D02*
X74635000Y-103314000D01*
X74635000Y-105629516D02*
G75*
G03*
X77867335Y-105472608I1560000J1235517D01*
G01*
X75154039Y-105474000D02*
G75*
G03*
X77236130Y-105473837I1040961J1080000D01*
G01*
X77867335Y-103315392D02*
G75*
G03*
X74635000Y-103158484I-1672335J-1078609D01*
G01*
X77236130Y-103314163D02*
G75*
G03*
X75154039Y-103314000I-1041130J-1079837D01*
G01*
%TO.C,D7*%
X176235000Y-103158000D02*
X176235000Y-103314000D01*
X176235000Y-105474000D02*
X176235000Y-105630000D01*
X178836130Y-103314163D02*
G75*
G03*
X176754039Y-103314000I-1041130J-1079837D01*
G01*
X176754039Y-105474000D02*
G75*
G03*
X178836130Y-105473837I1040961J1080000D01*
G01*
X176235000Y-105629516D02*
G75*
G03*
X179467335Y-105472608I1560000J1235517D01*
G01*
X179467335Y-103315392D02*
G75*
G03*
X176235000Y-103158484I-1672335J-1078609D01*
G01*
%TO.C,J9*%
X218035000Y-108220000D02*
X208685000Y-108220000D01*
X208435000Y-92190000D02*
X208435000Y-94730000D01*
X218035000Y-92440000D02*
X218035000Y-108220000D01*
X208685000Y-92440000D02*
X218035000Y-92440000D01*
X208435000Y-92190000D02*
X210975000Y-92190000D01*
X208685000Y-108220000D02*
X208685000Y-92440000D01*
%TO.C,J2*%
X71120000Y-110236000D02*
X71120000Y-117856000D01*
X71120000Y-117856000D02*
X81280000Y-117856000D01*
X81280000Y-116586000D02*
X71120000Y-116586000D01*
X81280000Y-117856000D02*
X81280000Y-110236000D01*
X81280000Y-110236000D02*
X71120000Y-110236000D01*
%TO.C,D8*%
X196555000Y-103158000D02*
X196555000Y-103314000D01*
X196555000Y-105474000D02*
X196555000Y-105630000D01*
X197074039Y-105474000D02*
G75*
G03*
X199156130Y-105473837I1040961J1080000D01*
G01*
X196555000Y-105629516D02*
G75*
G03*
X199787335Y-105472608I1560000J1235517D01*
G01*
X199787335Y-103315392D02*
G75*
G03*
X196555000Y-103158484I-1672335J-1078609D01*
G01*
X199156130Y-103314163D02*
G75*
G03*
X197074039Y-103314000I-1041130J-1079837D01*
G01*
%TO.C,J11*%
X49460000Y-89255000D02*
X54560000Y-89255000D01*
X54560000Y-89255000D02*
X54560000Y-78405000D01*
X44360000Y-88755000D02*
X49760000Y-88755000D01*
X41960000Y-78405000D02*
X41960000Y-88755000D01*
X44560000Y-89255000D02*
X44610000Y-89255000D01*
X42910000Y-88755000D02*
X42660000Y-89255000D01*
X41960000Y-88755000D02*
X42910000Y-88755000D01*
X42660000Y-89255000D02*
X44560000Y-89255000D01*
X54560000Y-78405000D02*
X41960000Y-78405000D01*
X49760000Y-88755000D02*
X49460000Y-89255000D01*
X44610000Y-89255000D02*
X44360000Y-88755000D01*
%TO.C,U3*%
X62738000Y-82042000D02*
X62738000Y-99822000D01*
X105918000Y-82042000D02*
X62738000Y-82042000D01*
X105918000Y-99822000D02*
X105918000Y-82042000D01*
X62738000Y-99822000D02*
X105918000Y-99822000D01*
%TO.C,R3*%
X104140000Y-105180000D02*
X104140000Y-105950000D01*
X102770000Y-112490000D02*
X105510000Y-112490000D01*
X102770000Y-105950000D02*
X102770000Y-112490000D01*
X105510000Y-105950000D02*
X102770000Y-105950000D01*
X104140000Y-113260000D02*
X104140000Y-112490000D01*
X105510000Y-112490000D02*
X105510000Y-105950000D01*
%TO.C,J8*%
X203200000Y-110490000D02*
X193040000Y-110490000D01*
X193040000Y-118110000D02*
X203200000Y-118110000D01*
X193040000Y-110490000D02*
X193040000Y-118110000D01*
X203200000Y-116840000D02*
X193040000Y-116840000D01*
X203200000Y-118110000D02*
X203200000Y-110490000D01*
%TO.C,J6*%
X162560000Y-118110000D02*
X162560000Y-110490000D01*
X152400000Y-118110000D02*
X162560000Y-118110000D01*
X162560000Y-110490000D02*
X152400000Y-110490000D01*
X162560000Y-116840000D02*
X152400000Y-116840000D01*
X152400000Y-110490000D02*
X152400000Y-118110000D01*
%TO.C,R4*%
X125830000Y-112490000D02*
X125830000Y-105950000D01*
X125830000Y-105950000D02*
X123090000Y-105950000D01*
X124460000Y-105180000D02*
X124460000Y-105950000D01*
X123090000Y-105950000D02*
X123090000Y-112490000D01*
X123090000Y-112490000D02*
X125830000Y-112490000D01*
X124460000Y-113260000D02*
X124460000Y-112490000D01*
%TO.C,U2*%
X118050000Y-87520000D02*
X118050000Y-89170000D01*
X117990000Y-95310000D02*
X143630000Y-95310000D01*
X143630000Y-95310000D02*
X143630000Y-85030000D01*
X118050000Y-92820000D02*
X143570000Y-92820000D01*
X143570000Y-92820000D02*
X143570000Y-87520000D01*
X117990000Y-85030000D02*
X117990000Y-95310000D01*
X118050000Y-91170000D02*
X118050000Y-92820000D01*
X143630000Y-85030000D02*
X117990000Y-85030000D01*
X143570000Y-87520000D02*
X118050000Y-87520000D01*
X118050000Y-91170000D02*
G75*
G03*
X118050000Y-89170000I0J1000000D01*
G01*
%TO.C,D6*%
X155915000Y-103158000D02*
X155915000Y-103314000D01*
X155915000Y-105474000D02*
X155915000Y-105630000D01*
X159147335Y-103315392D02*
G75*
G03*
X155915000Y-103158484I-1672335J-1078609D01*
G01*
X156434039Y-105474000D02*
G75*
G03*
X158516130Y-105473837I1040961J1080000D01*
G01*
X158516130Y-103314163D02*
G75*
G03*
X156434039Y-103314000I-1041130J-1079837D01*
G01*
X155915000Y-105629516D02*
G75*
G03*
X159147335Y-105472608I1560000J1235517D01*
G01*
D12*
%TO.C,G\u002A\u002A\u002A*%
X158933401Y-82564619D02*
X159651681Y-82692127D01*
X159651681Y-82692127D02*
X160264286Y-82872654D01*
X160264286Y-82872654D02*
X160728907Y-83074300D01*
X160728907Y-83074300D02*
X161095426Y-83306959D01*
X161095426Y-83306959D02*
X161363665Y-83570099D01*
X161363665Y-83570099D02*
X161533445Y-83863187D01*
X161533445Y-83863187D02*
X161604586Y-84185690D01*
X161604586Y-84185690D02*
X161576910Y-84537076D01*
X161576910Y-84537076D02*
X161450238Y-84916813D01*
X161450238Y-84916813D02*
X161224390Y-85324366D01*
X161224390Y-85324366D02*
X161132923Y-85458081D01*
X161132923Y-85458081D02*
X160813298Y-85843177D01*
X160813298Y-85843177D02*
X160403521Y-86235257D01*
X160403521Y-86235257D02*
X159915490Y-86627067D01*
X159915490Y-86627067D02*
X159361105Y-87011350D01*
X159361105Y-87011350D02*
X158752268Y-87380850D01*
X158752268Y-87380850D02*
X158100878Y-87728312D01*
X158100878Y-87728312D02*
X157418835Y-88046479D01*
X157418835Y-88046479D02*
X156718040Y-88328097D01*
X156718040Y-88328097D02*
X156061104Y-88550471D01*
X156061104Y-88550471D02*
X155636053Y-88680931D01*
X155636053Y-88680931D02*
X155636053Y-88432925D01*
X155636053Y-88432925D02*
X155666230Y-88154213D01*
X155666230Y-88154213D02*
X155747026Y-87845197D01*
X155747026Y-87845197D02*
X155863835Y-87550849D01*
X155863835Y-87550849D02*
X155996190Y-87323963D01*
X155996190Y-87323963D02*
X156170257Y-87085588D01*
X156170257Y-87085588D02*
X156291072Y-86909634D01*
X156291072Y-86909634D02*
X156369198Y-86777618D01*
X156369198Y-86777618D02*
X156415196Y-86671056D01*
X156415196Y-86671056D02*
X156439630Y-86571466D01*
X156439630Y-86571466D02*
X156444412Y-86539603D01*
X156444412Y-86539603D02*
X156465019Y-86429949D01*
X156465019Y-86429949D02*
X156506389Y-86357567D01*
X156506389Y-86357567D02*
X156592459Y-86300175D01*
X156592459Y-86300175D02*
X156747166Y-86235490D01*
X156747166Y-86235490D02*
X156787773Y-86219975D01*
X156787773Y-86219975D02*
X157268785Y-86022870D01*
X157268785Y-86022870D02*
X157739639Y-85803285D01*
X157739639Y-85803285D02*
X158183025Y-85570925D01*
X158183025Y-85570925D02*
X158581636Y-85335492D01*
X158581636Y-85335492D02*
X158918162Y-85106690D01*
X158918162Y-85106690D02*
X159175295Y-84894224D01*
X159175295Y-84894224D02*
X159206029Y-84864281D01*
X159206029Y-84864281D02*
X159443719Y-84576403D01*
X159443719Y-84576403D02*
X159590719Y-84285434D01*
X159590719Y-84285434D02*
X159646705Y-84001100D01*
X159646705Y-84001100D02*
X159611353Y-83733125D01*
X159611353Y-83733125D02*
X159484339Y-83491234D01*
X159484339Y-83491234D02*
X159265341Y-83285153D01*
X159265341Y-83285153D02*
X159258736Y-83280580D01*
X159258736Y-83280580D02*
X159061281Y-83162817D01*
X159061281Y-83162817D02*
X158846166Y-83074643D01*
X158846166Y-83074643D02*
X158595676Y-83012575D01*
X158595676Y-83012575D02*
X158292099Y-82973128D01*
X158292099Y-82973128D02*
X157917721Y-82952817D01*
X157917721Y-82952817D02*
X157568102Y-82948022D01*
X157568102Y-82948022D02*
X157135822Y-82952776D01*
X157135822Y-82952776D02*
X156768497Y-82971930D01*
X156768497Y-82971930D02*
X156435202Y-83010400D01*
X156435202Y-83010400D02*
X156105013Y-83073102D01*
X156105013Y-83073102D02*
X155747009Y-83164951D01*
X155747009Y-83164951D02*
X155330263Y-83290862D01*
X155330263Y-83290862D02*
X155249643Y-83316555D01*
X155249643Y-83316555D02*
X154713078Y-83508991D01*
X154713078Y-83508991D02*
X154274934Y-83710569D01*
X154274934Y-83710569D02*
X153936128Y-83920630D01*
X153936128Y-83920630D02*
X153697581Y-84138513D01*
X153697581Y-84138513D02*
X153560210Y-84363554D01*
X153560210Y-84363554D02*
X153523680Y-84558527D01*
X153523680Y-84558527D02*
X153571877Y-84719314D01*
X153571877Y-84719314D02*
X153703226Y-84865251D01*
X153703226Y-84865251D02*
X153897865Y-84979106D01*
X153897865Y-84979106D02*
X154069957Y-85032367D01*
X154069957Y-85032367D02*
X154342408Y-85059838D01*
X154342408Y-85059838D02*
X154673172Y-85047445D01*
X154673172Y-85047445D02*
X155042595Y-85000414D01*
X155042595Y-85000414D02*
X155431018Y-84923975D01*
X155431018Y-84923975D02*
X155818785Y-84823354D01*
X155818785Y-84823354D02*
X156186239Y-84703780D01*
X156186239Y-84703780D02*
X156513724Y-84570482D01*
X156513724Y-84570482D02*
X156781583Y-84428687D01*
X156781583Y-84428687D02*
X156970158Y-84283623D01*
X156970158Y-84283623D02*
X156997415Y-84253748D01*
X156997415Y-84253748D02*
X157112200Y-84068521D01*
X157112200Y-84068521D02*
X157133787Y-83906478D01*
X157133787Y-83906478D02*
X157070446Y-83772858D01*
X157070446Y-83772858D02*
X156930450Y-83672905D01*
X156930450Y-83672905D02*
X156722069Y-83611860D01*
X156722069Y-83611860D02*
X156453573Y-83594966D01*
X156453573Y-83594966D02*
X156133234Y-83627464D01*
X156133234Y-83627464D02*
X156037879Y-83645605D01*
X156037879Y-83645605D02*
X155759788Y-83719310D01*
X155759788Y-83719310D02*
X155515420Y-83813145D01*
X155515420Y-83813145D02*
X155312554Y-83919094D01*
X155312554Y-83919094D02*
X155158966Y-84029139D01*
X155158966Y-84029139D02*
X155062434Y-84135266D01*
X155062434Y-84135266D02*
X155030733Y-84229456D01*
X155030733Y-84229456D02*
X155071642Y-84303694D01*
X155071642Y-84303694D02*
X155192936Y-84349962D01*
X155192936Y-84349962D02*
X155343381Y-84361489D01*
X155343381Y-84361489D02*
X155538274Y-84350222D01*
X155538274Y-84350222D02*
X155714672Y-84320693D01*
X155714672Y-84320693D02*
X155849042Y-84279310D01*
X155849042Y-84279310D02*
X155917849Y-84232480D01*
X155917849Y-84232480D02*
X155918220Y-84204983D01*
X155918220Y-84204983D02*
X155855802Y-84187879D01*
X155855802Y-84187879D02*
X155750837Y-84207587D01*
X155750837Y-84207587D02*
X155541811Y-84260980D01*
X155541811Y-84260980D02*
X155359059Y-84280588D01*
X155359059Y-84280588D02*
X155234235Y-84263471D01*
X155234235Y-84263471D02*
X155221207Y-84256792D01*
X155221207Y-84256792D02*
X155182627Y-84194896D01*
X155182627Y-84194896D02*
X155244017Y-84118141D01*
X155244017Y-84118141D02*
X155405970Y-84026085D01*
X155405970Y-84026085D02*
X155669077Y-83918284D01*
X155669077Y-83918284D02*
X155677520Y-83915176D01*
X155677520Y-83915176D02*
X155929020Y-83839343D01*
X155929020Y-83839343D02*
X156189999Y-83788443D01*
X156189999Y-83788443D02*
X156438096Y-83763764D01*
X156438096Y-83763764D02*
X156650946Y-83766592D01*
X156650946Y-83766592D02*
X156806188Y-83798215D01*
X156806188Y-83798215D02*
X156874646Y-83846276D01*
X156874646Y-83846276D02*
X156912433Y-83984297D01*
X156912433Y-83984297D02*
X156851222Y-84122951D01*
X156851222Y-84122951D02*
X156695014Y-84259788D01*
X156695014Y-84259788D02*
X156447806Y-84392364D01*
X156447806Y-84392364D02*
X156113599Y-84518230D01*
X156113599Y-84518230D02*
X155696392Y-84634940D01*
X155696392Y-84634940D02*
X155518539Y-84676025D01*
X155518539Y-84676025D02*
X155096107Y-84755214D01*
X155096107Y-84755214D02*
X154722019Y-84798564D01*
X154722019Y-84798564D02*
X154405758Y-84806507D01*
X154405758Y-84806507D02*
X154156807Y-84779473D01*
X154156807Y-84779473D02*
X153984650Y-84717893D01*
X153984650Y-84717893D02*
X153898771Y-84622200D01*
X153898771Y-84622200D02*
X153893351Y-84602140D01*
X153893351Y-84602140D02*
X153894331Y-84442595D01*
X153894331Y-84442595D02*
X153965802Y-84292419D01*
X153965802Y-84292419D02*
X154114567Y-84145821D01*
X154114567Y-84145821D02*
X154347427Y-83997007D01*
X154347427Y-83997007D02*
X154671186Y-83840185D01*
X154671186Y-83840185D02*
X154900845Y-83744257D01*
X154900845Y-83744257D02*
X155487385Y-83531041D01*
X155487385Y-83531041D02*
X156032172Y-83381564D01*
X156032172Y-83381564D02*
X156567978Y-83288402D01*
X156567978Y-83288402D02*
X157104410Y-83245052D01*
X157104410Y-83245052D02*
X157605180Y-83244209D01*
X157605180Y-83244209D02*
X158038683Y-83283469D01*
X158038683Y-83283469D02*
X158400860Y-83359472D01*
X158400860Y-83359472D02*
X158687655Y-83468862D01*
X158687655Y-83468862D02*
X158895009Y-83608279D01*
X158895009Y-83608279D02*
X159018865Y-83774366D01*
X159018865Y-83774366D02*
X159055166Y-83963766D01*
X159055166Y-83963766D02*
X158999853Y-84173119D01*
X158999853Y-84173119D02*
X158848868Y-84399068D01*
X158848868Y-84399068D02*
X158691605Y-84558571D01*
X158691605Y-84558571D02*
X158511183Y-84694673D01*
X158511183Y-84694673D02*
X158254703Y-84852468D01*
X158254703Y-84852468D02*
X157943862Y-85021070D01*
X157943862Y-85021070D02*
X157600360Y-85189589D01*
X157600360Y-85189589D02*
X157245895Y-85347139D01*
X157245895Y-85347139D02*
X156902163Y-85482831D01*
X156902163Y-85482831D02*
X156730831Y-85542467D01*
X156730831Y-85542467D02*
X156142388Y-85710171D01*
X156142388Y-85710171D02*
X155490877Y-85850187D01*
X155490877Y-85850187D02*
X154814387Y-85954448D01*
X154814387Y-85954448D02*
X154748042Y-85962454D01*
X154748042Y-85962454D02*
X154446044Y-85988231D01*
X154446044Y-85988231D02*
X154103500Y-86001538D01*
X154103500Y-86001538D02*
X153742553Y-86003120D01*
X153742553Y-86003120D02*
X153385348Y-85993722D01*
X153385348Y-85993722D02*
X153054028Y-85974089D01*
X153054028Y-85974089D02*
X152770736Y-85944967D01*
X152770736Y-85944967D02*
X152557617Y-85907099D01*
X152557617Y-85907099D02*
X152487796Y-85886420D01*
X152487796Y-85886420D02*
X152223015Y-85748475D01*
X152223015Y-85748475D02*
X152045237Y-85566464D01*
X152045237Y-85566464D02*
X151952624Y-85348527D01*
X151952624Y-85348527D02*
X151943342Y-85102804D01*
X151943342Y-85102804D02*
X152015552Y-84837436D01*
X152015552Y-84837436D02*
X152167419Y-84560562D01*
X152167419Y-84560562D02*
X152397107Y-84280322D01*
X152397107Y-84280322D02*
X152702780Y-84004858D01*
X152702780Y-84004858D02*
X152952922Y-83824542D01*
X152952922Y-83824542D02*
X153576132Y-83464541D01*
X153576132Y-83464541D02*
X154266397Y-83158295D01*
X154266397Y-83158295D02*
X155007954Y-82907857D01*
X155007954Y-82907857D02*
X155785039Y-82715280D01*
X155785039Y-82715280D02*
X156581890Y-82582615D01*
X156581890Y-82582615D02*
X157382743Y-82511915D01*
X157382743Y-82511915D02*
X158171834Y-82505232D01*
X158171834Y-82505232D02*
X158933401Y-82564619D01*
X158933401Y-82564619D02*
X158933401Y-82564619D01*
G36*
X158933401Y-82564619D02*
G01*
X159651681Y-82692127D01*
X160264286Y-82872654D01*
X160728907Y-83074300D01*
X161095426Y-83306959D01*
X161363665Y-83570099D01*
X161533445Y-83863187D01*
X161604586Y-84185690D01*
X161576910Y-84537076D01*
X161450238Y-84916813D01*
X161224390Y-85324366D01*
X161132923Y-85458081D01*
X160813298Y-85843177D01*
X160403521Y-86235257D01*
X159915490Y-86627067D01*
X159361105Y-87011350D01*
X158752268Y-87380850D01*
X158100878Y-87728312D01*
X157418835Y-88046479D01*
X156718040Y-88328097D01*
X156061104Y-88550471D01*
X155636053Y-88680931D01*
X155636053Y-88432925D01*
X155666230Y-88154213D01*
X155747026Y-87845197D01*
X155863835Y-87550849D01*
X155996190Y-87323963D01*
X156170257Y-87085588D01*
X156291072Y-86909634D01*
X156369198Y-86777618D01*
X156415196Y-86671056D01*
X156439630Y-86571466D01*
X156444412Y-86539603D01*
X156465019Y-86429949D01*
X156506389Y-86357567D01*
X156592459Y-86300175D01*
X156747166Y-86235490D01*
X156787773Y-86219975D01*
X157268785Y-86022870D01*
X157739639Y-85803285D01*
X158183025Y-85570925D01*
X158581636Y-85335492D01*
X158918162Y-85106690D01*
X159175295Y-84894224D01*
X159206029Y-84864281D01*
X159443719Y-84576403D01*
X159590719Y-84285434D01*
X159646705Y-84001100D01*
X159611353Y-83733125D01*
X159484339Y-83491234D01*
X159265341Y-83285153D01*
X159258736Y-83280580D01*
X159061281Y-83162817D01*
X158846166Y-83074643D01*
X158595676Y-83012575D01*
X158292099Y-82973128D01*
X157917721Y-82952817D01*
X157568102Y-82948022D01*
X157135822Y-82952776D01*
X156768497Y-82971930D01*
X156435202Y-83010400D01*
X156105013Y-83073102D01*
X155747009Y-83164951D01*
X155330263Y-83290862D01*
X155249643Y-83316555D01*
X154713078Y-83508991D01*
X154274934Y-83710569D01*
X153936128Y-83920630D01*
X153697581Y-84138513D01*
X153560210Y-84363554D01*
X153523680Y-84558527D01*
X153571877Y-84719314D01*
X153703226Y-84865251D01*
X153897865Y-84979106D01*
X154069957Y-85032367D01*
X154342408Y-85059838D01*
X154673172Y-85047445D01*
X155042595Y-85000414D01*
X155431018Y-84923975D01*
X155818785Y-84823354D01*
X156186239Y-84703780D01*
X156513724Y-84570482D01*
X156781583Y-84428687D01*
X156970158Y-84283623D01*
X156997415Y-84253748D01*
X157112200Y-84068521D01*
X157133787Y-83906478D01*
X157070446Y-83772858D01*
X156930450Y-83672905D01*
X156722069Y-83611860D01*
X156453573Y-83594966D01*
X156133234Y-83627464D01*
X156037879Y-83645605D01*
X155759788Y-83719310D01*
X155515420Y-83813145D01*
X155312554Y-83919094D01*
X155158966Y-84029139D01*
X155062434Y-84135266D01*
X155030733Y-84229456D01*
X155071642Y-84303694D01*
X155192936Y-84349962D01*
X155343381Y-84361489D01*
X155538274Y-84350222D01*
X155714672Y-84320693D01*
X155849042Y-84279310D01*
X155917849Y-84232480D01*
X155918220Y-84204983D01*
X155855802Y-84187879D01*
X155750837Y-84207587D01*
X155541811Y-84260980D01*
X155359059Y-84280588D01*
X155234235Y-84263471D01*
X155221207Y-84256792D01*
X155182627Y-84194896D01*
X155244017Y-84118141D01*
X155405970Y-84026085D01*
X155669077Y-83918284D01*
X155677520Y-83915176D01*
X155929020Y-83839343D01*
X156189999Y-83788443D01*
X156438096Y-83763764D01*
X156650946Y-83766592D01*
X156806188Y-83798215D01*
X156874646Y-83846276D01*
X156912433Y-83984297D01*
X156851222Y-84122951D01*
X156695014Y-84259788D01*
X156447806Y-84392364D01*
X156113599Y-84518230D01*
X155696392Y-84634940D01*
X155518539Y-84676025D01*
X155096107Y-84755214D01*
X154722019Y-84798564D01*
X154405758Y-84806507D01*
X154156807Y-84779473D01*
X153984650Y-84717893D01*
X153898771Y-84622200D01*
X153893351Y-84602140D01*
X153894331Y-84442595D01*
X153965802Y-84292419D01*
X154114567Y-84145821D01*
X154347427Y-83997007D01*
X154671186Y-83840185D01*
X154900845Y-83744257D01*
X155487385Y-83531041D01*
X156032172Y-83381564D01*
X156567978Y-83288402D01*
X157104410Y-83245052D01*
X157605180Y-83244209D01*
X158038683Y-83283469D01*
X158400860Y-83359472D01*
X158687655Y-83468862D01*
X158895009Y-83608279D01*
X159018865Y-83774366D01*
X159055166Y-83963766D01*
X158999853Y-84173119D01*
X158848868Y-84399068D01*
X158691605Y-84558571D01*
X158511183Y-84694673D01*
X158254703Y-84852468D01*
X157943862Y-85021070D01*
X157600360Y-85189589D01*
X157245895Y-85347139D01*
X156902163Y-85482831D01*
X156730831Y-85542467D01*
X156142388Y-85710171D01*
X155490877Y-85850187D01*
X154814387Y-85954448D01*
X154748042Y-85962454D01*
X154446044Y-85988231D01*
X154103500Y-86001538D01*
X153742553Y-86003120D01*
X153385348Y-85993722D01*
X153054028Y-85974089D01*
X152770736Y-85944967D01*
X152557617Y-85907099D01*
X152487796Y-85886420D01*
X152223015Y-85748475D01*
X152045237Y-85566464D01*
X151952624Y-85348527D01*
X151943342Y-85102804D01*
X152015552Y-84837436D01*
X152167419Y-84560562D01*
X152397107Y-84280322D01*
X152702780Y-84004858D01*
X152952922Y-83824542D01*
X153576132Y-83464541D01*
X154266397Y-83158295D01*
X155007954Y-82907857D01*
X155785039Y-82715280D01*
X156581890Y-82582615D01*
X157382743Y-82511915D01*
X158171834Y-82505232D01*
X158933401Y-82564619D01*
G37*
X158933401Y-82564619D02*
X159651681Y-82692127D01*
X160264286Y-82872654D01*
X160728907Y-83074300D01*
X161095426Y-83306959D01*
X161363665Y-83570099D01*
X161533445Y-83863187D01*
X161604586Y-84185690D01*
X161576910Y-84537076D01*
X161450238Y-84916813D01*
X161224390Y-85324366D01*
X161132923Y-85458081D01*
X160813298Y-85843177D01*
X160403521Y-86235257D01*
X159915490Y-86627067D01*
X159361105Y-87011350D01*
X158752268Y-87380850D01*
X158100878Y-87728312D01*
X157418835Y-88046479D01*
X156718040Y-88328097D01*
X156061104Y-88550471D01*
X155636053Y-88680931D01*
X155636053Y-88432925D01*
X155666230Y-88154213D01*
X155747026Y-87845197D01*
X155863835Y-87550849D01*
X155996190Y-87323963D01*
X156170257Y-87085588D01*
X156291072Y-86909634D01*
X156369198Y-86777618D01*
X156415196Y-86671056D01*
X156439630Y-86571466D01*
X156444412Y-86539603D01*
X156465019Y-86429949D01*
X156506389Y-86357567D01*
X156592459Y-86300175D01*
X156747166Y-86235490D01*
X156787773Y-86219975D01*
X157268785Y-86022870D01*
X157739639Y-85803285D01*
X158183025Y-85570925D01*
X158581636Y-85335492D01*
X158918162Y-85106690D01*
X159175295Y-84894224D01*
X159206029Y-84864281D01*
X159443719Y-84576403D01*
X159590719Y-84285434D01*
X159646705Y-84001100D01*
X159611353Y-83733125D01*
X159484339Y-83491234D01*
X159265341Y-83285153D01*
X159258736Y-83280580D01*
X159061281Y-83162817D01*
X158846166Y-83074643D01*
X158595676Y-83012575D01*
X158292099Y-82973128D01*
X157917721Y-82952817D01*
X157568102Y-82948022D01*
X157135822Y-82952776D01*
X156768497Y-82971930D01*
X156435202Y-83010400D01*
X156105013Y-83073102D01*
X155747009Y-83164951D01*
X155330263Y-83290862D01*
X155249643Y-83316555D01*
X154713078Y-83508991D01*
X154274934Y-83710569D01*
X153936128Y-83920630D01*
X153697581Y-84138513D01*
X153560210Y-84363554D01*
X153523680Y-84558527D01*
X153571877Y-84719314D01*
X153703226Y-84865251D01*
X153897865Y-84979106D01*
X154069957Y-85032367D01*
X154342408Y-85059838D01*
X154673172Y-85047445D01*
X155042595Y-85000414D01*
X155431018Y-84923975D01*
X155818785Y-84823354D01*
X156186239Y-84703780D01*
X156513724Y-84570482D01*
X156781583Y-84428687D01*
X156970158Y-84283623D01*
X156997415Y-84253748D01*
X157112200Y-84068521D01*
X157133787Y-83906478D01*
X157070446Y-83772858D01*
X156930450Y-83672905D01*
X156722069Y-83611860D01*
X156453573Y-83594966D01*
X156133234Y-83627464D01*
X156037879Y-83645605D01*
X155759788Y-83719310D01*
X155515420Y-83813145D01*
X155312554Y-83919094D01*
X155158966Y-84029139D01*
X155062434Y-84135266D01*
X155030733Y-84229456D01*
X155071642Y-84303694D01*
X155192936Y-84349962D01*
X155343381Y-84361489D01*
X155538274Y-84350222D01*
X155714672Y-84320693D01*
X155849042Y-84279310D01*
X155917849Y-84232480D01*
X155918220Y-84204983D01*
X155855802Y-84187879D01*
X155750837Y-84207587D01*
X155541811Y-84260980D01*
X155359059Y-84280588D01*
X155234235Y-84263471D01*
X155221207Y-84256792D01*
X155182627Y-84194896D01*
X155244017Y-84118141D01*
X155405970Y-84026085D01*
X155669077Y-83918284D01*
X155677520Y-83915176D01*
X155929020Y-83839343D01*
X156189999Y-83788443D01*
X156438096Y-83763764D01*
X156650946Y-83766592D01*
X156806188Y-83798215D01*
X156874646Y-83846276D01*
X156912433Y-83984297D01*
X156851222Y-84122951D01*
X156695014Y-84259788D01*
X156447806Y-84392364D01*
X156113599Y-84518230D01*
X155696392Y-84634940D01*
X155518539Y-84676025D01*
X155096107Y-84755214D01*
X154722019Y-84798564D01*
X154405758Y-84806507D01*
X154156807Y-84779473D01*
X153984650Y-84717893D01*
X153898771Y-84622200D01*
X153893351Y-84602140D01*
X153894331Y-84442595D01*
X153965802Y-84292419D01*
X154114567Y-84145821D01*
X154347427Y-83997007D01*
X154671186Y-83840185D01*
X154900845Y-83744257D01*
X155487385Y-83531041D01*
X156032172Y-83381564D01*
X156567978Y-83288402D01*
X157104410Y-83245052D01*
X157605180Y-83244209D01*
X158038683Y-83283469D01*
X158400860Y-83359472D01*
X158687655Y-83468862D01*
X158895009Y-83608279D01*
X159018865Y-83774366D01*
X159055166Y-83963766D01*
X158999853Y-84173119D01*
X158848868Y-84399068D01*
X158691605Y-84558571D01*
X158511183Y-84694673D01*
X158254703Y-84852468D01*
X157943862Y-85021070D01*
X157600360Y-85189589D01*
X157245895Y-85347139D01*
X156902163Y-85482831D01*
X156730831Y-85542467D01*
X156142388Y-85710171D01*
X155490877Y-85850187D01*
X154814387Y-85954448D01*
X154748042Y-85962454D01*
X154446044Y-85988231D01*
X154103500Y-86001538D01*
X153742553Y-86003120D01*
X153385348Y-85993722D01*
X153054028Y-85974089D01*
X152770736Y-85944967D01*
X152557617Y-85907099D01*
X152487796Y-85886420D01*
X152223015Y-85748475D01*
X152045237Y-85566464D01*
X151952624Y-85348527D01*
X151943342Y-85102804D01*
X152015552Y-84837436D01*
X152167419Y-84560562D01*
X152397107Y-84280322D01*
X152702780Y-84004858D01*
X152952922Y-83824542D01*
X153576132Y-83464541D01*
X154266397Y-83158295D01*
X155007954Y-82907857D01*
X155785039Y-82715280D01*
X156581890Y-82582615D01*
X157382743Y-82511915D01*
X158171834Y-82505232D01*
X158933401Y-82564619D01*
D11*
%TO.C,R6*%
X163730000Y-112490000D02*
X166470000Y-112490000D01*
X166470000Y-105950000D02*
X163730000Y-105950000D01*
X163730000Y-105950000D02*
X163730000Y-112490000D01*
X165100000Y-105180000D02*
X165100000Y-105950000D01*
X166470000Y-112490000D02*
X166470000Y-105950000D01*
X165100000Y-113260000D02*
X165100000Y-112490000D01*
%TO.C,J3*%
X101600000Y-110490000D02*
X91440000Y-110490000D01*
X101600000Y-116840000D02*
X91440000Y-116840000D01*
X101600000Y-118110000D02*
X101600000Y-110490000D01*
X91440000Y-118110000D02*
X101600000Y-118110000D01*
X91440000Y-110490000D02*
X91440000Y-118110000D01*
%TO.C,R7*%
X185420000Y-105180000D02*
X185420000Y-105950000D01*
X186790000Y-112490000D02*
X186790000Y-105950000D01*
X184050000Y-112490000D02*
X186790000Y-112490000D01*
X184050000Y-105950000D02*
X184050000Y-112490000D01*
X186790000Y-105950000D02*
X184050000Y-105950000D01*
X185420000Y-113260000D02*
X185420000Y-112490000D01*
%TO.C,D4*%
X114767000Y-105474000D02*
X114767000Y-105630000D01*
X114767000Y-103158000D02*
X114767000Y-103314000D01*
X114767000Y-105629516D02*
G75*
G03*
X117999335Y-105472608I1560000J1235517D01*
G01*
X115286039Y-105474000D02*
G75*
G03*
X117368130Y-105473837I1040961J1080000D01*
G01*
X117368130Y-103314163D02*
G75*
G03*
X115286039Y-103314000I-1041130J-1079837D01*
G01*
X117999335Y-103315392D02*
G75*
G03*
X114767000Y-103158484I-1672335J-1078609D01*
G01*
%TO.C,D5*%
X135595000Y-105474000D02*
X135595000Y-105630000D01*
X135595000Y-103158000D02*
X135595000Y-103314000D01*
X138827335Y-103315392D02*
G75*
G03*
X135595000Y-103158484I-1672335J-1078609D01*
G01*
X135595000Y-105629516D02*
G75*
G03*
X138827335Y-105472608I1560000J1235517D01*
G01*
X136114039Y-105474000D02*
G75*
G03*
X138196130Y-105473837I1040961J1080000D01*
G01*
X138196130Y-103314163D02*
G75*
G03*
X136114039Y-103314000I-1041130J-1079837D01*
G01*
%TO.C,R5*%
X146150000Y-112490000D02*
X146150000Y-105950000D01*
X146150000Y-105950000D02*
X143410000Y-105950000D01*
X143410000Y-105950000D02*
X143410000Y-112490000D01*
X144780000Y-113260000D02*
X144780000Y-112490000D01*
X144780000Y-105180000D02*
X144780000Y-105950000D01*
X143410000Y-112490000D02*
X146150000Y-112490000D01*
%TO.C,D3*%
X94955000Y-105474000D02*
X94955000Y-105630000D01*
X94955000Y-103158000D02*
X94955000Y-103314000D01*
X95474039Y-105474000D02*
G75*
G03*
X97556130Y-105473837I1040961J1080000D01*
G01*
X98187335Y-103315392D02*
G75*
G03*
X94955000Y-103158484I-1672335J-1078609D01*
G01*
X94955000Y-105629516D02*
G75*
G03*
X98187335Y-105472608I1560000J1235517D01*
G01*
X97556130Y-103314163D02*
G75*
G03*
X95474039Y-103314000I-1041130J-1079837D01*
G01*
%TO.C,JP1*%
X51692000Y-104602000D02*
X51692000Y-105202000D01*
X49592000Y-103902000D02*
X50992000Y-103902000D01*
X50992000Y-105902000D02*
X49592000Y-105902000D01*
X48892000Y-105202000D02*
X48892000Y-104602000D01*
X49592000Y-103902000D02*
G75*
G03*
X48892000Y-104602000I-1J-699999D01*
G01*
X50992000Y-105902000D02*
G75*
G03*
X51692000Y-105202000I1J699999D01*
G01*
X48892000Y-105202000D02*
G75*
G03*
X49592000Y-105902000I699999J-1D01*
G01*
X51692000Y-104602000D02*
G75*
G03*
X50992000Y-103902000I-699999J1D01*
G01*
%TO.C,R1*%
X66040000Y-113260000D02*
X66040000Y-112490000D01*
X64670000Y-105950000D02*
X64670000Y-112490000D01*
X67410000Y-112490000D02*
X67410000Y-105950000D01*
X64670000Y-112490000D02*
X67410000Y-112490000D01*
X66040000Y-105180000D02*
X66040000Y-105950000D01*
X67410000Y-105950000D02*
X64670000Y-105950000D01*
%TO.C,JP2*%
X54880000Y-97474000D02*
X54880000Y-96074000D01*
X56180000Y-98174000D02*
X55580000Y-98174000D01*
X55580000Y-95374000D02*
X56180000Y-95374000D01*
X56880000Y-96074000D02*
X56880000Y-97474000D01*
X55580000Y-95374000D02*
G75*
G03*
X54880000Y-96074000I-1J-699999D01*
G01*
X56180000Y-98174000D02*
G75*
G03*
X56880000Y-97474000I1J699999D01*
G01*
X56880000Y-96074000D02*
G75*
G03*
X56180000Y-95374000I-699999J1D01*
G01*
X54880000Y-97474000D02*
G75*
G03*
X55580000Y-98174000I699999J-1D01*
G01*
%TO.C,J5*%
X132080000Y-118110000D02*
X142240000Y-118110000D01*
X142240000Y-110490000D02*
X132080000Y-110490000D01*
X142240000Y-116840000D02*
X132080000Y-116840000D01*
X142240000Y-118110000D02*
X142240000Y-110490000D01*
X132080000Y-110490000D02*
X132080000Y-118110000D01*
%TO.C,R2*%
X85190000Y-112490000D02*
X85190000Y-105950000D01*
X85190000Y-105950000D02*
X82450000Y-105950000D01*
X83820000Y-113260000D02*
X83820000Y-112490000D01*
X82450000Y-112490000D02*
X85190000Y-112490000D01*
X83820000Y-105180000D02*
X83820000Y-105950000D01*
X82450000Y-105950000D02*
X82450000Y-112490000D01*
%TO.C,U1*%
X44704000Y-92202000D02*
X44704000Y-102362000D01*
X47244000Y-102362000D02*
X47244000Y-92202000D01*
X53340000Y-97282000D02*
X53340000Y-92202000D01*
X48768000Y-97282000D02*
X48768000Y-92202000D01*
X53340000Y-97282000D02*
X53340000Y-102362000D01*
X53340000Y-92202000D02*
X44704000Y-92202000D01*
X53340000Y-102362000D02*
X44704000Y-102362000D01*
X48768000Y-97282000D02*
X48768000Y-102362000D01*
%TO.C,J4*%
X121490000Y-116520000D02*
X111330000Y-116520000D01*
X121490000Y-110170000D02*
X111330000Y-110170000D01*
X121490000Y-117790000D02*
X121490000Y-110170000D01*
X111330000Y-117790000D02*
X121490000Y-117790000D01*
X111330000Y-110170000D02*
X111330000Y-117790000D01*
%TO.C,J12*%
X218390000Y-89235000D02*
X218390000Y-78885000D01*
X215790000Y-78385000D02*
X215740000Y-78385000D01*
X205790000Y-89235000D02*
X218390000Y-89235000D01*
X215990000Y-78885000D02*
X210590000Y-78885000D01*
X210590000Y-78885000D02*
X210890000Y-78385000D01*
X217690000Y-78385000D02*
X215790000Y-78385000D01*
X217440000Y-78885000D02*
X217690000Y-78385000D01*
X205790000Y-78385000D02*
X205790000Y-89235000D01*
X210890000Y-78385000D02*
X205790000Y-78385000D01*
X215740000Y-78385000D02*
X215990000Y-78885000D01*
X218390000Y-78885000D02*
X217440000Y-78885000D01*
%TO.C,R8*%
X204370000Y-112490000D02*
X207110000Y-112490000D01*
X204370000Y-105950000D02*
X204370000Y-112490000D01*
X207110000Y-105950000D02*
X204370000Y-105950000D01*
X207110000Y-112490000D02*
X207110000Y-105950000D01*
X205740000Y-113260000D02*
X205740000Y-112490000D01*
X205740000Y-105180000D02*
X205740000Y-105950000D01*
%TO.C,D1*%
X55839000Y-105474000D02*
X55839000Y-105630000D01*
X55839000Y-103158000D02*
X55839000Y-103314000D01*
X55839000Y-105629516D02*
G75*
G03*
X59071335Y-105472608I1560000J1235517D01*
G01*
X58440130Y-103314163D02*
G75*
G03*
X56358039Y-103314000I-1041130J-1079837D01*
G01*
X59071335Y-103315392D02*
G75*
G03*
X55839000Y-103158484I-1672335J-1078609D01*
G01*
X56358039Y-105474000D02*
G75*
G03*
X58440130Y-105473837I1040961J1080000D01*
G01*
%TD*%
%LPC*%
D13*
%TO.C,REF\u002A\u002A*%
X215265000Y-114300000D03*
%TD*%
D14*
%TO.C,J7*%
X175260000Y-114300000D03*
D15*
X180340000Y-114300000D03*
%TD*%
D14*
%TO.C,J1*%
X54864000Y-114046000D03*
D15*
X59944000Y-114046000D03*
%TD*%
D16*
%TO.C,D2*%
X74925000Y-104394000D03*
D17*
X77465000Y-104394000D03*
%TD*%
D16*
%TO.C,D7*%
X176525000Y-104394000D03*
D17*
X179065000Y-104394000D03*
%TD*%
D18*
%TO.C,J9*%
X212090000Y-97790000D03*
D19*
X214630000Y-97790000D03*
X212090000Y-100330000D03*
X214630000Y-100330000D03*
X212090000Y-102870000D03*
X214630000Y-102870000D03*
%TD*%
D14*
%TO.C,J2*%
X73660000Y-114046000D03*
D15*
X78740000Y-114046000D03*
%TD*%
D16*
%TO.C,D8*%
X196845000Y-104394000D03*
D17*
X199385000Y-104394000D03*
%TD*%
D20*
%TO.C,J11*%
X48260000Y-81055000D03*
D21*
X48260000Y-86135000D03*
%TD*%
D22*
%TO.C,U3*%
X67818000Y-98552000D03*
X70358000Y-98552000D03*
X72898000Y-98552000D03*
X75438000Y-98552000D03*
X77978000Y-98552000D03*
X80518000Y-98552000D03*
X83058000Y-98552000D03*
X85598000Y-98552000D03*
X88138000Y-98552000D03*
X90678000Y-98552000D03*
X93218000Y-98552000D03*
X95758000Y-98552000D03*
X98298000Y-98552000D03*
X100838000Y-98552000D03*
X100838000Y-83312000D03*
X98298000Y-83312000D03*
X95758000Y-83312000D03*
X93218000Y-83312000D03*
X90678000Y-83312000D03*
X88138000Y-83312000D03*
X85598000Y-83312000D03*
X83058000Y-83312000D03*
X80518000Y-83312000D03*
X77978000Y-83312000D03*
X75438000Y-83312000D03*
X72898000Y-83312000D03*
X70358000Y-83312000D03*
X67818000Y-83312000D03*
%TD*%
D23*
%TO.C,R3*%
X104140000Y-114300000D03*
D24*
X104140000Y-104140000D03*
%TD*%
D14*
%TO.C,J8*%
X195580000Y-114300000D03*
D15*
X200660000Y-114300000D03*
%TD*%
D14*
%TO.C,J6*%
X154940000Y-114300000D03*
D15*
X160020000Y-114300000D03*
%TD*%
D23*
%TO.C,R4*%
X124460000Y-114300000D03*
D24*
X124460000Y-104140000D03*
%TD*%
D25*
%TO.C,U2*%
X119380000Y-93980000D03*
D24*
X121920000Y-93980000D03*
X124460000Y-93980000D03*
X127000000Y-93980000D03*
X129540000Y-93980000D03*
X132080000Y-93980000D03*
X134620000Y-93980000D03*
X137160000Y-93980000D03*
X139700000Y-93980000D03*
X142240000Y-93980000D03*
X142240000Y-86360000D03*
X139700000Y-86360000D03*
X137160000Y-86360000D03*
X134620000Y-86360000D03*
X132080000Y-86360000D03*
X129540000Y-86360000D03*
X127000000Y-86360000D03*
X124460000Y-86360000D03*
X121920000Y-86360000D03*
X119380000Y-86360000D03*
%TD*%
D16*
%TO.C,D6*%
X156205000Y-104394000D03*
D17*
X158745000Y-104394000D03*
%TD*%
D23*
%TO.C,R6*%
X165100000Y-114300000D03*
D24*
X165100000Y-104140000D03*
%TD*%
D13*
%TO.C,REF\u002A\u002A*%
X45720000Y-73025000D03*
%TD*%
%TO.C,REF\u002A\u002A*%
X45720000Y-114300000D03*
%TD*%
D14*
%TO.C,J3*%
X93980000Y-114300000D03*
D15*
X99060000Y-114300000D03*
%TD*%
D23*
%TO.C,R7*%
X185420000Y-114300000D03*
D24*
X185420000Y-104140000D03*
%TD*%
D16*
%TO.C,D4*%
X115057000Y-104394000D03*
D17*
X117597000Y-104394000D03*
%TD*%
D16*
%TO.C,D5*%
X135885000Y-104394000D03*
D17*
X138425000Y-104394000D03*
%TD*%
D23*
%TO.C,R5*%
X144780000Y-114300000D03*
D24*
X144780000Y-104140000D03*
%TD*%
D16*
%TO.C,D3*%
X95245000Y-104394000D03*
D17*
X97785000Y-104394000D03*
%TD*%
D13*
%TO.C,REF\u002A\u002A*%
X215265000Y-73025000D03*
%TD*%
D26*
%TO.C,JP1*%
X50942000Y-104902000D03*
D27*
X49642000Y-104902000D03*
%TD*%
D23*
%TO.C,R1*%
X66040000Y-114300000D03*
D24*
X66040000Y-104140000D03*
%TD*%
D28*
%TO.C,JP2*%
X55880000Y-97424000D03*
D29*
X55880000Y-96124000D03*
%TD*%
D14*
%TO.C,J5*%
X134620000Y-114300000D03*
D15*
X139700000Y-114300000D03*
%TD*%
D23*
%TO.C,R2*%
X83820000Y-114300000D03*
D24*
X83820000Y-104140000D03*
%TD*%
D22*
%TO.C,U1*%
X50038000Y-99822000D03*
X50038000Y-97282000D03*
X50038000Y-94742000D03*
%TD*%
D14*
%TO.C,J4*%
X113870000Y-113980000D03*
D15*
X118950000Y-113980000D03*
%TD*%
D20*
%TO.C,J12*%
X212090000Y-86585000D03*
D21*
X212090000Y-81505000D03*
%TD*%
D23*
%TO.C,R8*%
X205740000Y-114300000D03*
D24*
X205740000Y-104140000D03*
%TD*%
D16*
%TO.C,D1*%
X56129000Y-104394000D03*
D17*
X58669000Y-104394000D03*
%TD*%
M02*
