M48
; DRILL file {KiCad 6.0.2-378541a8eb~116~ubuntu20.04.1} date Fri 18 Mar 2022 05:48:37 PM CDT
; FORMAT={-:-/ absolute / metric / decimal}
; #@! TF.CreationDate,2022-03-18T17:48:37-05:00
; #@! TF.GenerationSoftware,Kicad,Pcbnew,6.0.2-378541a8eb~116~ubuntu20.04.1
; #@! TF.FileFunction,Plated,1,2,PTH
FMAT,2
METRIC
; #@! TA.AperFunction,Plated,PTH,ComponentDrill
T1C0.762
; #@! TA.AperFunction,Plated,PTH,ComponentDrill
T2C0.800
; #@! TA.AperFunction,Plated,PTH,ComponentDrill
T3C0.900
; #@! TA.AperFunction,Plated,PTH,ComponentDrill
T4C1.016
; #@! TA.AperFunction,Plated,PTH,ComponentDrill
T5C1.320
; #@! TA.AperFunction,Plated,PTH,ComponentDrill
T6C1.520
%
G90
G05
T1
X50.038Y-94.742
X50.038Y-97.282
X50.038Y-99.822
X67.818Y-83.312
X67.818Y-98.552
X70.358Y-83.312
X70.358Y-98.552
X72.898Y-83.312
X72.898Y-98.552
X75.438Y-83.312
X75.438Y-98.552
X77.978Y-83.312
X77.978Y-98.552
X80.518Y-83.312
X80.518Y-98.552
X83.058Y-83.312
X83.058Y-98.552
X85.598Y-83.312
X85.598Y-98.552
X88.138Y-83.312
X88.138Y-98.552
X90.678Y-83.312
X90.678Y-98.552
X93.218Y-83.312
X93.218Y-98.552
X95.758Y-83.312
X95.758Y-98.552
X98.298Y-83.312
X98.298Y-98.552
X100.838Y-83.312
X100.838Y-98.552
T2
X66.04Y-104.14
X66.04Y-114.3
X83.82Y-104.14
X83.82Y-114.3
X104.14Y-104.14
X104.14Y-114.3
X119.38Y-86.36
X119.38Y-93.98
X121.92Y-86.36
X121.92Y-93.98
X124.46Y-86.36
X124.46Y-93.98
X124.46Y-104.14
X124.46Y-114.3
X127.0Y-86.36
X127.0Y-93.98
X129.54Y-86.36
X129.54Y-93.98
X132.08Y-86.36
X132.08Y-93.98
X134.62Y-86.36
X134.62Y-93.98
X137.16Y-86.36
X137.16Y-93.98
X139.7Y-86.36
X139.7Y-93.98
X142.24Y-86.36
X142.24Y-93.98
X144.78Y-104.14
X144.78Y-114.3
X165.1Y-104.14
X165.1Y-114.3
X185.42Y-104.14
X185.42Y-114.3
X205.74Y-104.14
X205.74Y-114.3
T3
X56.129Y-104.394
X58.669Y-104.394
X74.925Y-104.394
X77.465Y-104.394
X95.245Y-104.394
X97.785Y-104.394
X115.057Y-104.394
X117.597Y-104.394
X135.885Y-104.394
X138.425Y-104.394
X156.205Y-104.394
X158.745Y-104.394
X176.525Y-104.394
X179.065Y-104.394
X196.845Y-104.394
X199.385Y-104.394
T4
X212.09Y-97.79
X212.09Y-100.33
X212.09Y-102.87
X214.63Y-97.79
X214.63Y-100.33
X214.63Y-102.87
T5
X48.26Y-81.055
X48.26Y-86.135
X212.09Y-81.505
X212.09Y-86.585
T6
X54.864Y-114.046
X59.944Y-114.046
X73.66Y-114.046
X78.74Y-114.046
X93.98Y-114.3
X99.06Y-114.3
X113.87Y-113.98
X118.95Y-113.98
X134.62Y-114.3
X139.7Y-114.3
X154.94Y-114.3
X160.02Y-114.3
X175.26Y-114.3
X180.34Y-114.3
X195.58Y-114.3
X200.66Y-114.3
T0
M30
