%FSLAX45Y45*%
G04 Gerber Fmt 4.5, Leading zero omitted, Abs format (unit mm)*
G04 Created by KiCad (PCBNEW 6.0.2-378541a8eb~116~ubuntu20.04.1) date 2022-03-18 17:48:38*
%MOMM*%
%LPD*%
G01*
G04 APERTURE LIST*
%TA.AperFunction,Profile*%
%ADD10C,0.050000*%
%TD*%
%ADD11C,0.200000*%
%ADD12C,0.076200*%
%ADD13C,0.080000*%
%ADD14C,0.090000*%
%ADD15C,0.101600*%
%ADD16C,0.132000*%
%ADD17C,0.152000*%
G04 APERTURE END LIST*
D10*
X4127500Y-6794500D02*
X21971000Y-6794500D01*
X21971000Y-6794500D02*
X21971000Y-11938000D01*
X21971000Y-11938000D02*
X4127500Y-11938000D01*
X4127500Y-11938000D02*
X4127500Y-6794500D01*
D11*
D12*
X4965700Y-9436100D02*
X5041900Y-9512300D01*
X5041900Y-9436100D02*
X4965700Y-9512300D01*
X4965700Y-9690100D02*
X5041900Y-9766300D01*
X5041900Y-9690100D02*
X4965700Y-9766300D01*
X4965700Y-9944100D02*
X5041900Y-10020300D01*
X5041900Y-9944100D02*
X4965700Y-10020300D01*
X6743700Y-8293100D02*
X6819900Y-8369300D01*
X6819900Y-8293100D02*
X6743700Y-8369300D01*
X6743700Y-9817100D02*
X6819900Y-9893300D01*
X6819900Y-9817100D02*
X6743700Y-9893300D01*
X6997700Y-8293100D02*
X7073900Y-8369300D01*
X7073900Y-8293100D02*
X6997700Y-8369300D01*
X6997700Y-9817100D02*
X7073900Y-9893300D01*
X7073900Y-9817100D02*
X6997700Y-9893300D01*
X7251700Y-8293100D02*
X7327900Y-8369300D01*
X7327900Y-8293100D02*
X7251700Y-8369300D01*
X7251700Y-9817100D02*
X7327900Y-9893300D01*
X7327900Y-9817100D02*
X7251700Y-9893300D01*
X7505700Y-8293100D02*
X7581900Y-8369300D01*
X7581900Y-8293100D02*
X7505700Y-8369300D01*
X7505700Y-9817100D02*
X7581900Y-9893300D01*
X7581900Y-9817100D02*
X7505700Y-9893300D01*
X7759700Y-8293100D02*
X7835900Y-8369300D01*
X7835900Y-8293100D02*
X7759700Y-8369300D01*
X7759700Y-9817100D02*
X7835900Y-9893300D01*
X7835900Y-9817100D02*
X7759700Y-9893300D01*
X8013700Y-8293100D02*
X8089900Y-8369300D01*
X8089900Y-8293100D02*
X8013700Y-8369300D01*
X8013700Y-9817100D02*
X8089900Y-9893300D01*
X8089900Y-9817100D02*
X8013700Y-9893300D01*
X8267700Y-8293100D02*
X8343900Y-8369300D01*
X8343900Y-8293100D02*
X8267700Y-8369300D01*
X8267700Y-9817100D02*
X8343900Y-9893300D01*
X8343900Y-9817100D02*
X8267700Y-9893300D01*
X8521700Y-8293100D02*
X8597900Y-8369300D01*
X8597900Y-8293100D02*
X8521700Y-8369300D01*
X8521700Y-9817100D02*
X8597900Y-9893300D01*
X8597900Y-9817100D02*
X8521700Y-9893300D01*
X8775700Y-8293100D02*
X8851900Y-8369300D01*
X8851900Y-8293100D02*
X8775700Y-8369300D01*
X8775700Y-9817100D02*
X8851900Y-9893300D01*
X8851900Y-9817100D02*
X8775700Y-9893300D01*
X9029700Y-8293100D02*
X9105900Y-8369300D01*
X9105900Y-8293100D02*
X9029700Y-8369300D01*
X9029700Y-9817100D02*
X9105900Y-9893300D01*
X9105900Y-9817100D02*
X9029700Y-9893300D01*
X9283700Y-8293100D02*
X9359900Y-8369300D01*
X9359900Y-8293100D02*
X9283700Y-8369300D01*
X9283700Y-9817100D02*
X9359900Y-9893300D01*
X9359900Y-9817100D02*
X9283700Y-9893300D01*
X9537700Y-8293100D02*
X9613900Y-8369300D01*
X9613900Y-8293100D02*
X9537700Y-8369300D01*
X9537700Y-9817100D02*
X9613900Y-9893300D01*
X9613900Y-9817100D02*
X9537700Y-9893300D01*
X9791700Y-8293100D02*
X9867900Y-8369300D01*
X9867900Y-8293100D02*
X9791700Y-8369300D01*
X9791700Y-9817100D02*
X9867900Y-9893300D01*
X9867900Y-9817100D02*
X9791700Y-9893300D01*
X10045700Y-8293100D02*
X10121900Y-8369300D01*
X10121900Y-8293100D02*
X10045700Y-8369300D01*
X10045700Y-9817100D02*
X10121900Y-9893300D01*
X10121900Y-9817100D02*
X10045700Y-9893300D01*
D13*
X6644000Y-10414000D02*
G75*
G03*
X6644000Y-10414000I-40000J0D01*
G01*
X6644000Y-11430000D02*
G75*
G03*
X6644000Y-11430000I-40000J0D01*
G01*
X8422000Y-10414000D02*
G75*
G03*
X8422000Y-10414000I-40000J0D01*
G01*
X8422000Y-11430000D02*
G75*
G03*
X8422000Y-11430000I-40000J0D01*
G01*
X10454000Y-10414000D02*
G75*
G03*
X10454000Y-10414000I-40000J0D01*
G01*
X10454000Y-11430000D02*
G75*
G03*
X10454000Y-11430000I-40000J0D01*
G01*
X11978000Y-8636000D02*
G75*
G03*
X11978000Y-8636000I-40000J0D01*
G01*
X11978000Y-9398000D02*
G75*
G03*
X11978000Y-9398000I-40000J0D01*
G01*
X12232000Y-8636000D02*
G75*
G03*
X12232000Y-8636000I-40000J0D01*
G01*
X12232000Y-9398000D02*
G75*
G03*
X12232000Y-9398000I-40000J0D01*
G01*
X12486000Y-8636000D02*
G75*
G03*
X12486000Y-8636000I-40000J0D01*
G01*
X12486000Y-9398000D02*
G75*
G03*
X12486000Y-9398000I-40000J0D01*
G01*
X12486000Y-10414000D02*
G75*
G03*
X12486000Y-10414000I-40000J0D01*
G01*
X12486000Y-11430000D02*
G75*
G03*
X12486000Y-11430000I-40000J0D01*
G01*
X12740000Y-8636000D02*
G75*
G03*
X12740000Y-8636000I-40000J0D01*
G01*
X12740000Y-9398000D02*
G75*
G03*
X12740000Y-9398000I-40000J0D01*
G01*
X12994000Y-8636000D02*
G75*
G03*
X12994000Y-8636000I-40000J0D01*
G01*
X12994000Y-9398000D02*
G75*
G03*
X12994000Y-9398000I-40000J0D01*
G01*
X13248000Y-8636000D02*
G75*
G03*
X13248000Y-8636000I-40000J0D01*
G01*
X13248000Y-9398000D02*
G75*
G03*
X13248000Y-9398000I-40000J0D01*
G01*
X13502000Y-8636000D02*
G75*
G03*
X13502000Y-8636000I-40000J0D01*
G01*
X13502000Y-9398000D02*
G75*
G03*
X13502000Y-9398000I-40000J0D01*
G01*
X13756000Y-8636000D02*
G75*
G03*
X13756000Y-8636000I-40000J0D01*
G01*
X13756000Y-9398000D02*
G75*
G03*
X13756000Y-9398000I-40000J0D01*
G01*
X14010000Y-8636000D02*
G75*
G03*
X14010000Y-8636000I-40000J0D01*
G01*
X14010000Y-9398000D02*
G75*
G03*
X14010000Y-9398000I-40000J0D01*
G01*
X14264000Y-8636000D02*
G75*
G03*
X14264000Y-8636000I-40000J0D01*
G01*
X14264000Y-9398000D02*
G75*
G03*
X14264000Y-9398000I-40000J0D01*
G01*
X14518000Y-10414000D02*
G75*
G03*
X14518000Y-10414000I-40000J0D01*
G01*
X14518000Y-11430000D02*
G75*
G03*
X14518000Y-11430000I-40000J0D01*
G01*
X16550000Y-10414000D02*
G75*
G03*
X16550000Y-10414000I-40000J0D01*
G01*
X16550000Y-11430000D02*
G75*
G03*
X16550000Y-11430000I-40000J0D01*
G01*
X18582000Y-10414000D02*
G75*
G03*
X18582000Y-10414000I-40000J0D01*
G01*
X18582000Y-11430000D02*
G75*
G03*
X18582000Y-11430000I-40000J0D01*
G01*
X20614000Y-10414000D02*
G75*
G03*
X20614000Y-10414000I-40000J0D01*
G01*
X20614000Y-11430000D02*
G75*
G03*
X20614000Y-11430000I-40000J0D01*
G01*
D14*
X5612900Y-10394400D02*
X5612900Y-10484400D01*
X5567900Y-10439400D02*
X5657900Y-10439400D01*
X5866900Y-10394400D02*
X5866900Y-10484400D01*
X5821900Y-10439400D02*
X5911900Y-10439400D01*
X7492500Y-10394400D02*
X7492500Y-10484400D01*
X7447500Y-10439400D02*
X7537500Y-10439400D01*
X7746500Y-10394400D02*
X7746500Y-10484400D01*
X7701500Y-10439400D02*
X7791500Y-10439400D01*
X9524500Y-10394400D02*
X9524500Y-10484400D01*
X9479500Y-10439400D02*
X9569500Y-10439400D01*
X9778500Y-10394400D02*
X9778500Y-10484400D01*
X9733500Y-10439400D02*
X9823500Y-10439400D01*
X11505700Y-10394400D02*
X11505700Y-10484400D01*
X11460700Y-10439400D02*
X11550700Y-10439400D01*
X11759700Y-10394400D02*
X11759700Y-10484400D01*
X11714700Y-10439400D02*
X11804700Y-10439400D01*
X13588500Y-10394400D02*
X13588500Y-10484400D01*
X13543500Y-10439400D02*
X13633500Y-10439400D01*
X13842500Y-10394400D02*
X13842500Y-10484400D01*
X13797500Y-10439400D02*
X13887500Y-10439400D01*
X15620500Y-10394400D02*
X15620500Y-10484400D01*
X15575500Y-10439400D02*
X15665500Y-10439400D01*
X15874500Y-10394400D02*
X15874500Y-10484400D01*
X15829500Y-10439400D02*
X15919500Y-10439400D01*
X17652500Y-10394400D02*
X17652500Y-10484400D01*
X17607500Y-10439400D02*
X17697500Y-10439400D01*
X17906500Y-10394400D02*
X17906500Y-10484400D01*
X17861500Y-10439400D02*
X17951500Y-10439400D01*
X19684500Y-10394400D02*
X19684500Y-10484400D01*
X19639500Y-10439400D02*
X19729500Y-10439400D01*
X19938500Y-10394400D02*
X19938500Y-10484400D01*
X19893500Y-10439400D02*
X19983500Y-10439400D01*
D15*
X21244921Y-9814921D02*
X21244921Y-9743079D01*
X21173079Y-9743079D01*
X21173079Y-9814921D01*
X21244921Y-9814921D01*
X21244921Y-10068921D02*
X21244921Y-9997079D01*
X21173079Y-9997079D01*
X21173079Y-10068921D01*
X21244921Y-10068921D01*
X21244921Y-10322921D02*
X21244921Y-10251079D01*
X21173079Y-10251079D01*
X21173079Y-10322921D01*
X21244921Y-10322921D01*
X21498921Y-9814921D02*
X21498921Y-9743079D01*
X21427079Y-9743079D01*
X21427079Y-9814921D01*
X21498921Y-9814921D01*
X21498921Y-10068921D02*
X21498921Y-9997079D01*
X21427079Y-9997079D01*
X21427079Y-10068921D01*
X21498921Y-10068921D01*
X21498921Y-10322921D02*
X21498921Y-10251079D01*
X21427079Y-10251079D01*
X21427079Y-10322921D01*
X21498921Y-10322921D01*
D16*
X4826000Y-8171500D02*
X4892000Y-8105500D01*
X4826000Y-8039500D01*
X4760000Y-8105500D01*
X4826000Y-8171500D01*
X4826000Y-8679500D02*
X4892000Y-8613500D01*
X4826000Y-8547500D01*
X4760000Y-8613500D01*
X4826000Y-8679500D01*
X21209000Y-8216500D02*
X21275000Y-8150500D01*
X21209000Y-8084500D01*
X21143000Y-8150500D01*
X21209000Y-8216500D01*
X21209000Y-8724500D02*
X21275000Y-8658500D01*
X21209000Y-8592500D01*
X21143000Y-8658500D01*
X21209000Y-8724500D01*
D17*
X5410400Y-11328600D02*
X5562400Y-11480600D01*
X5562400Y-11328600D02*
X5410400Y-11480600D01*
X5562400Y-11404600D02*
G75*
G03*
X5562400Y-11404600I-76000J0D01*
G01*
X5918400Y-11328600D02*
X6070400Y-11480600D01*
X6070400Y-11328600D02*
X5918400Y-11480600D01*
X6070400Y-11404600D02*
G75*
G03*
X6070400Y-11404600I-76000J0D01*
G01*
X7290000Y-11328600D02*
X7442000Y-11480600D01*
X7442000Y-11328600D02*
X7290000Y-11480600D01*
X7442000Y-11404600D02*
G75*
G03*
X7442000Y-11404600I-76000J0D01*
G01*
X7798000Y-11328600D02*
X7950000Y-11480600D01*
X7950000Y-11328600D02*
X7798000Y-11480600D01*
X7950000Y-11404600D02*
G75*
G03*
X7950000Y-11404600I-76000J0D01*
G01*
X9322000Y-11354000D02*
X9474000Y-11506000D01*
X9474000Y-11354000D02*
X9322000Y-11506000D01*
X9474000Y-11430000D02*
G75*
G03*
X9474000Y-11430000I-76000J0D01*
G01*
X9830000Y-11354000D02*
X9982000Y-11506000D01*
X9982000Y-11354000D02*
X9830000Y-11506000D01*
X9982000Y-11430000D02*
G75*
G03*
X9982000Y-11430000I-76000J0D01*
G01*
X11311000Y-11322000D02*
X11463000Y-11474000D01*
X11463000Y-11322000D02*
X11311000Y-11474000D01*
X11463000Y-11398000D02*
G75*
G03*
X11463000Y-11398000I-76000J0D01*
G01*
X11819000Y-11322000D02*
X11971000Y-11474000D01*
X11971000Y-11322000D02*
X11819000Y-11474000D01*
X11971000Y-11398000D02*
G75*
G03*
X11971000Y-11398000I-76000J0D01*
G01*
X13386000Y-11354000D02*
X13538000Y-11506000D01*
X13538000Y-11354000D02*
X13386000Y-11506000D01*
X13538000Y-11430000D02*
G75*
G03*
X13538000Y-11430000I-76000J0D01*
G01*
X13894000Y-11354000D02*
X14046000Y-11506000D01*
X14046000Y-11354000D02*
X13894000Y-11506000D01*
X14046000Y-11430000D02*
G75*
G03*
X14046000Y-11430000I-76000J0D01*
G01*
X15418000Y-11354000D02*
X15570000Y-11506000D01*
X15570000Y-11354000D02*
X15418000Y-11506000D01*
X15570000Y-11430000D02*
G75*
G03*
X15570000Y-11430000I-76000J0D01*
G01*
X15926000Y-11354000D02*
X16078000Y-11506000D01*
X16078000Y-11354000D02*
X15926000Y-11506000D01*
X16078000Y-11430000D02*
G75*
G03*
X16078000Y-11430000I-76000J0D01*
G01*
X17450000Y-11354000D02*
X17602000Y-11506000D01*
X17602000Y-11354000D02*
X17450000Y-11506000D01*
X17602000Y-11430000D02*
G75*
G03*
X17602000Y-11430000I-76000J0D01*
G01*
X17958000Y-11354000D02*
X18110000Y-11506000D01*
X18110000Y-11354000D02*
X17958000Y-11506000D01*
X18110000Y-11430000D02*
G75*
G03*
X18110000Y-11430000I-76000J0D01*
G01*
X19482000Y-11354000D02*
X19634000Y-11506000D01*
X19634000Y-11354000D02*
X19482000Y-11506000D01*
X19634000Y-11430000D02*
G75*
G03*
X19634000Y-11430000I-76000J0D01*
G01*
X19990000Y-11354000D02*
X20142000Y-11506000D01*
X20142000Y-11354000D02*
X19990000Y-11506000D01*
X20142000Y-11430000D02*
G75*
G03*
X20142000Y-11430000I-76000J0D01*
G01*
D11*
X4382619Y-12250976D02*
X4382619Y-12050976D01*
X4430238Y-12050976D01*
X4458810Y-12060500D01*
X4477857Y-12079548D01*
X4487381Y-12098595D01*
X4496905Y-12136690D01*
X4496905Y-12165262D01*
X4487381Y-12203357D01*
X4477857Y-12222405D01*
X4458810Y-12241452D01*
X4430238Y-12250976D01*
X4382619Y-12250976D01*
X4582619Y-12250976D02*
X4582619Y-12117643D01*
X4582619Y-12155738D02*
X4592143Y-12136690D01*
X4601667Y-12127167D01*
X4620714Y-12117643D01*
X4639762Y-12117643D01*
X4706429Y-12250976D02*
X4706429Y-12117643D01*
X4706429Y-12050976D02*
X4696905Y-12060500D01*
X4706429Y-12070024D01*
X4715952Y-12060500D01*
X4706429Y-12050976D01*
X4706429Y-12070024D01*
X4830238Y-12250976D02*
X4811190Y-12241452D01*
X4801667Y-12222405D01*
X4801667Y-12050976D01*
X4935000Y-12250976D02*
X4915952Y-12241452D01*
X4906429Y-12222405D01*
X4906429Y-12050976D01*
X5163571Y-12250976D02*
X5163571Y-12050976D01*
X5230238Y-12193833D01*
X5296905Y-12050976D01*
X5296905Y-12250976D01*
X5477857Y-12250976D02*
X5477857Y-12146214D01*
X5468333Y-12127167D01*
X5449286Y-12117643D01*
X5411190Y-12117643D01*
X5392143Y-12127167D01*
X5477857Y-12241452D02*
X5458810Y-12250976D01*
X5411190Y-12250976D01*
X5392143Y-12241452D01*
X5382619Y-12222405D01*
X5382619Y-12203357D01*
X5392143Y-12184309D01*
X5411190Y-12174786D01*
X5458810Y-12174786D01*
X5477857Y-12165262D01*
X5573095Y-12117643D02*
X5573095Y-12317643D01*
X5573095Y-12127167D02*
X5592143Y-12117643D01*
X5630238Y-12117643D01*
X5649286Y-12127167D01*
X5658809Y-12136690D01*
X5668333Y-12155738D01*
X5668333Y-12212881D01*
X5658809Y-12231928D01*
X5649286Y-12241452D01*
X5630238Y-12250976D01*
X5592143Y-12250976D01*
X5573095Y-12241452D01*
X5754048Y-12231928D02*
X5763571Y-12241452D01*
X5754048Y-12250976D01*
X5744524Y-12241452D01*
X5754048Y-12231928D01*
X5754048Y-12250976D01*
X5754048Y-12127167D02*
X5763571Y-12136690D01*
X5754048Y-12146214D01*
X5744524Y-12136690D01*
X5754048Y-12127167D01*
X5754048Y-12146214D01*
D12*
X4048800Y-12542400D02*
X4125000Y-12618600D01*
X4125000Y-12542400D02*
X4048800Y-12618600D01*
D11*
X4420714Y-12470976D02*
X4439762Y-12470976D01*
X4458810Y-12480500D01*
X4468333Y-12490024D01*
X4477857Y-12509071D01*
X4487381Y-12547167D01*
X4487381Y-12594786D01*
X4477857Y-12632881D01*
X4468333Y-12651928D01*
X4458810Y-12661452D01*
X4439762Y-12670976D01*
X4420714Y-12670976D01*
X4401667Y-12661452D01*
X4392143Y-12651928D01*
X4382619Y-12632881D01*
X4373095Y-12594786D01*
X4373095Y-12547167D01*
X4382619Y-12509071D01*
X4392143Y-12490024D01*
X4401667Y-12480500D01*
X4420714Y-12470976D01*
X4573095Y-12651928D02*
X4582619Y-12661452D01*
X4573095Y-12670976D01*
X4563571Y-12661452D01*
X4573095Y-12651928D01*
X4573095Y-12670976D01*
X4649286Y-12470976D02*
X4782619Y-12470976D01*
X4696905Y-12670976D01*
X4944524Y-12470976D02*
X4906429Y-12470976D01*
X4887381Y-12480500D01*
X4877857Y-12490024D01*
X4858810Y-12518595D01*
X4849286Y-12556690D01*
X4849286Y-12632881D01*
X4858810Y-12651928D01*
X4868333Y-12661452D01*
X4887381Y-12670976D01*
X4925476Y-12670976D01*
X4944524Y-12661452D01*
X4954048Y-12651928D01*
X4963571Y-12632881D01*
X4963571Y-12585262D01*
X4954048Y-12566214D01*
X4944524Y-12556690D01*
X4925476Y-12547167D01*
X4887381Y-12547167D01*
X4868333Y-12556690D01*
X4858810Y-12566214D01*
X4849286Y-12585262D01*
X5039762Y-12490024D02*
X5049286Y-12480500D01*
X5068333Y-12470976D01*
X5115952Y-12470976D01*
X5135000Y-12480500D01*
X5144524Y-12490024D01*
X5154048Y-12509071D01*
X5154048Y-12528119D01*
X5144524Y-12556690D01*
X5030238Y-12670976D01*
X5154048Y-12670976D01*
X5239762Y-12670976D02*
X5239762Y-12537643D01*
X5239762Y-12556690D02*
X5249286Y-12547167D01*
X5268333Y-12537643D01*
X5296905Y-12537643D01*
X5315952Y-12547167D01*
X5325476Y-12566214D01*
X5325476Y-12670976D01*
X5325476Y-12566214D02*
X5335000Y-12547167D01*
X5354048Y-12537643D01*
X5382619Y-12537643D01*
X5401667Y-12547167D01*
X5411190Y-12566214D01*
X5411190Y-12670976D01*
X5506429Y-12670976D02*
X5506429Y-12537643D01*
X5506429Y-12556690D02*
X5515952Y-12547167D01*
X5535000Y-12537643D01*
X5563571Y-12537643D01*
X5582619Y-12547167D01*
X5592143Y-12566214D01*
X5592143Y-12670976D01*
X5592143Y-12566214D02*
X5601667Y-12547167D01*
X5620714Y-12537643D01*
X5649286Y-12537643D01*
X5668333Y-12547167D01*
X5677857Y-12566214D01*
X5677857Y-12670976D01*
X6068333Y-12461452D02*
X5896905Y-12718595D01*
X6325476Y-12470976D02*
X6344524Y-12470976D01*
X6363571Y-12480500D01*
X6373095Y-12490024D01*
X6382619Y-12509071D01*
X6392143Y-12547167D01*
X6392143Y-12594786D01*
X6382619Y-12632881D01*
X6373095Y-12651928D01*
X6363571Y-12661452D01*
X6344524Y-12670976D01*
X6325476Y-12670976D01*
X6306428Y-12661452D01*
X6296905Y-12651928D01*
X6287381Y-12632881D01*
X6277857Y-12594786D01*
X6277857Y-12547167D01*
X6287381Y-12509071D01*
X6296905Y-12490024D01*
X6306428Y-12480500D01*
X6325476Y-12470976D01*
X6477857Y-12651928D02*
X6487381Y-12661452D01*
X6477857Y-12670976D01*
X6468333Y-12661452D01*
X6477857Y-12651928D01*
X6477857Y-12670976D01*
X6611190Y-12470976D02*
X6630238Y-12470976D01*
X6649286Y-12480500D01*
X6658809Y-12490024D01*
X6668333Y-12509071D01*
X6677857Y-12547167D01*
X6677857Y-12594786D01*
X6668333Y-12632881D01*
X6658809Y-12651928D01*
X6649286Y-12661452D01*
X6630238Y-12670976D01*
X6611190Y-12670976D01*
X6592143Y-12661452D01*
X6582619Y-12651928D01*
X6573095Y-12632881D01*
X6563571Y-12594786D01*
X6563571Y-12547167D01*
X6573095Y-12509071D01*
X6582619Y-12490024D01*
X6592143Y-12480500D01*
X6611190Y-12470976D01*
X6744524Y-12470976D02*
X6868333Y-12470976D01*
X6801667Y-12547167D01*
X6830238Y-12547167D01*
X6849286Y-12556690D01*
X6858809Y-12566214D01*
X6868333Y-12585262D01*
X6868333Y-12632881D01*
X6858809Y-12651928D01*
X6849286Y-12661452D01*
X6830238Y-12670976D01*
X6773095Y-12670976D01*
X6754048Y-12661452D01*
X6744524Y-12651928D01*
X6992143Y-12470976D02*
X7011190Y-12470976D01*
X7030238Y-12480500D01*
X7039762Y-12490024D01*
X7049286Y-12509071D01*
X7058809Y-12547167D01*
X7058809Y-12594786D01*
X7049286Y-12632881D01*
X7039762Y-12651928D01*
X7030238Y-12661452D01*
X7011190Y-12670976D01*
X6992143Y-12670976D01*
X6973095Y-12661452D01*
X6963571Y-12651928D01*
X6954048Y-12632881D01*
X6944524Y-12594786D01*
X6944524Y-12547167D01*
X6954048Y-12509071D01*
X6963571Y-12490024D01*
X6973095Y-12480500D01*
X6992143Y-12470976D01*
X7182619Y-12470976D02*
X7201667Y-12470976D01*
X7220714Y-12480500D01*
X7230238Y-12490024D01*
X7239762Y-12509071D01*
X7249286Y-12547167D01*
X7249286Y-12594786D01*
X7239762Y-12632881D01*
X7230238Y-12651928D01*
X7220714Y-12661452D01*
X7201667Y-12670976D01*
X7182619Y-12670976D01*
X7163571Y-12661452D01*
X7154048Y-12651928D01*
X7144524Y-12632881D01*
X7135000Y-12594786D01*
X7135000Y-12547167D01*
X7144524Y-12509071D01*
X7154048Y-12490024D01*
X7163571Y-12480500D01*
X7182619Y-12470976D01*
X7325476Y-12470976D02*
X7325476Y-12509071D01*
X7401667Y-12470976D02*
X7401667Y-12509071D01*
X7696905Y-12747167D02*
X7687381Y-12737643D01*
X7668333Y-12709071D01*
X7658809Y-12690024D01*
X7649286Y-12661452D01*
X7639762Y-12613833D01*
X7639762Y-12575738D01*
X7649286Y-12528119D01*
X7658809Y-12499548D01*
X7668333Y-12480500D01*
X7687381Y-12451928D01*
X7696905Y-12442405D01*
X7754048Y-12470976D02*
X7877857Y-12470976D01*
X7811190Y-12547167D01*
X7839762Y-12547167D01*
X7858809Y-12556690D01*
X7868333Y-12566214D01*
X7877857Y-12585262D01*
X7877857Y-12632881D01*
X7868333Y-12651928D01*
X7858809Y-12661452D01*
X7839762Y-12670976D01*
X7782619Y-12670976D01*
X7763571Y-12661452D01*
X7754048Y-12651928D01*
X8068333Y-12670976D02*
X7954048Y-12670976D01*
X8011190Y-12670976D02*
X8011190Y-12470976D01*
X7992143Y-12499548D01*
X7973095Y-12518595D01*
X7954048Y-12528119D01*
X8306428Y-12670976D02*
X8306428Y-12470976D01*
X8392143Y-12670976D02*
X8392143Y-12566214D01*
X8382619Y-12547167D01*
X8363571Y-12537643D01*
X8335000Y-12537643D01*
X8315952Y-12547167D01*
X8306428Y-12556690D01*
X8515952Y-12670976D02*
X8496905Y-12661452D01*
X8487381Y-12651928D01*
X8477857Y-12632881D01*
X8477857Y-12575738D01*
X8487381Y-12556690D01*
X8496905Y-12547167D01*
X8515952Y-12537643D01*
X8544524Y-12537643D01*
X8563571Y-12547167D01*
X8573095Y-12556690D01*
X8582619Y-12575738D01*
X8582619Y-12632881D01*
X8573095Y-12651928D01*
X8563571Y-12661452D01*
X8544524Y-12670976D01*
X8515952Y-12670976D01*
X8696905Y-12670976D02*
X8677857Y-12661452D01*
X8668333Y-12642405D01*
X8668333Y-12470976D01*
X8849286Y-12661452D02*
X8830238Y-12670976D01*
X8792143Y-12670976D01*
X8773095Y-12661452D01*
X8763571Y-12642405D01*
X8763571Y-12566214D01*
X8773095Y-12547167D01*
X8792143Y-12537643D01*
X8830238Y-12537643D01*
X8849286Y-12547167D01*
X8858810Y-12566214D01*
X8858810Y-12585262D01*
X8763571Y-12604309D01*
X8935000Y-12661452D02*
X8954048Y-12670976D01*
X8992143Y-12670976D01*
X9011190Y-12661452D01*
X9020714Y-12642405D01*
X9020714Y-12632881D01*
X9011190Y-12613833D01*
X8992143Y-12604309D01*
X8963571Y-12604309D01*
X8944524Y-12594786D01*
X8935000Y-12575738D01*
X8935000Y-12566214D01*
X8944524Y-12547167D01*
X8963571Y-12537643D01*
X8992143Y-12537643D01*
X9011190Y-12547167D01*
X9087381Y-12747167D02*
X9096905Y-12737643D01*
X9115952Y-12709071D01*
X9125476Y-12690024D01*
X9135000Y-12661452D01*
X9144524Y-12613833D01*
X9144524Y-12575738D01*
X9135000Y-12528119D01*
X9125476Y-12499548D01*
X9115952Y-12480500D01*
X9096905Y-12451928D01*
X9087381Y-12442405D01*
D13*
X4125000Y-12844500D02*
G75*
G03*
X4125000Y-12844500I-40000J0D01*
G01*
D11*
X4420714Y-12734976D02*
X4439762Y-12734976D01*
X4458810Y-12744500D01*
X4468333Y-12754024D01*
X4477857Y-12773071D01*
X4487381Y-12811167D01*
X4487381Y-12858786D01*
X4477857Y-12896881D01*
X4468333Y-12915928D01*
X4458810Y-12925452D01*
X4439762Y-12934976D01*
X4420714Y-12934976D01*
X4401667Y-12925452D01*
X4392143Y-12915928D01*
X4382619Y-12896881D01*
X4373095Y-12858786D01*
X4373095Y-12811167D01*
X4382619Y-12773071D01*
X4392143Y-12754024D01*
X4401667Y-12744500D01*
X4420714Y-12734976D01*
X4573095Y-12915928D02*
X4582619Y-12925452D01*
X4573095Y-12934976D01*
X4563571Y-12925452D01*
X4573095Y-12915928D01*
X4573095Y-12934976D01*
X4696905Y-12820690D02*
X4677857Y-12811167D01*
X4668333Y-12801643D01*
X4658810Y-12782595D01*
X4658810Y-12773071D01*
X4668333Y-12754024D01*
X4677857Y-12744500D01*
X4696905Y-12734976D01*
X4735000Y-12734976D01*
X4754048Y-12744500D01*
X4763571Y-12754024D01*
X4773095Y-12773071D01*
X4773095Y-12782595D01*
X4763571Y-12801643D01*
X4754048Y-12811167D01*
X4735000Y-12820690D01*
X4696905Y-12820690D01*
X4677857Y-12830214D01*
X4668333Y-12839738D01*
X4658810Y-12858786D01*
X4658810Y-12896881D01*
X4668333Y-12915928D01*
X4677857Y-12925452D01*
X4696905Y-12934976D01*
X4735000Y-12934976D01*
X4754048Y-12925452D01*
X4763571Y-12915928D01*
X4773095Y-12896881D01*
X4773095Y-12858786D01*
X4763571Y-12839738D01*
X4754048Y-12830214D01*
X4735000Y-12820690D01*
X4896905Y-12734976D02*
X4915952Y-12734976D01*
X4935000Y-12744500D01*
X4944524Y-12754024D01*
X4954048Y-12773071D01*
X4963571Y-12811167D01*
X4963571Y-12858786D01*
X4954048Y-12896881D01*
X4944524Y-12915928D01*
X4935000Y-12925452D01*
X4915952Y-12934976D01*
X4896905Y-12934976D01*
X4877857Y-12925452D01*
X4868333Y-12915928D01*
X4858810Y-12896881D01*
X4849286Y-12858786D01*
X4849286Y-12811167D01*
X4858810Y-12773071D01*
X4868333Y-12754024D01*
X4877857Y-12744500D01*
X4896905Y-12734976D01*
X5087381Y-12734976D02*
X5106429Y-12734976D01*
X5125476Y-12744500D01*
X5135000Y-12754024D01*
X5144524Y-12773071D01*
X5154048Y-12811167D01*
X5154048Y-12858786D01*
X5144524Y-12896881D01*
X5135000Y-12915928D01*
X5125476Y-12925452D01*
X5106429Y-12934976D01*
X5087381Y-12934976D01*
X5068333Y-12925452D01*
X5058810Y-12915928D01*
X5049286Y-12896881D01*
X5039762Y-12858786D01*
X5039762Y-12811167D01*
X5049286Y-12773071D01*
X5058810Y-12754024D01*
X5068333Y-12744500D01*
X5087381Y-12734976D01*
X5239762Y-12934976D02*
X5239762Y-12801643D01*
X5239762Y-12820690D02*
X5249286Y-12811167D01*
X5268333Y-12801643D01*
X5296905Y-12801643D01*
X5315952Y-12811167D01*
X5325476Y-12830214D01*
X5325476Y-12934976D01*
X5325476Y-12830214D02*
X5335000Y-12811167D01*
X5354048Y-12801643D01*
X5382619Y-12801643D01*
X5401667Y-12811167D01*
X5411190Y-12830214D01*
X5411190Y-12934976D01*
X5506429Y-12934976D02*
X5506429Y-12801643D01*
X5506429Y-12820690D02*
X5515952Y-12811167D01*
X5535000Y-12801643D01*
X5563571Y-12801643D01*
X5582619Y-12811167D01*
X5592143Y-12830214D01*
X5592143Y-12934976D01*
X5592143Y-12830214D02*
X5601667Y-12811167D01*
X5620714Y-12801643D01*
X5649286Y-12801643D01*
X5668333Y-12811167D01*
X5677857Y-12830214D01*
X5677857Y-12934976D01*
X6068333Y-12725452D02*
X5896905Y-12982595D01*
X6325476Y-12734976D02*
X6344524Y-12734976D01*
X6363571Y-12744500D01*
X6373095Y-12754024D01*
X6382619Y-12773071D01*
X6392143Y-12811167D01*
X6392143Y-12858786D01*
X6382619Y-12896881D01*
X6373095Y-12915928D01*
X6363571Y-12925452D01*
X6344524Y-12934976D01*
X6325476Y-12934976D01*
X6306428Y-12925452D01*
X6296905Y-12915928D01*
X6287381Y-12896881D01*
X6277857Y-12858786D01*
X6277857Y-12811167D01*
X6287381Y-12773071D01*
X6296905Y-12754024D01*
X6306428Y-12744500D01*
X6325476Y-12734976D01*
X6477857Y-12915928D02*
X6487381Y-12925452D01*
X6477857Y-12934976D01*
X6468333Y-12925452D01*
X6477857Y-12915928D01*
X6477857Y-12934976D01*
X6611190Y-12734976D02*
X6630238Y-12734976D01*
X6649286Y-12744500D01*
X6658809Y-12754024D01*
X6668333Y-12773071D01*
X6677857Y-12811167D01*
X6677857Y-12858786D01*
X6668333Y-12896881D01*
X6658809Y-12915928D01*
X6649286Y-12925452D01*
X6630238Y-12934976D01*
X6611190Y-12934976D01*
X6592143Y-12925452D01*
X6582619Y-12915928D01*
X6573095Y-12896881D01*
X6563571Y-12858786D01*
X6563571Y-12811167D01*
X6573095Y-12773071D01*
X6582619Y-12754024D01*
X6592143Y-12744500D01*
X6611190Y-12734976D01*
X6744524Y-12734976D02*
X6868333Y-12734976D01*
X6801667Y-12811167D01*
X6830238Y-12811167D01*
X6849286Y-12820690D01*
X6858809Y-12830214D01*
X6868333Y-12849262D01*
X6868333Y-12896881D01*
X6858809Y-12915928D01*
X6849286Y-12925452D01*
X6830238Y-12934976D01*
X6773095Y-12934976D01*
X6754048Y-12925452D01*
X6744524Y-12915928D01*
X7058809Y-12934976D02*
X6944524Y-12934976D01*
X7001667Y-12934976D02*
X7001667Y-12734976D01*
X6982619Y-12763548D01*
X6963571Y-12782595D01*
X6944524Y-12792119D01*
X7239762Y-12734976D02*
X7144524Y-12734976D01*
X7135000Y-12830214D01*
X7144524Y-12820690D01*
X7163571Y-12811167D01*
X7211190Y-12811167D01*
X7230238Y-12820690D01*
X7239762Y-12830214D01*
X7249286Y-12849262D01*
X7249286Y-12896881D01*
X7239762Y-12915928D01*
X7230238Y-12925452D01*
X7211190Y-12934976D01*
X7163571Y-12934976D01*
X7144524Y-12925452D01*
X7135000Y-12915928D01*
X7325476Y-12734976D02*
X7325476Y-12773071D01*
X7401667Y-12734976D02*
X7401667Y-12773071D01*
X7696905Y-13011167D02*
X7687381Y-13001643D01*
X7668333Y-12973071D01*
X7658809Y-12954024D01*
X7649286Y-12925452D01*
X7639762Y-12877833D01*
X7639762Y-12839738D01*
X7649286Y-12792119D01*
X7658809Y-12763548D01*
X7668333Y-12744500D01*
X7687381Y-12715928D01*
X7696905Y-12706405D01*
X7754048Y-12734976D02*
X7877857Y-12734976D01*
X7811190Y-12811167D01*
X7839762Y-12811167D01*
X7858809Y-12820690D01*
X7868333Y-12830214D01*
X7877857Y-12849262D01*
X7877857Y-12896881D01*
X7868333Y-12915928D01*
X7858809Y-12925452D01*
X7839762Y-12934976D01*
X7782619Y-12934976D01*
X7763571Y-12925452D01*
X7754048Y-12915928D01*
X8049286Y-12734976D02*
X8011190Y-12734976D01*
X7992143Y-12744500D01*
X7982619Y-12754024D01*
X7963571Y-12782595D01*
X7954048Y-12820690D01*
X7954048Y-12896881D01*
X7963571Y-12915928D01*
X7973095Y-12925452D01*
X7992143Y-12934976D01*
X8030238Y-12934976D01*
X8049286Y-12925452D01*
X8058809Y-12915928D01*
X8068333Y-12896881D01*
X8068333Y-12849262D01*
X8058809Y-12830214D01*
X8049286Y-12820690D01*
X8030238Y-12811167D01*
X7992143Y-12811167D01*
X7973095Y-12820690D01*
X7963571Y-12830214D01*
X7954048Y-12849262D01*
X8306428Y-12934976D02*
X8306428Y-12734976D01*
X8392143Y-12934976D02*
X8392143Y-12830214D01*
X8382619Y-12811167D01*
X8363571Y-12801643D01*
X8335000Y-12801643D01*
X8315952Y-12811167D01*
X8306428Y-12820690D01*
X8515952Y-12934976D02*
X8496905Y-12925452D01*
X8487381Y-12915928D01*
X8477857Y-12896881D01*
X8477857Y-12839738D01*
X8487381Y-12820690D01*
X8496905Y-12811167D01*
X8515952Y-12801643D01*
X8544524Y-12801643D01*
X8563571Y-12811167D01*
X8573095Y-12820690D01*
X8582619Y-12839738D01*
X8582619Y-12896881D01*
X8573095Y-12915928D01*
X8563571Y-12925452D01*
X8544524Y-12934976D01*
X8515952Y-12934976D01*
X8696905Y-12934976D02*
X8677857Y-12925452D01*
X8668333Y-12906405D01*
X8668333Y-12734976D01*
X8849286Y-12925452D02*
X8830238Y-12934976D01*
X8792143Y-12934976D01*
X8773095Y-12925452D01*
X8763571Y-12906405D01*
X8763571Y-12830214D01*
X8773095Y-12811167D01*
X8792143Y-12801643D01*
X8830238Y-12801643D01*
X8849286Y-12811167D01*
X8858810Y-12830214D01*
X8858810Y-12849262D01*
X8763571Y-12868309D01*
X8935000Y-12925452D02*
X8954048Y-12934976D01*
X8992143Y-12934976D01*
X9011190Y-12925452D01*
X9020714Y-12906405D01*
X9020714Y-12896881D01*
X9011190Y-12877833D01*
X8992143Y-12868309D01*
X8963571Y-12868309D01*
X8944524Y-12858786D01*
X8935000Y-12839738D01*
X8935000Y-12830214D01*
X8944524Y-12811167D01*
X8963571Y-12801643D01*
X8992143Y-12801643D01*
X9011190Y-12811167D01*
X9087381Y-13011167D02*
X9096905Y-13001643D01*
X9115952Y-12973071D01*
X9125476Y-12954024D01*
X9135000Y-12925452D01*
X9144524Y-12877833D01*
X9144524Y-12839738D01*
X9135000Y-12792119D01*
X9125476Y-12763548D01*
X9115952Y-12744500D01*
X9096905Y-12715928D01*
X9087381Y-12706405D01*
D14*
X4080000Y-13063500D02*
X4080000Y-13153500D01*
X4035000Y-13108500D02*
X4125000Y-13108500D01*
D11*
X4420714Y-12998976D02*
X4439762Y-12998976D01*
X4458810Y-13008500D01*
X4468333Y-13018024D01*
X4477857Y-13037071D01*
X4487381Y-13075167D01*
X4487381Y-13122786D01*
X4477857Y-13160881D01*
X4468333Y-13179928D01*
X4458810Y-13189452D01*
X4439762Y-13198976D01*
X4420714Y-13198976D01*
X4401667Y-13189452D01*
X4392143Y-13179928D01*
X4382619Y-13160881D01*
X4373095Y-13122786D01*
X4373095Y-13075167D01*
X4382619Y-13037071D01*
X4392143Y-13018024D01*
X4401667Y-13008500D01*
X4420714Y-12998976D01*
X4573095Y-13179928D02*
X4582619Y-13189452D01*
X4573095Y-13198976D01*
X4563571Y-13189452D01*
X4573095Y-13179928D01*
X4573095Y-13198976D01*
X4677857Y-13198976D02*
X4715952Y-13198976D01*
X4735000Y-13189452D01*
X4744524Y-13179928D01*
X4763571Y-13151357D01*
X4773095Y-13113262D01*
X4773095Y-13037071D01*
X4763571Y-13018024D01*
X4754048Y-13008500D01*
X4735000Y-12998976D01*
X4696905Y-12998976D01*
X4677857Y-13008500D01*
X4668333Y-13018024D01*
X4658810Y-13037071D01*
X4658810Y-13084690D01*
X4668333Y-13103738D01*
X4677857Y-13113262D01*
X4696905Y-13122786D01*
X4735000Y-13122786D01*
X4754048Y-13113262D01*
X4763571Y-13103738D01*
X4773095Y-13084690D01*
X4896905Y-12998976D02*
X4915952Y-12998976D01*
X4935000Y-13008500D01*
X4944524Y-13018024D01*
X4954048Y-13037071D01*
X4963571Y-13075167D01*
X4963571Y-13122786D01*
X4954048Y-13160881D01*
X4944524Y-13179928D01*
X4935000Y-13189452D01*
X4915952Y-13198976D01*
X4896905Y-13198976D01*
X4877857Y-13189452D01*
X4868333Y-13179928D01*
X4858810Y-13160881D01*
X4849286Y-13122786D01*
X4849286Y-13075167D01*
X4858810Y-13037071D01*
X4868333Y-13018024D01*
X4877857Y-13008500D01*
X4896905Y-12998976D01*
X5087381Y-12998976D02*
X5106429Y-12998976D01*
X5125476Y-13008500D01*
X5135000Y-13018024D01*
X5144524Y-13037071D01*
X5154048Y-13075167D01*
X5154048Y-13122786D01*
X5144524Y-13160881D01*
X5135000Y-13179928D01*
X5125476Y-13189452D01*
X5106429Y-13198976D01*
X5087381Y-13198976D01*
X5068333Y-13189452D01*
X5058810Y-13179928D01*
X5049286Y-13160881D01*
X5039762Y-13122786D01*
X5039762Y-13075167D01*
X5049286Y-13037071D01*
X5058810Y-13018024D01*
X5068333Y-13008500D01*
X5087381Y-12998976D01*
X5239762Y-13198976D02*
X5239762Y-13065643D01*
X5239762Y-13084690D02*
X5249286Y-13075167D01*
X5268333Y-13065643D01*
X5296905Y-13065643D01*
X5315952Y-13075167D01*
X5325476Y-13094214D01*
X5325476Y-13198976D01*
X5325476Y-13094214D02*
X5335000Y-13075167D01*
X5354048Y-13065643D01*
X5382619Y-13065643D01*
X5401667Y-13075167D01*
X5411190Y-13094214D01*
X5411190Y-13198976D01*
X5506429Y-13198976D02*
X5506429Y-13065643D01*
X5506429Y-13084690D02*
X5515952Y-13075167D01*
X5535000Y-13065643D01*
X5563571Y-13065643D01*
X5582619Y-13075167D01*
X5592143Y-13094214D01*
X5592143Y-13198976D01*
X5592143Y-13094214D02*
X5601667Y-13075167D01*
X5620714Y-13065643D01*
X5649286Y-13065643D01*
X5668333Y-13075167D01*
X5677857Y-13094214D01*
X5677857Y-13198976D01*
X6068333Y-12989452D02*
X5896905Y-13246595D01*
X6325476Y-12998976D02*
X6344524Y-12998976D01*
X6363571Y-13008500D01*
X6373095Y-13018024D01*
X6382619Y-13037071D01*
X6392143Y-13075167D01*
X6392143Y-13122786D01*
X6382619Y-13160881D01*
X6373095Y-13179928D01*
X6363571Y-13189452D01*
X6344524Y-13198976D01*
X6325476Y-13198976D01*
X6306428Y-13189452D01*
X6296905Y-13179928D01*
X6287381Y-13160881D01*
X6277857Y-13122786D01*
X6277857Y-13075167D01*
X6287381Y-13037071D01*
X6296905Y-13018024D01*
X6306428Y-13008500D01*
X6325476Y-12998976D01*
X6477857Y-13179928D02*
X6487381Y-13189452D01*
X6477857Y-13198976D01*
X6468333Y-13189452D01*
X6477857Y-13179928D01*
X6477857Y-13198976D01*
X6611190Y-12998976D02*
X6630238Y-12998976D01*
X6649286Y-13008500D01*
X6658809Y-13018024D01*
X6668333Y-13037071D01*
X6677857Y-13075167D01*
X6677857Y-13122786D01*
X6668333Y-13160881D01*
X6658809Y-13179928D01*
X6649286Y-13189452D01*
X6630238Y-13198976D01*
X6611190Y-13198976D01*
X6592143Y-13189452D01*
X6582619Y-13179928D01*
X6573095Y-13160881D01*
X6563571Y-13122786D01*
X6563571Y-13075167D01*
X6573095Y-13037071D01*
X6582619Y-13018024D01*
X6592143Y-13008500D01*
X6611190Y-12998976D01*
X6744524Y-12998976D02*
X6868333Y-12998976D01*
X6801667Y-13075167D01*
X6830238Y-13075167D01*
X6849286Y-13084690D01*
X6858809Y-13094214D01*
X6868333Y-13113262D01*
X6868333Y-13160881D01*
X6858809Y-13179928D01*
X6849286Y-13189452D01*
X6830238Y-13198976D01*
X6773095Y-13198976D01*
X6754048Y-13189452D01*
X6744524Y-13179928D01*
X7049286Y-12998976D02*
X6954048Y-12998976D01*
X6944524Y-13094214D01*
X6954048Y-13084690D01*
X6973095Y-13075167D01*
X7020714Y-13075167D01*
X7039762Y-13084690D01*
X7049286Y-13094214D01*
X7058809Y-13113262D01*
X7058809Y-13160881D01*
X7049286Y-13179928D01*
X7039762Y-13189452D01*
X7020714Y-13198976D01*
X6973095Y-13198976D01*
X6954048Y-13189452D01*
X6944524Y-13179928D01*
X7230238Y-13065643D02*
X7230238Y-13198976D01*
X7182619Y-12989452D02*
X7135000Y-13132309D01*
X7258809Y-13132309D01*
X7325476Y-12998976D02*
X7325476Y-13037071D01*
X7401667Y-12998976D02*
X7401667Y-13037071D01*
X7696905Y-13275167D02*
X7687381Y-13265643D01*
X7668333Y-13237071D01*
X7658809Y-13218024D01*
X7649286Y-13189452D01*
X7639762Y-13141833D01*
X7639762Y-13103738D01*
X7649286Y-13056119D01*
X7658809Y-13027548D01*
X7668333Y-13008500D01*
X7687381Y-12979928D01*
X7696905Y-12970405D01*
X7877857Y-13198976D02*
X7763571Y-13198976D01*
X7820714Y-13198976D02*
X7820714Y-12998976D01*
X7801667Y-13027548D01*
X7782619Y-13046595D01*
X7763571Y-13056119D01*
X8049286Y-12998976D02*
X8011190Y-12998976D01*
X7992143Y-13008500D01*
X7982619Y-13018024D01*
X7963571Y-13046595D01*
X7954048Y-13084690D01*
X7954048Y-13160881D01*
X7963571Y-13179928D01*
X7973095Y-13189452D01*
X7992143Y-13198976D01*
X8030238Y-13198976D01*
X8049286Y-13189452D01*
X8058809Y-13179928D01*
X8068333Y-13160881D01*
X8068333Y-13113262D01*
X8058809Y-13094214D01*
X8049286Y-13084690D01*
X8030238Y-13075167D01*
X7992143Y-13075167D01*
X7973095Y-13084690D01*
X7963571Y-13094214D01*
X7954048Y-13113262D01*
X8306428Y-13198976D02*
X8306428Y-12998976D01*
X8392143Y-13198976D02*
X8392143Y-13094214D01*
X8382619Y-13075167D01*
X8363571Y-13065643D01*
X8335000Y-13065643D01*
X8315952Y-13075167D01*
X8306428Y-13084690D01*
X8515952Y-13198976D02*
X8496905Y-13189452D01*
X8487381Y-13179928D01*
X8477857Y-13160881D01*
X8477857Y-13103738D01*
X8487381Y-13084690D01*
X8496905Y-13075167D01*
X8515952Y-13065643D01*
X8544524Y-13065643D01*
X8563571Y-13075167D01*
X8573095Y-13084690D01*
X8582619Y-13103738D01*
X8582619Y-13160881D01*
X8573095Y-13179928D01*
X8563571Y-13189452D01*
X8544524Y-13198976D01*
X8515952Y-13198976D01*
X8696905Y-13198976D02*
X8677857Y-13189452D01*
X8668333Y-13170405D01*
X8668333Y-12998976D01*
X8849286Y-13189452D02*
X8830238Y-13198976D01*
X8792143Y-13198976D01*
X8773095Y-13189452D01*
X8763571Y-13170405D01*
X8763571Y-13094214D01*
X8773095Y-13075167D01*
X8792143Y-13065643D01*
X8830238Y-13065643D01*
X8849286Y-13075167D01*
X8858810Y-13094214D01*
X8858810Y-13113262D01*
X8763571Y-13132309D01*
X8935000Y-13189452D02*
X8954048Y-13198976D01*
X8992143Y-13198976D01*
X9011190Y-13189452D01*
X9020714Y-13170405D01*
X9020714Y-13160881D01*
X9011190Y-13141833D01*
X8992143Y-13132309D01*
X8963571Y-13132309D01*
X8944524Y-13122786D01*
X8935000Y-13103738D01*
X8935000Y-13094214D01*
X8944524Y-13075167D01*
X8963571Y-13065643D01*
X8992143Y-13065643D01*
X9011190Y-13075167D01*
X9087381Y-13275167D02*
X9096905Y-13265643D01*
X9115952Y-13237071D01*
X9125476Y-13218024D01*
X9135000Y-13189452D01*
X9144524Y-13141833D01*
X9144524Y-13103738D01*
X9135000Y-13056119D01*
X9125476Y-13027548D01*
X9115952Y-13008500D01*
X9096905Y-12979928D01*
X9087381Y-12970405D01*
D15*
X4110121Y-13408421D02*
X4110121Y-13336579D01*
X4038279Y-13336579D01*
X4038279Y-13408421D01*
X4110121Y-13408421D01*
D11*
X4487381Y-13462976D02*
X4373095Y-13462976D01*
X4430238Y-13462976D02*
X4430238Y-13262976D01*
X4411190Y-13291548D01*
X4392143Y-13310595D01*
X4373095Y-13320119D01*
X4573095Y-13443928D02*
X4582619Y-13453452D01*
X4573095Y-13462976D01*
X4563571Y-13453452D01*
X4573095Y-13443928D01*
X4573095Y-13462976D01*
X4706429Y-13262976D02*
X4725476Y-13262976D01*
X4744524Y-13272500D01*
X4754048Y-13282024D01*
X4763571Y-13301071D01*
X4773095Y-13339167D01*
X4773095Y-13386786D01*
X4763571Y-13424881D01*
X4754048Y-13443928D01*
X4744524Y-13453452D01*
X4725476Y-13462976D01*
X4706429Y-13462976D01*
X4687381Y-13453452D01*
X4677857Y-13443928D01*
X4668333Y-13424881D01*
X4658810Y-13386786D01*
X4658810Y-13339167D01*
X4668333Y-13301071D01*
X4677857Y-13282024D01*
X4687381Y-13272500D01*
X4706429Y-13262976D01*
X4963571Y-13462976D02*
X4849286Y-13462976D01*
X4906429Y-13462976D02*
X4906429Y-13262976D01*
X4887381Y-13291548D01*
X4868333Y-13310595D01*
X4849286Y-13320119D01*
X5135000Y-13262976D02*
X5096905Y-13262976D01*
X5077857Y-13272500D01*
X5068333Y-13282024D01*
X5049286Y-13310595D01*
X5039762Y-13348690D01*
X5039762Y-13424881D01*
X5049286Y-13443928D01*
X5058810Y-13453452D01*
X5077857Y-13462976D01*
X5115952Y-13462976D01*
X5135000Y-13453452D01*
X5144524Y-13443928D01*
X5154048Y-13424881D01*
X5154048Y-13377262D01*
X5144524Y-13358214D01*
X5135000Y-13348690D01*
X5115952Y-13339167D01*
X5077857Y-13339167D01*
X5058810Y-13348690D01*
X5049286Y-13358214D01*
X5039762Y-13377262D01*
X5239762Y-13462976D02*
X5239762Y-13329643D01*
X5239762Y-13348690D02*
X5249286Y-13339167D01*
X5268333Y-13329643D01*
X5296905Y-13329643D01*
X5315952Y-13339167D01*
X5325476Y-13358214D01*
X5325476Y-13462976D01*
X5325476Y-13358214D02*
X5335000Y-13339167D01*
X5354048Y-13329643D01*
X5382619Y-13329643D01*
X5401667Y-13339167D01*
X5411190Y-13358214D01*
X5411190Y-13462976D01*
X5506429Y-13462976D02*
X5506429Y-13329643D01*
X5506429Y-13348690D02*
X5515952Y-13339167D01*
X5535000Y-13329643D01*
X5563571Y-13329643D01*
X5582619Y-13339167D01*
X5592143Y-13358214D01*
X5592143Y-13462976D01*
X5592143Y-13358214D02*
X5601667Y-13339167D01*
X5620714Y-13329643D01*
X5649286Y-13329643D01*
X5668333Y-13339167D01*
X5677857Y-13358214D01*
X5677857Y-13462976D01*
X6068333Y-13253452D02*
X5896905Y-13510595D01*
X6325476Y-13262976D02*
X6344524Y-13262976D01*
X6363571Y-13272500D01*
X6373095Y-13282024D01*
X6382619Y-13301071D01*
X6392143Y-13339167D01*
X6392143Y-13386786D01*
X6382619Y-13424881D01*
X6373095Y-13443928D01*
X6363571Y-13453452D01*
X6344524Y-13462976D01*
X6325476Y-13462976D01*
X6306428Y-13453452D01*
X6296905Y-13443928D01*
X6287381Y-13424881D01*
X6277857Y-13386786D01*
X6277857Y-13339167D01*
X6287381Y-13301071D01*
X6296905Y-13282024D01*
X6306428Y-13272500D01*
X6325476Y-13262976D01*
X6477857Y-13443928D02*
X6487381Y-13453452D01*
X6477857Y-13462976D01*
X6468333Y-13453452D01*
X6477857Y-13443928D01*
X6477857Y-13462976D01*
X6611190Y-13262976D02*
X6630238Y-13262976D01*
X6649286Y-13272500D01*
X6658809Y-13282024D01*
X6668333Y-13301071D01*
X6677857Y-13339167D01*
X6677857Y-13386786D01*
X6668333Y-13424881D01*
X6658809Y-13443928D01*
X6649286Y-13453452D01*
X6630238Y-13462976D01*
X6611190Y-13462976D01*
X6592143Y-13453452D01*
X6582619Y-13443928D01*
X6573095Y-13424881D01*
X6563571Y-13386786D01*
X6563571Y-13339167D01*
X6573095Y-13301071D01*
X6582619Y-13282024D01*
X6592143Y-13272500D01*
X6611190Y-13262976D01*
X6849286Y-13329643D02*
X6849286Y-13462976D01*
X6801667Y-13253452D02*
X6754048Y-13396309D01*
X6877857Y-13396309D01*
X6992143Y-13262976D02*
X7011190Y-13262976D01*
X7030238Y-13272500D01*
X7039762Y-13282024D01*
X7049286Y-13301071D01*
X7058809Y-13339167D01*
X7058809Y-13386786D01*
X7049286Y-13424881D01*
X7039762Y-13443928D01*
X7030238Y-13453452D01*
X7011190Y-13462976D01*
X6992143Y-13462976D01*
X6973095Y-13453452D01*
X6963571Y-13443928D01*
X6954048Y-13424881D01*
X6944524Y-13386786D01*
X6944524Y-13339167D01*
X6954048Y-13301071D01*
X6963571Y-13282024D01*
X6973095Y-13272500D01*
X6992143Y-13262976D01*
X7182619Y-13262976D02*
X7201667Y-13262976D01*
X7220714Y-13272500D01*
X7230238Y-13282024D01*
X7239762Y-13301071D01*
X7249286Y-13339167D01*
X7249286Y-13386786D01*
X7239762Y-13424881D01*
X7230238Y-13443928D01*
X7220714Y-13453452D01*
X7201667Y-13462976D01*
X7182619Y-13462976D01*
X7163571Y-13453452D01*
X7154048Y-13443928D01*
X7144524Y-13424881D01*
X7135000Y-13386786D01*
X7135000Y-13339167D01*
X7144524Y-13301071D01*
X7154048Y-13282024D01*
X7163571Y-13272500D01*
X7182619Y-13262976D01*
X7325476Y-13262976D02*
X7325476Y-13301071D01*
X7401667Y-13262976D02*
X7401667Y-13301071D01*
X7696905Y-13539167D02*
X7687381Y-13529643D01*
X7668333Y-13501071D01*
X7658809Y-13482024D01*
X7649286Y-13453452D01*
X7639762Y-13405833D01*
X7639762Y-13367738D01*
X7649286Y-13320119D01*
X7658809Y-13291548D01*
X7668333Y-13272500D01*
X7687381Y-13243928D01*
X7696905Y-13234405D01*
X7858809Y-13262976D02*
X7820714Y-13262976D01*
X7801667Y-13272500D01*
X7792143Y-13282024D01*
X7773095Y-13310595D01*
X7763571Y-13348690D01*
X7763571Y-13424881D01*
X7773095Y-13443928D01*
X7782619Y-13453452D01*
X7801667Y-13462976D01*
X7839762Y-13462976D01*
X7858809Y-13453452D01*
X7868333Y-13443928D01*
X7877857Y-13424881D01*
X7877857Y-13377262D01*
X7868333Y-13358214D01*
X7858809Y-13348690D01*
X7839762Y-13339167D01*
X7801667Y-13339167D01*
X7782619Y-13348690D01*
X7773095Y-13358214D01*
X7763571Y-13377262D01*
X8115952Y-13462976D02*
X8115952Y-13262976D01*
X8201667Y-13462976D02*
X8201667Y-13358214D01*
X8192143Y-13339167D01*
X8173095Y-13329643D01*
X8144524Y-13329643D01*
X8125476Y-13339167D01*
X8115952Y-13348690D01*
X8325476Y-13462976D02*
X8306428Y-13453452D01*
X8296905Y-13443928D01*
X8287381Y-13424881D01*
X8287381Y-13367738D01*
X8296905Y-13348690D01*
X8306428Y-13339167D01*
X8325476Y-13329643D01*
X8354048Y-13329643D01*
X8373095Y-13339167D01*
X8382619Y-13348690D01*
X8392143Y-13367738D01*
X8392143Y-13424881D01*
X8382619Y-13443928D01*
X8373095Y-13453452D01*
X8354048Y-13462976D01*
X8325476Y-13462976D01*
X8506429Y-13462976D02*
X8487381Y-13453452D01*
X8477857Y-13434405D01*
X8477857Y-13262976D01*
X8658810Y-13453452D02*
X8639762Y-13462976D01*
X8601667Y-13462976D01*
X8582619Y-13453452D01*
X8573095Y-13434405D01*
X8573095Y-13358214D01*
X8582619Y-13339167D01*
X8601667Y-13329643D01*
X8639762Y-13329643D01*
X8658810Y-13339167D01*
X8668333Y-13358214D01*
X8668333Y-13377262D01*
X8573095Y-13396309D01*
X8744524Y-13453452D02*
X8763571Y-13462976D01*
X8801667Y-13462976D01*
X8820714Y-13453452D01*
X8830238Y-13434405D01*
X8830238Y-13424881D01*
X8820714Y-13405833D01*
X8801667Y-13396309D01*
X8773095Y-13396309D01*
X8754048Y-13386786D01*
X8744524Y-13367738D01*
X8744524Y-13358214D01*
X8754048Y-13339167D01*
X8773095Y-13329643D01*
X8801667Y-13329643D01*
X8820714Y-13339167D01*
X8896905Y-13539167D02*
X8906429Y-13529643D01*
X8925476Y-13501071D01*
X8935000Y-13482024D01*
X8944524Y-13453452D01*
X8954048Y-13405833D01*
X8954048Y-13367738D01*
X8944524Y-13320119D01*
X8935000Y-13291548D01*
X8925476Y-13272500D01*
X8906429Y-13243928D01*
X8896905Y-13234405D01*
D16*
X4059000Y-13702500D02*
X4125000Y-13636500D01*
X4059000Y-13570500D01*
X3993000Y-13636500D01*
X4059000Y-13702500D01*
D11*
X4487381Y-13726976D02*
X4373095Y-13726976D01*
X4430238Y-13726976D02*
X4430238Y-13526976D01*
X4411190Y-13555548D01*
X4392143Y-13574595D01*
X4373095Y-13584119D01*
X4573095Y-13707928D02*
X4582619Y-13717452D01*
X4573095Y-13726976D01*
X4563571Y-13717452D01*
X4573095Y-13707928D01*
X4573095Y-13726976D01*
X4649286Y-13526976D02*
X4773095Y-13526976D01*
X4706429Y-13603167D01*
X4735000Y-13603167D01*
X4754048Y-13612690D01*
X4763571Y-13622214D01*
X4773095Y-13641262D01*
X4773095Y-13688881D01*
X4763571Y-13707928D01*
X4754048Y-13717452D01*
X4735000Y-13726976D01*
X4677857Y-13726976D01*
X4658810Y-13717452D01*
X4649286Y-13707928D01*
X4849286Y-13546024D02*
X4858810Y-13536500D01*
X4877857Y-13526976D01*
X4925476Y-13526976D01*
X4944524Y-13536500D01*
X4954048Y-13546024D01*
X4963571Y-13565071D01*
X4963571Y-13584119D01*
X4954048Y-13612690D01*
X4839762Y-13726976D01*
X4963571Y-13726976D01*
X5087381Y-13526976D02*
X5106429Y-13526976D01*
X5125476Y-13536500D01*
X5135000Y-13546024D01*
X5144524Y-13565071D01*
X5154048Y-13603167D01*
X5154048Y-13650786D01*
X5144524Y-13688881D01*
X5135000Y-13707928D01*
X5125476Y-13717452D01*
X5106429Y-13726976D01*
X5087381Y-13726976D01*
X5068333Y-13717452D01*
X5058810Y-13707928D01*
X5049286Y-13688881D01*
X5039762Y-13650786D01*
X5039762Y-13603167D01*
X5049286Y-13565071D01*
X5058810Y-13546024D01*
X5068333Y-13536500D01*
X5087381Y-13526976D01*
X5239762Y-13726976D02*
X5239762Y-13593643D01*
X5239762Y-13612690D02*
X5249286Y-13603167D01*
X5268333Y-13593643D01*
X5296905Y-13593643D01*
X5315952Y-13603167D01*
X5325476Y-13622214D01*
X5325476Y-13726976D01*
X5325476Y-13622214D02*
X5335000Y-13603167D01*
X5354048Y-13593643D01*
X5382619Y-13593643D01*
X5401667Y-13603167D01*
X5411190Y-13622214D01*
X5411190Y-13726976D01*
X5506429Y-13726976D02*
X5506429Y-13593643D01*
X5506429Y-13612690D02*
X5515952Y-13603167D01*
X5535000Y-13593643D01*
X5563571Y-13593643D01*
X5582619Y-13603167D01*
X5592143Y-13622214D01*
X5592143Y-13726976D01*
X5592143Y-13622214D02*
X5601667Y-13603167D01*
X5620714Y-13593643D01*
X5649286Y-13593643D01*
X5668333Y-13603167D01*
X5677857Y-13622214D01*
X5677857Y-13726976D01*
X6068333Y-13517452D02*
X5896905Y-13774595D01*
X6325476Y-13526976D02*
X6344524Y-13526976D01*
X6363571Y-13536500D01*
X6373095Y-13546024D01*
X6382619Y-13565071D01*
X6392143Y-13603167D01*
X6392143Y-13650786D01*
X6382619Y-13688881D01*
X6373095Y-13707928D01*
X6363571Y-13717452D01*
X6344524Y-13726976D01*
X6325476Y-13726976D01*
X6306428Y-13717452D01*
X6296905Y-13707928D01*
X6287381Y-13688881D01*
X6277857Y-13650786D01*
X6277857Y-13603167D01*
X6287381Y-13565071D01*
X6296905Y-13546024D01*
X6306428Y-13536500D01*
X6325476Y-13526976D01*
X6477857Y-13707928D02*
X6487381Y-13717452D01*
X6477857Y-13726976D01*
X6468333Y-13717452D01*
X6477857Y-13707928D01*
X6477857Y-13726976D01*
X6611190Y-13526976D02*
X6630238Y-13526976D01*
X6649286Y-13536500D01*
X6658809Y-13546024D01*
X6668333Y-13565071D01*
X6677857Y-13603167D01*
X6677857Y-13650786D01*
X6668333Y-13688881D01*
X6658809Y-13707928D01*
X6649286Y-13717452D01*
X6630238Y-13726976D01*
X6611190Y-13726976D01*
X6592143Y-13717452D01*
X6582619Y-13707928D01*
X6573095Y-13688881D01*
X6563571Y-13650786D01*
X6563571Y-13603167D01*
X6573095Y-13565071D01*
X6582619Y-13546024D01*
X6592143Y-13536500D01*
X6611190Y-13526976D01*
X6858809Y-13526976D02*
X6763571Y-13526976D01*
X6754048Y-13622214D01*
X6763571Y-13612690D01*
X6782619Y-13603167D01*
X6830238Y-13603167D01*
X6849286Y-13612690D01*
X6858809Y-13622214D01*
X6868333Y-13641262D01*
X6868333Y-13688881D01*
X6858809Y-13707928D01*
X6849286Y-13717452D01*
X6830238Y-13726976D01*
X6782619Y-13726976D01*
X6763571Y-13717452D01*
X6754048Y-13707928D01*
X6944524Y-13546024D02*
X6954048Y-13536500D01*
X6973095Y-13526976D01*
X7020714Y-13526976D01*
X7039762Y-13536500D01*
X7049286Y-13546024D01*
X7058809Y-13565071D01*
X7058809Y-13584119D01*
X7049286Y-13612690D01*
X6935000Y-13726976D01*
X7058809Y-13726976D01*
X7182619Y-13526976D02*
X7201667Y-13526976D01*
X7220714Y-13536500D01*
X7230238Y-13546024D01*
X7239762Y-13565071D01*
X7249286Y-13603167D01*
X7249286Y-13650786D01*
X7239762Y-13688881D01*
X7230238Y-13707928D01*
X7220714Y-13717452D01*
X7201667Y-13726976D01*
X7182619Y-13726976D01*
X7163571Y-13717452D01*
X7154048Y-13707928D01*
X7144524Y-13688881D01*
X7135000Y-13650786D01*
X7135000Y-13603167D01*
X7144524Y-13565071D01*
X7154048Y-13546024D01*
X7163571Y-13536500D01*
X7182619Y-13526976D01*
X7325476Y-13526976D02*
X7325476Y-13565071D01*
X7401667Y-13526976D02*
X7401667Y-13565071D01*
X7696905Y-13803167D02*
X7687381Y-13793643D01*
X7668333Y-13765071D01*
X7658809Y-13746024D01*
X7649286Y-13717452D01*
X7639762Y-13669833D01*
X7639762Y-13631738D01*
X7649286Y-13584119D01*
X7658809Y-13555548D01*
X7668333Y-13536500D01*
X7687381Y-13507928D01*
X7696905Y-13498405D01*
X7858809Y-13593643D02*
X7858809Y-13726976D01*
X7811190Y-13517452D02*
X7763571Y-13660309D01*
X7887381Y-13660309D01*
X8115952Y-13726976D02*
X8115952Y-13526976D01*
X8201667Y-13726976D02*
X8201667Y-13622214D01*
X8192143Y-13603167D01*
X8173095Y-13593643D01*
X8144524Y-13593643D01*
X8125476Y-13603167D01*
X8115952Y-13612690D01*
X8325476Y-13726976D02*
X8306428Y-13717452D01*
X8296905Y-13707928D01*
X8287381Y-13688881D01*
X8287381Y-13631738D01*
X8296905Y-13612690D01*
X8306428Y-13603167D01*
X8325476Y-13593643D01*
X8354048Y-13593643D01*
X8373095Y-13603167D01*
X8382619Y-13612690D01*
X8392143Y-13631738D01*
X8392143Y-13688881D01*
X8382619Y-13707928D01*
X8373095Y-13717452D01*
X8354048Y-13726976D01*
X8325476Y-13726976D01*
X8506429Y-13726976D02*
X8487381Y-13717452D01*
X8477857Y-13698405D01*
X8477857Y-13526976D01*
X8658810Y-13717452D02*
X8639762Y-13726976D01*
X8601667Y-13726976D01*
X8582619Y-13717452D01*
X8573095Y-13698405D01*
X8573095Y-13622214D01*
X8582619Y-13603167D01*
X8601667Y-13593643D01*
X8639762Y-13593643D01*
X8658810Y-13603167D01*
X8668333Y-13622214D01*
X8668333Y-13641262D01*
X8573095Y-13660309D01*
X8744524Y-13717452D02*
X8763571Y-13726976D01*
X8801667Y-13726976D01*
X8820714Y-13717452D01*
X8830238Y-13698405D01*
X8830238Y-13688881D01*
X8820714Y-13669833D01*
X8801667Y-13660309D01*
X8773095Y-13660309D01*
X8754048Y-13650786D01*
X8744524Y-13631738D01*
X8744524Y-13622214D01*
X8754048Y-13603167D01*
X8773095Y-13593643D01*
X8801667Y-13593643D01*
X8820714Y-13603167D01*
X8896905Y-13803167D02*
X8906429Y-13793643D01*
X8925476Y-13765071D01*
X8935000Y-13746024D01*
X8944524Y-13717452D01*
X8954048Y-13669833D01*
X8954048Y-13631738D01*
X8944524Y-13584119D01*
X8935000Y-13555548D01*
X8925476Y-13536500D01*
X8906429Y-13507928D01*
X8896905Y-13498405D01*
D17*
X3973000Y-13824500D02*
X4125000Y-13976500D01*
X4125000Y-13824500D02*
X3973000Y-13976500D01*
X4125000Y-13900500D02*
G75*
G03*
X4125000Y-13900500I-76000J0D01*
G01*
D11*
X4487381Y-13990976D02*
X4373095Y-13990976D01*
X4430238Y-13990976D02*
X4430238Y-13790976D01*
X4411190Y-13819548D01*
X4392143Y-13838595D01*
X4373095Y-13848119D01*
X4573095Y-13971928D02*
X4582619Y-13981452D01*
X4573095Y-13990976D01*
X4563571Y-13981452D01*
X4573095Y-13971928D01*
X4573095Y-13990976D01*
X4763571Y-13790976D02*
X4668333Y-13790976D01*
X4658810Y-13886214D01*
X4668333Y-13876690D01*
X4687381Y-13867167D01*
X4735000Y-13867167D01*
X4754048Y-13876690D01*
X4763571Y-13886214D01*
X4773095Y-13905262D01*
X4773095Y-13952881D01*
X4763571Y-13971928D01*
X4754048Y-13981452D01*
X4735000Y-13990976D01*
X4687381Y-13990976D01*
X4668333Y-13981452D01*
X4658810Y-13971928D01*
X4849286Y-13810024D02*
X4858810Y-13800500D01*
X4877857Y-13790976D01*
X4925476Y-13790976D01*
X4944524Y-13800500D01*
X4954048Y-13810024D01*
X4963571Y-13829071D01*
X4963571Y-13848119D01*
X4954048Y-13876690D01*
X4839762Y-13990976D01*
X4963571Y-13990976D01*
X5087381Y-13790976D02*
X5106429Y-13790976D01*
X5125476Y-13800500D01*
X5135000Y-13810024D01*
X5144524Y-13829071D01*
X5154048Y-13867167D01*
X5154048Y-13914786D01*
X5144524Y-13952881D01*
X5135000Y-13971928D01*
X5125476Y-13981452D01*
X5106429Y-13990976D01*
X5087381Y-13990976D01*
X5068333Y-13981452D01*
X5058810Y-13971928D01*
X5049286Y-13952881D01*
X5039762Y-13914786D01*
X5039762Y-13867167D01*
X5049286Y-13829071D01*
X5058810Y-13810024D01*
X5068333Y-13800500D01*
X5087381Y-13790976D01*
X5239762Y-13990976D02*
X5239762Y-13857643D01*
X5239762Y-13876690D02*
X5249286Y-13867167D01*
X5268333Y-13857643D01*
X5296905Y-13857643D01*
X5315952Y-13867167D01*
X5325476Y-13886214D01*
X5325476Y-13990976D01*
X5325476Y-13886214D02*
X5335000Y-13867167D01*
X5354048Y-13857643D01*
X5382619Y-13857643D01*
X5401667Y-13867167D01*
X5411190Y-13886214D01*
X5411190Y-13990976D01*
X5506429Y-13990976D02*
X5506429Y-13857643D01*
X5506429Y-13876690D02*
X5515952Y-13867167D01*
X5535000Y-13857643D01*
X5563571Y-13857643D01*
X5582619Y-13867167D01*
X5592143Y-13886214D01*
X5592143Y-13990976D01*
X5592143Y-13886214D02*
X5601667Y-13867167D01*
X5620714Y-13857643D01*
X5649286Y-13857643D01*
X5668333Y-13867167D01*
X5677857Y-13886214D01*
X5677857Y-13990976D01*
X6068333Y-13781452D02*
X5896905Y-14038595D01*
X6325476Y-13790976D02*
X6344524Y-13790976D01*
X6363571Y-13800500D01*
X6373095Y-13810024D01*
X6382619Y-13829071D01*
X6392143Y-13867167D01*
X6392143Y-13914786D01*
X6382619Y-13952881D01*
X6373095Y-13971928D01*
X6363571Y-13981452D01*
X6344524Y-13990976D01*
X6325476Y-13990976D01*
X6306428Y-13981452D01*
X6296905Y-13971928D01*
X6287381Y-13952881D01*
X6277857Y-13914786D01*
X6277857Y-13867167D01*
X6287381Y-13829071D01*
X6296905Y-13810024D01*
X6306428Y-13800500D01*
X6325476Y-13790976D01*
X6477857Y-13971928D02*
X6487381Y-13981452D01*
X6477857Y-13990976D01*
X6468333Y-13981452D01*
X6477857Y-13971928D01*
X6477857Y-13990976D01*
X6611190Y-13790976D02*
X6630238Y-13790976D01*
X6649286Y-13800500D01*
X6658809Y-13810024D01*
X6668333Y-13829071D01*
X6677857Y-13867167D01*
X6677857Y-13914786D01*
X6668333Y-13952881D01*
X6658809Y-13971928D01*
X6649286Y-13981452D01*
X6630238Y-13990976D01*
X6611190Y-13990976D01*
X6592143Y-13981452D01*
X6582619Y-13971928D01*
X6573095Y-13952881D01*
X6563571Y-13914786D01*
X6563571Y-13867167D01*
X6573095Y-13829071D01*
X6582619Y-13810024D01*
X6592143Y-13800500D01*
X6611190Y-13790976D01*
X6858809Y-13790976D02*
X6763571Y-13790976D01*
X6754048Y-13886214D01*
X6763571Y-13876690D01*
X6782619Y-13867167D01*
X6830238Y-13867167D01*
X6849286Y-13876690D01*
X6858809Y-13886214D01*
X6868333Y-13905262D01*
X6868333Y-13952881D01*
X6858809Y-13971928D01*
X6849286Y-13981452D01*
X6830238Y-13990976D01*
X6782619Y-13990976D01*
X6763571Y-13981452D01*
X6754048Y-13971928D01*
X6963571Y-13990976D02*
X7001667Y-13990976D01*
X7020714Y-13981452D01*
X7030238Y-13971928D01*
X7049286Y-13943357D01*
X7058809Y-13905262D01*
X7058809Y-13829071D01*
X7049286Y-13810024D01*
X7039762Y-13800500D01*
X7020714Y-13790976D01*
X6982619Y-13790976D01*
X6963571Y-13800500D01*
X6954048Y-13810024D01*
X6944524Y-13829071D01*
X6944524Y-13876690D01*
X6954048Y-13895738D01*
X6963571Y-13905262D01*
X6982619Y-13914786D01*
X7020714Y-13914786D01*
X7039762Y-13905262D01*
X7049286Y-13895738D01*
X7058809Y-13876690D01*
X7173095Y-13876690D02*
X7154048Y-13867167D01*
X7144524Y-13857643D01*
X7135000Y-13838595D01*
X7135000Y-13829071D01*
X7144524Y-13810024D01*
X7154048Y-13800500D01*
X7173095Y-13790976D01*
X7211190Y-13790976D01*
X7230238Y-13800500D01*
X7239762Y-13810024D01*
X7249286Y-13829071D01*
X7249286Y-13838595D01*
X7239762Y-13857643D01*
X7230238Y-13867167D01*
X7211190Y-13876690D01*
X7173095Y-13876690D01*
X7154048Y-13886214D01*
X7144524Y-13895738D01*
X7135000Y-13914786D01*
X7135000Y-13952881D01*
X7144524Y-13971928D01*
X7154048Y-13981452D01*
X7173095Y-13990976D01*
X7211190Y-13990976D01*
X7230238Y-13981452D01*
X7239762Y-13971928D01*
X7249286Y-13952881D01*
X7249286Y-13914786D01*
X7239762Y-13895738D01*
X7230238Y-13886214D01*
X7211190Y-13876690D01*
X7325476Y-13790976D02*
X7325476Y-13829071D01*
X7401667Y-13790976D02*
X7401667Y-13829071D01*
X7696905Y-14067167D02*
X7687381Y-14057643D01*
X7668333Y-14029071D01*
X7658809Y-14010024D01*
X7649286Y-13981452D01*
X7639762Y-13933833D01*
X7639762Y-13895738D01*
X7649286Y-13848119D01*
X7658809Y-13819548D01*
X7668333Y-13800500D01*
X7687381Y-13771928D01*
X7696905Y-13762405D01*
X7877857Y-13990976D02*
X7763571Y-13990976D01*
X7820714Y-13990976D02*
X7820714Y-13790976D01*
X7801667Y-13819548D01*
X7782619Y-13838595D01*
X7763571Y-13848119D01*
X8049286Y-13790976D02*
X8011190Y-13790976D01*
X7992143Y-13800500D01*
X7982619Y-13810024D01*
X7963571Y-13838595D01*
X7954048Y-13876690D01*
X7954048Y-13952881D01*
X7963571Y-13971928D01*
X7973095Y-13981452D01*
X7992143Y-13990976D01*
X8030238Y-13990976D01*
X8049286Y-13981452D01*
X8058809Y-13971928D01*
X8068333Y-13952881D01*
X8068333Y-13905262D01*
X8058809Y-13886214D01*
X8049286Y-13876690D01*
X8030238Y-13867167D01*
X7992143Y-13867167D01*
X7973095Y-13876690D01*
X7963571Y-13886214D01*
X7954048Y-13905262D01*
X8306428Y-13990976D02*
X8306428Y-13790976D01*
X8392143Y-13990976D02*
X8392143Y-13886214D01*
X8382619Y-13867167D01*
X8363571Y-13857643D01*
X8335000Y-13857643D01*
X8315952Y-13867167D01*
X8306428Y-13876690D01*
X8515952Y-13990976D02*
X8496905Y-13981452D01*
X8487381Y-13971928D01*
X8477857Y-13952881D01*
X8477857Y-13895738D01*
X8487381Y-13876690D01*
X8496905Y-13867167D01*
X8515952Y-13857643D01*
X8544524Y-13857643D01*
X8563571Y-13867167D01*
X8573095Y-13876690D01*
X8582619Y-13895738D01*
X8582619Y-13952881D01*
X8573095Y-13971928D01*
X8563571Y-13981452D01*
X8544524Y-13990976D01*
X8515952Y-13990976D01*
X8696905Y-13990976D02*
X8677857Y-13981452D01*
X8668333Y-13962405D01*
X8668333Y-13790976D01*
X8849286Y-13981452D02*
X8830238Y-13990976D01*
X8792143Y-13990976D01*
X8773095Y-13981452D01*
X8763571Y-13962405D01*
X8763571Y-13886214D01*
X8773095Y-13867167D01*
X8792143Y-13857643D01*
X8830238Y-13857643D01*
X8849286Y-13867167D01*
X8858810Y-13886214D01*
X8858810Y-13905262D01*
X8763571Y-13924309D01*
X8935000Y-13981452D02*
X8954048Y-13990976D01*
X8992143Y-13990976D01*
X9011190Y-13981452D01*
X9020714Y-13962405D01*
X9020714Y-13952881D01*
X9011190Y-13933833D01*
X8992143Y-13924309D01*
X8963571Y-13924309D01*
X8944524Y-13914786D01*
X8935000Y-13895738D01*
X8935000Y-13886214D01*
X8944524Y-13867167D01*
X8963571Y-13857643D01*
X8992143Y-13857643D01*
X9011190Y-13867167D01*
X9087381Y-14067167D02*
X9096905Y-14057643D01*
X9115952Y-14029071D01*
X9125476Y-14010024D01*
X9135000Y-13981452D01*
X9144524Y-13933833D01*
X9144524Y-13895738D01*
X9135000Y-13848119D01*
X9125476Y-13819548D01*
X9115952Y-13800500D01*
X9096905Y-13771928D01*
X9087381Y-13762405D01*
M02*
