%TF.GenerationSoftware,KiCad,Pcbnew,6.0.2-378541a8eb~116~ubuntu20.04.1*%
%TF.CreationDate,2022-03-18T17:48:32-05:00*%
%TF.ProjectId,mother,6d6f7468-6572-42e6-9b69-6361645f7063,rev?*%
%TF.SameCoordinates,Original*%
%TF.FileFunction,Soldermask,Bot*%
%TF.FilePolarity,Negative*%
%FSLAX46Y46*%
G04 Gerber Fmt 4.6, Leading zero omitted, Abs format (unit mm)*
G04 Created by KiCad (PCBNEW 6.0.2-378541a8eb~116~ubuntu20.04.1) date 2022-03-18 17:48:32*
%MOMM*%
%LPD*%
G01*
G04 APERTURE LIST*
%ADD10C,2.500000*%
%ADD11R,3.000000X3.000000*%
%ADD12C,3.000000*%
%ADD13R,1.800000X1.800000*%
%ADD14C,1.800000*%
%ADD15R,1.727200X1.727200*%
%ADD16O,1.727200X1.727200*%
%ADD17R,3.960000X1.980000*%
%ADD18O,3.960000X1.980000*%
%ADD19C,1.524000*%
%ADD20C,1.600000*%
%ADD21O,1.600000X1.600000*%
%ADD22R,1.600000X1.600000*%
G04 APERTURE END LIST*
D10*
%TO.C,REF\u002A\u002A*%
X215265000Y-114300000D03*
%TD*%
D11*
%TO.C,J7*%
X175260000Y-114300000D03*
D12*
X180340000Y-114300000D03*
%TD*%
D11*
%TO.C,J1*%
X54864000Y-114046000D03*
D12*
X59944000Y-114046000D03*
%TD*%
D13*
%TO.C,D2*%
X74925000Y-104394000D03*
D14*
X77465000Y-104394000D03*
%TD*%
D13*
%TO.C,D7*%
X176525000Y-104394000D03*
D14*
X179065000Y-104394000D03*
%TD*%
D15*
%TO.C,J9*%
X212090000Y-97790000D03*
D16*
X214630000Y-97790000D03*
X212090000Y-100330000D03*
X214630000Y-100330000D03*
X212090000Y-102870000D03*
X214630000Y-102870000D03*
%TD*%
D11*
%TO.C,J2*%
X73660000Y-114046000D03*
D12*
X78740000Y-114046000D03*
%TD*%
D13*
%TO.C,D8*%
X196845000Y-104394000D03*
D14*
X199385000Y-104394000D03*
%TD*%
D17*
%TO.C,J11*%
X48260000Y-81055000D03*
D18*
X48260000Y-86135000D03*
%TD*%
D19*
%TO.C,U3*%
X67818000Y-98552000D03*
X70358000Y-98552000D03*
X72898000Y-98552000D03*
X75438000Y-98552000D03*
X77978000Y-98552000D03*
X80518000Y-98552000D03*
X83058000Y-98552000D03*
X85598000Y-98552000D03*
X88138000Y-98552000D03*
X90678000Y-98552000D03*
X93218000Y-98552000D03*
X95758000Y-98552000D03*
X98298000Y-98552000D03*
X100838000Y-98552000D03*
X100838000Y-83312000D03*
X98298000Y-83312000D03*
X95758000Y-83312000D03*
X93218000Y-83312000D03*
X90678000Y-83312000D03*
X88138000Y-83312000D03*
X85598000Y-83312000D03*
X83058000Y-83312000D03*
X80518000Y-83312000D03*
X77978000Y-83312000D03*
X75438000Y-83312000D03*
X72898000Y-83312000D03*
X70358000Y-83312000D03*
X67818000Y-83312000D03*
%TD*%
D20*
%TO.C,R3*%
X104140000Y-114300000D03*
D21*
X104140000Y-104140000D03*
%TD*%
D11*
%TO.C,J8*%
X195580000Y-114300000D03*
D12*
X200660000Y-114300000D03*
%TD*%
D11*
%TO.C,J6*%
X154940000Y-114300000D03*
D12*
X160020000Y-114300000D03*
%TD*%
D20*
%TO.C,R4*%
X124460000Y-114300000D03*
D21*
X124460000Y-104140000D03*
%TD*%
D22*
%TO.C,U2*%
X119380000Y-93980000D03*
D21*
X121920000Y-93980000D03*
X124460000Y-93980000D03*
X127000000Y-93980000D03*
X129540000Y-93980000D03*
X132080000Y-93980000D03*
X134620000Y-93980000D03*
X137160000Y-93980000D03*
X139700000Y-93980000D03*
X142240000Y-93980000D03*
X142240000Y-86360000D03*
X139700000Y-86360000D03*
X137160000Y-86360000D03*
X134620000Y-86360000D03*
X132080000Y-86360000D03*
X129540000Y-86360000D03*
X127000000Y-86360000D03*
X124460000Y-86360000D03*
X121920000Y-86360000D03*
X119380000Y-86360000D03*
%TD*%
D13*
%TO.C,D6*%
X156205000Y-104394000D03*
D14*
X158745000Y-104394000D03*
%TD*%
D20*
%TO.C,R6*%
X165100000Y-114300000D03*
D21*
X165100000Y-104140000D03*
%TD*%
D10*
%TO.C,REF\u002A\u002A*%
X45720000Y-73025000D03*
%TD*%
%TO.C,REF\u002A\u002A*%
X45720000Y-114300000D03*
%TD*%
D11*
%TO.C,J3*%
X93980000Y-114300000D03*
D12*
X99060000Y-114300000D03*
%TD*%
D20*
%TO.C,R7*%
X185420000Y-114300000D03*
D21*
X185420000Y-104140000D03*
%TD*%
D13*
%TO.C,D4*%
X115057000Y-104394000D03*
D14*
X117597000Y-104394000D03*
%TD*%
D13*
%TO.C,D5*%
X135885000Y-104394000D03*
D14*
X138425000Y-104394000D03*
%TD*%
D20*
%TO.C,R5*%
X144780000Y-114300000D03*
D21*
X144780000Y-104140000D03*
%TD*%
D13*
%TO.C,D3*%
X95245000Y-104394000D03*
D14*
X97785000Y-104394000D03*
%TD*%
D10*
%TO.C,REF\u002A\u002A*%
X215265000Y-73025000D03*
%TD*%
D20*
%TO.C,R1*%
X66040000Y-114300000D03*
D21*
X66040000Y-104140000D03*
%TD*%
D11*
%TO.C,J5*%
X134620000Y-114300000D03*
D12*
X139700000Y-114300000D03*
%TD*%
D20*
%TO.C,R2*%
X83820000Y-114300000D03*
D21*
X83820000Y-104140000D03*
%TD*%
D19*
%TO.C,U1*%
X50038000Y-99822000D03*
X50038000Y-97282000D03*
X50038000Y-94742000D03*
%TD*%
D11*
%TO.C,J4*%
X113870000Y-113980000D03*
D12*
X118950000Y-113980000D03*
%TD*%
D17*
%TO.C,J12*%
X212090000Y-86585000D03*
D18*
X212090000Y-81505000D03*
%TD*%
D20*
%TO.C,R8*%
X205740000Y-114300000D03*
D21*
X205740000Y-104140000D03*
%TD*%
D13*
%TO.C,D1*%
X56129000Y-104394000D03*
D14*
X58669000Y-104394000D03*
%TD*%
M02*
