M48
; DRILL file {KiCad 6.0.2-378541a8eb~116~ubuntu20.04.1} date Fri 18 Mar 2022 05:45:27 PM CDT
; FORMAT={-:-/ absolute / metric / decimal}
; #@! TF.CreationDate,2022-03-18T17:45:27-05:00
; #@! TF.GenerationSoftware,Kicad,Pcbnew,6.0.2-378541a8eb~116~ubuntu20.04.1
; #@! TF.FileFunction,Plated,1,2,PTH
FMAT,2
METRIC
; #@! TA.AperFunction,Plated,PTH,ViaDrill
T1C0.400
; #@! TA.AperFunction,Plated,PTH,ComponentDrill
T2C0.762
; #@! TA.AperFunction,Plated,PTH,ComponentDrill
T3C0.800
; #@! TA.AperFunction,Plated,PTH,ComponentDrill
T4C0.900
; #@! TA.AperFunction,Plated,PTH,ComponentDrill
T5C1.016
; #@! TA.AperFunction,Plated,PTH,ComponentDrill
T6C1.320
; #@! TA.AperFunction,Plated,PTH,ComponentDrill
T7C1.520
%
G90
G05
T1
X61.214Y-95.25
T2
X71.12Y-86.36
X73.66Y-86.36
X76.2Y-86.36
T3
X66.04Y-104.14
X66.04Y-114.3
X83.82Y-104.14
X83.82Y-114.3
X104.14Y-104.14
X104.14Y-114.3
X119.38Y-86.36
X119.38Y-93.98
X121.92Y-86.36
X121.92Y-93.98
X124.46Y-86.36
X124.46Y-93.98
X124.46Y-104.14
X124.46Y-114.3
X127.0Y-86.36
X127.0Y-93.98
X129.54Y-86.36
X129.54Y-93.98
X132.08Y-86.36
X132.08Y-93.98
X134.62Y-86.36
X134.62Y-93.98
X137.16Y-86.36
X137.16Y-93.98
X139.7Y-86.36
X139.7Y-93.98
X142.24Y-86.36
X142.24Y-93.98
X144.78Y-104.14
X144.78Y-114.3
X165.1Y-104.14
X165.1Y-114.3
X185.42Y-104.14
X185.42Y-114.3
X205.74Y-104.14
X205.74Y-114.3
T4
X56.129Y-104.394
X58.669Y-104.394
X74.925Y-104.394
X77.465Y-104.394
X95.245Y-104.394
X97.785Y-104.394
X115.057Y-104.394
X117.597Y-104.394
X135.885Y-104.394
X138.425Y-104.394
X156.205Y-104.394
X158.745Y-104.394
X176.525Y-104.394
X179.065Y-104.394
X196.845Y-104.394
X199.385Y-104.394
T5
X46.355Y-97.79
X46.355Y-100.33
X46.355Y-102.87
X48.895Y-97.79
X48.895Y-100.33
X48.895Y-102.87
X212.09Y-97.79
X212.09Y-100.33
X212.09Y-102.87
X214.63Y-97.79
X214.63Y-100.33
X214.63Y-102.87
T6
X48.26Y-81.055
X48.26Y-86.135
X212.09Y-81.505
X212.09Y-86.585
T7
X54.864Y-114.046
X59.944Y-114.046
X73.66Y-114.046
X78.74Y-114.046
X93.98Y-114.3
X99.06Y-114.3
X113.87Y-113.98
X118.95Y-113.98
X134.62Y-114.3
X139.7Y-114.3
X154.94Y-114.3
X160.02Y-114.3
X175.26Y-114.3
X180.34Y-114.3
X195.58Y-114.3
X200.66Y-114.3
T0
M30
