%TF.GenerationSoftware,KiCad,Pcbnew,6.0.2-378541a8eb~116~ubuntu20.04.1*%
%TF.CreationDate,2022-03-18T17:45:00-05:00*%
%TF.ProjectId,daughter,64617567-6874-4657-922e-6b696361645f,rev?*%
%TF.SameCoordinates,Original*%
%TF.FileFunction,Copper,L2,Bot*%
%TF.FilePolarity,Positive*%
%FSLAX46Y46*%
G04 Gerber Fmt 4.6, Leading zero omitted, Abs format (unit mm)*
G04 Created by KiCad (PCBNEW 6.0.2-378541a8eb~116~ubuntu20.04.1) date 2022-03-18 17:45:00*
%MOMM*%
%LPD*%
G01*
G04 APERTURE LIST*
%TA.AperFunction,ComponentPad*%
%ADD10R,3.000000X3.000000*%
%TD*%
%TA.AperFunction,ComponentPad*%
%ADD11C,3.000000*%
%TD*%
%TA.AperFunction,ComponentPad*%
%ADD12R,1.727200X1.727200*%
%TD*%
%TA.AperFunction,ComponentPad*%
%ADD13O,1.727200X1.727200*%
%TD*%
%TA.AperFunction,ComponentPad*%
%ADD14R,1.800000X1.800000*%
%TD*%
%TA.AperFunction,ComponentPad*%
%ADD15C,1.800000*%
%TD*%
%TA.AperFunction,ComponentPad*%
%ADD16R,3.960000X1.980000*%
%TD*%
%TA.AperFunction,ComponentPad*%
%ADD17O,3.960000X1.980000*%
%TD*%
%TA.AperFunction,ComponentPad*%
%ADD18C,1.600000*%
%TD*%
%TA.AperFunction,ComponentPad*%
%ADD19O,1.600000X1.600000*%
%TD*%
%TA.AperFunction,ComponentPad*%
%ADD20R,1.600000X1.600000*%
%TD*%
%TA.AperFunction,ComponentPad*%
%ADD21C,1.524000*%
%TD*%
%TA.AperFunction,ViaPad*%
%ADD22C,0.800000*%
%TD*%
%TA.AperFunction,Conductor*%
%ADD23C,0.250000*%
%TD*%
%TA.AperFunction,Conductor*%
%ADD24C,1.500000*%
%TD*%
%TA.AperFunction,Conductor*%
%ADD25C,7.000000*%
%TD*%
G04 APERTURE END LIST*
D10*
%TO.P,J7,1,Pin_1*%
%TO.N,/D6*%
X175260000Y-114300000D03*
D11*
%TO.P,J7,2,Pin_2*%
%TO.N,+VDC*%
X180340000Y-114300000D03*
%TD*%
D10*
%TO.P,J1,1,Pin_1*%
%TO.N,/D0*%
X54864000Y-114046000D03*
D11*
%TO.P,J1,2,Pin_2*%
%TO.N,+VDC*%
X59944000Y-114046000D03*
%TD*%
D12*
%TO.P,J10,1,Pin_1*%
%TO.N,GNDD*%
X46355000Y-97790000D03*
D13*
%TO.P,J10,2,Pin_2*%
%TO.N,Net-(J10-Pad2)*%
X48895000Y-97790000D03*
%TO.P,J10,3,Pin_3*%
%TO.N,/SERIN*%
X46355000Y-100330000D03*
%TO.P,J10,4,Pin_4*%
%TO.N,/CLOCK*%
X48895000Y-100330000D03*
%TO.P,J10,5,Pin_5*%
%TO.N,/LATCH*%
X46355000Y-102870000D03*
%TO.P,J10,6,Pin_6*%
%TO.N,unconnected-(J10-Pad6)*%
X48895000Y-102870000D03*
%TD*%
D14*
%TO.P,D2,1,K*%
%TO.N,/D1*%
X74925000Y-104394000D03*
D15*
%TO.P,D2,2,A*%
%TO.N,Net-(D2-Pad2)*%
X77465000Y-104394000D03*
%TD*%
D14*
%TO.P,D7,1,K*%
%TO.N,/D6*%
X176525000Y-104394000D03*
D15*
%TO.P,D7,2,A*%
%TO.N,Net-(D7-Pad2)*%
X179065000Y-104394000D03*
%TD*%
D12*
%TO.P,J9,1,Pin_1*%
%TO.N,GNDD*%
X212090000Y-97790000D03*
D13*
%TO.P,J9,2,Pin_2*%
%TO.N,+5V*%
X214630000Y-97790000D03*
%TO.P,J9,3,Pin_3*%
%TO.N,/SEROUT*%
X212090000Y-100330000D03*
%TO.P,J9,4,Pin_4*%
%TO.N,/CLOCK*%
X214630000Y-100330000D03*
%TO.P,J9,5,Pin_5*%
%TO.N,/LATCH*%
X212090000Y-102870000D03*
%TO.P,J9,6,Pin_6*%
%TO.N,unconnected-(J9-Pad6)*%
X214630000Y-102870000D03*
%TD*%
D10*
%TO.P,J2,1,Pin_1*%
%TO.N,/D1*%
X73660000Y-114046000D03*
D11*
%TO.P,J2,2,Pin_2*%
%TO.N,+VDC*%
X78740000Y-114046000D03*
%TD*%
D14*
%TO.P,D8,1,K*%
%TO.N,/D7*%
X196845000Y-104394000D03*
D15*
%TO.P,D8,2,A*%
%TO.N,Net-(D8-Pad2)*%
X199385000Y-104394000D03*
%TD*%
D16*
%TO.P,J11,1,Pin_1*%
%TO.N,GNDPWR*%
X48260000Y-81055000D03*
D17*
%TO.P,J11,2,Pin_2*%
%TO.N,+VDC*%
X48260000Y-86135000D03*
%TD*%
D18*
%TO.P,R3,1*%
%TO.N,Net-(D3-Pad2)*%
X104140000Y-114300000D03*
D19*
%TO.P,R3,2*%
%TO.N,+5V*%
X104140000Y-104140000D03*
%TD*%
D10*
%TO.P,J8,1,Pin_1*%
%TO.N,/D7*%
X195580000Y-114300000D03*
D11*
%TO.P,J8,2,Pin_2*%
%TO.N,+VDC*%
X200660000Y-114300000D03*
%TD*%
D10*
%TO.P,J6,1,Pin_1*%
%TO.N,/D5*%
X154940000Y-114300000D03*
D11*
%TO.P,J6,2,Pin_2*%
%TO.N,+VDC*%
X160020000Y-114300000D03*
%TD*%
D18*
%TO.P,R4,1*%
%TO.N,Net-(D4-Pad2)*%
X124460000Y-114300000D03*
D19*
%TO.P,R4,2*%
%TO.N,+5V*%
X124460000Y-104140000D03*
%TD*%
D20*
%TO.P,U2,1,DRAIN2*%
%TO.N,/D2*%
X119380000Y-93980000D03*
D19*
%TO.P,U2,2,DRAIN3*%
%TO.N,/D3*%
X121920000Y-93980000D03*
%TO.P,U2,3,SRCLR*%
%TO.N,+5V*%
X124460000Y-93980000D03*
%TO.P,U2,4,G*%
%TO.N,GNDD*%
X127000000Y-93980000D03*
%TO.P,U2,5,PGND*%
%TO.N,GNDPWR*%
X129540000Y-93980000D03*
%TO.P,U2,6,PGND*%
X132080000Y-93980000D03*
%TO.P,U2,7,RCK*%
%TO.N,/LATCH*%
X134620000Y-93980000D03*
%TO.P,U2,8,SRCK*%
%TO.N,/CLOCK*%
X137160000Y-93980000D03*
%TO.P,U2,9,DRAIN4*%
%TO.N,/D4*%
X139700000Y-93980000D03*
%TO.P,U2,10,DRAIN5*%
%TO.N,/D5*%
X142240000Y-93980000D03*
%TO.P,U2,11,DRAIN6*%
%TO.N,/D6*%
X142240000Y-86360000D03*
%TO.P,U2,12,DRAIN7*%
%TO.N,/D7*%
X139700000Y-86360000D03*
%TO.P,U2,13,SEROUT*%
%TO.N,/SEROUT*%
X137160000Y-86360000D03*
%TO.P,U2,14,LGND*%
%TO.N,GNDD*%
X134620000Y-86360000D03*
%TO.P,U2,15,PGND*%
%TO.N,GNDPWR*%
X132080000Y-86360000D03*
%TO.P,U2,16,PGND*%
X129540000Y-86360000D03*
%TO.P,U2,17,VCC*%
%TO.N,+5V*%
X127000000Y-86360000D03*
%TO.P,U2,18,SERIN*%
%TO.N,/SERIN*%
X124460000Y-86360000D03*
%TO.P,U2,19,DRAIN0*%
%TO.N,/D0*%
X121920000Y-86360000D03*
%TO.P,U2,20,DRAIN1*%
%TO.N,/D1*%
X119380000Y-86360000D03*
%TD*%
D14*
%TO.P,D6,1,K*%
%TO.N,/D5*%
X156205000Y-104394000D03*
D15*
%TO.P,D6,2,A*%
%TO.N,Net-(D6-Pad2)*%
X158745000Y-104394000D03*
%TD*%
D18*
%TO.P,R6,1*%
%TO.N,Net-(D6-Pad2)*%
X165100000Y-114300000D03*
D19*
%TO.P,R6,2*%
%TO.N,+5V*%
X165100000Y-104140000D03*
%TD*%
D10*
%TO.P,J3,1,Pin_1*%
%TO.N,/D2*%
X93980000Y-114300000D03*
D11*
%TO.P,J3,2,Pin_2*%
%TO.N,+VDC*%
X99060000Y-114300000D03*
%TD*%
D18*
%TO.P,R7,1*%
%TO.N,Net-(D7-Pad2)*%
X185420000Y-114300000D03*
D19*
%TO.P,R7,2*%
%TO.N,+5V*%
X185420000Y-104140000D03*
%TD*%
D14*
%TO.P,D4,1,K*%
%TO.N,/D3*%
X115057000Y-104394000D03*
D15*
%TO.P,D4,2,A*%
%TO.N,Net-(D4-Pad2)*%
X117597000Y-104394000D03*
%TD*%
D14*
%TO.P,D5,1,K*%
%TO.N,/D4*%
X135885000Y-104394000D03*
D15*
%TO.P,D5,2,A*%
%TO.N,Net-(D5-Pad2)*%
X138425000Y-104394000D03*
%TD*%
D18*
%TO.P,R5,1*%
%TO.N,Net-(D5-Pad2)*%
X144780000Y-114300000D03*
D19*
%TO.P,R5,2*%
%TO.N,+5V*%
X144780000Y-104140000D03*
%TD*%
D14*
%TO.P,D3,1,K*%
%TO.N,/D2*%
X95245000Y-104394000D03*
D15*
%TO.P,D3,2,A*%
%TO.N,Net-(D3-Pad2)*%
X97785000Y-104394000D03*
%TD*%
D18*
%TO.P,R1,1*%
%TO.N,Net-(D1-Pad2)*%
X66040000Y-114300000D03*
D19*
%TO.P,R1,2*%
%TO.N,+5V*%
X66040000Y-104140000D03*
%TD*%
D10*
%TO.P,J5,1,Pin_1*%
%TO.N,/D4*%
X134620000Y-114300000D03*
D11*
%TO.P,J5,2,Pin_2*%
%TO.N,+VDC*%
X139700000Y-114300000D03*
%TD*%
D18*
%TO.P,R2,1*%
%TO.N,Net-(D2-Pad2)*%
X83820000Y-114300000D03*
D19*
%TO.P,R2,2*%
%TO.N,+5V*%
X83820000Y-104140000D03*
%TD*%
D21*
%TO.P,U1,1,PWR*%
%TO.N,+VDC*%
X71120000Y-86360000D03*
%TO.P,U1,2,GND*%
%TO.N,GNDPWR*%
X73660000Y-86360000D03*
%TO.P,U1,3,+5V*%
%TO.N,+5V*%
X76200000Y-86360000D03*
%TD*%
D10*
%TO.P,J4,1,Pin_1*%
%TO.N,/D3*%
X113870000Y-113980000D03*
D11*
%TO.P,J4,2,Pin_2*%
%TO.N,+VDC*%
X118950000Y-113980000D03*
%TD*%
D16*
%TO.P,J12,1,Pin_1*%
%TO.N,+VDC*%
X212090000Y-86585000D03*
D17*
%TO.P,J12,2,Pin_2*%
%TO.N,GNDPWR*%
X212090000Y-81505000D03*
%TD*%
D18*
%TO.P,R8,1*%
%TO.N,Net-(D8-Pad2)*%
X205740000Y-114300000D03*
D19*
%TO.P,R8,2*%
%TO.N,+5V*%
X205740000Y-104140000D03*
%TD*%
D14*
%TO.P,D1,1,K*%
%TO.N,/D0*%
X56129000Y-104394000D03*
D15*
%TO.P,D1,2,A*%
%TO.N,Net-(D1-Pad2)*%
X58669000Y-104394000D03*
%TD*%
D22*
%TO.N,/SERIN*%
X61214000Y-95250000D03*
%TD*%
D23*
%TO.N,/D0*%
X73076489Y-87446511D02*
X116389207Y-87446511D01*
X56129000Y-104394000D02*
X73076489Y-87446511D01*
X119829520Y-84269520D02*
X121920000Y-86360000D01*
X54864000Y-105659000D02*
X56129000Y-104394000D01*
X116389207Y-87446511D02*
X119566198Y-84269520D01*
X119566198Y-84269520D02*
X119829520Y-84269520D01*
X54864000Y-114046000D02*
X54864000Y-105659000D01*
%TO.N,Net-(D1-Pad2)*%
X66040000Y-111765000D02*
X58669000Y-104394000D01*
X66040000Y-114300000D02*
X66040000Y-111765000D01*
%TO.N,/D1*%
X73660000Y-114046000D02*
X73660000Y-105659000D01*
X91422969Y-87896031D02*
X117843969Y-87896031D01*
X117843969Y-87896031D02*
X119380000Y-86360000D01*
X74925000Y-104394000D02*
X91422969Y-87896031D01*
X73660000Y-105659000D02*
X74925000Y-104394000D01*
%TO.N,Net-(D2-Pad2)*%
X83820000Y-114300000D02*
X83820000Y-110749000D01*
X83820000Y-110749000D02*
X77465000Y-104394000D01*
%TO.N,/D2*%
X105659000Y-93980000D02*
X119380000Y-93980000D01*
X93980000Y-105659000D02*
X95245000Y-104394000D01*
X93980000Y-114300000D02*
X93980000Y-105659000D01*
X95245000Y-104394000D02*
X105659000Y-93980000D01*
%TO.N,Net-(D3-Pad2)*%
X104140000Y-110749000D02*
X97785000Y-104394000D01*
X104140000Y-114300000D02*
X104140000Y-110749000D01*
%TO.N,/D3*%
X115057000Y-100843000D02*
X121920000Y-93980000D01*
X113870000Y-105581000D02*
X115057000Y-104394000D01*
X113870000Y-113980000D02*
X113870000Y-105581000D01*
X115057000Y-104394000D02*
X115057000Y-100843000D01*
%TO.N,Net-(D4-Pad2)*%
X124460000Y-114300000D02*
X124460000Y-111257000D01*
X124460000Y-111257000D02*
X117597000Y-104394000D01*
%TO.N,/D4*%
X135885000Y-97795000D02*
X139700000Y-93980000D01*
X134620000Y-114300000D02*
X134620000Y-105659000D01*
X135885000Y-104394000D02*
X135885000Y-97795000D01*
X134620000Y-105659000D02*
X135885000Y-104394000D01*
%TO.N,Net-(D5-Pad2)*%
X144780000Y-114300000D02*
X144780000Y-110749000D01*
X144780000Y-110749000D02*
X138425000Y-104394000D01*
%TO.N,/D5*%
X152654000Y-104394000D02*
X142240000Y-93980000D01*
X154940000Y-114300000D02*
X154940000Y-105659000D01*
X156205000Y-104394000D02*
X152654000Y-104394000D01*
X154940000Y-105659000D02*
X156205000Y-104394000D01*
%TO.N,Net-(D6-Pad2)*%
X165100000Y-110749000D02*
X158745000Y-104394000D01*
X165100000Y-114300000D02*
X165100000Y-110749000D01*
%TO.N,/D6*%
X175260000Y-105659000D02*
X176525000Y-104394000D01*
X158491000Y-86360000D02*
X142240000Y-86360000D01*
X176525000Y-104394000D02*
X158491000Y-86360000D01*
X175260000Y-114300000D02*
X175260000Y-105659000D01*
%TO.N,Net-(D7-Pad2)*%
X185420000Y-110749000D02*
X179065000Y-104394000D01*
X185420000Y-114300000D02*
X185420000Y-110749000D01*
%TO.N,/D7*%
X177686489Y-85235489D02*
X140824511Y-85235489D01*
X195580000Y-105659000D02*
X196845000Y-104394000D01*
X140824511Y-85235489D02*
X139700000Y-86360000D01*
X195580000Y-114300000D02*
X195580000Y-105659000D01*
X196845000Y-104394000D02*
X177686489Y-85235489D01*
%TO.N,Net-(D8-Pad2)*%
X205740000Y-114300000D02*
X205740000Y-110749000D01*
X205740000Y-110749000D02*
X199385000Y-104394000D01*
D24*
%TO.N,+VDC*%
X137250489Y-116749511D02*
X139700000Y-114300000D01*
X59944000Y-114046000D02*
X62393511Y-116495511D01*
X177890489Y-116749511D02*
X180340000Y-114300000D01*
X78740000Y-114046000D02*
X81443511Y-116749511D01*
X142149511Y-116749511D02*
X157570489Y-116749511D01*
X62393511Y-116495511D02*
X76290489Y-116495511D01*
X118950000Y-113980000D02*
X121719511Y-116749511D01*
X160020000Y-114300000D02*
X162469511Y-116749511D01*
X182789511Y-116749511D02*
X198210489Y-116749511D01*
X96610489Y-116749511D02*
X99060000Y-114300000D01*
X116500489Y-116429511D02*
X118950000Y-113980000D01*
X162469511Y-116749511D02*
X177890489Y-116749511D01*
X81443511Y-116749511D02*
X96610489Y-116749511D01*
X198210489Y-116749511D02*
X200660000Y-114300000D01*
X180340000Y-114300000D02*
X182789511Y-116749511D01*
X99060000Y-114300000D02*
X101189511Y-116429511D01*
X139700000Y-114300000D02*
X142149511Y-116749511D01*
X121719511Y-116749511D02*
X137250489Y-116749511D01*
X157570489Y-116749511D02*
X160020000Y-114300000D01*
X101189511Y-116429511D02*
X116500489Y-116429511D01*
X76290489Y-116495511D02*
X78740000Y-114046000D01*
D23*
%TO.N,+5V*%
X136035489Y-85706511D02*
X137160000Y-84582000D01*
X124460000Y-93980000D02*
X124460000Y-104140000D01*
X127000000Y-86360000D02*
X128124511Y-87484511D01*
X136035489Y-86534811D02*
X136035489Y-85706511D01*
X119380000Y-83820000D02*
X124460000Y-83820000D01*
X135085789Y-87484511D02*
X136035489Y-86534811D01*
X116840000Y-86360000D02*
X119380000Y-83820000D01*
X124460000Y-83820000D02*
X127000000Y-86360000D01*
X76200000Y-86360000D02*
X116840000Y-86360000D01*
X128124511Y-87484511D02*
X135085789Y-87484511D01*
X201422000Y-84582000D02*
X214630000Y-97790000D01*
X137160000Y-84582000D02*
X201422000Y-84582000D01*
%TO.N,/SERIN*%
X47543111Y-99141889D02*
X57322111Y-99141889D01*
X46355000Y-100330000D02*
X47543111Y-99141889D01*
X57322111Y-99141889D02*
X61214000Y-95250000D01*
D25*
%TO.N,GNDPWR*%
X55880000Y-72390000D02*
X143510000Y-72390000D01*
D24*
X129540000Y-93980000D02*
X132080000Y-93980000D01*
X129540000Y-86360000D02*
X132080000Y-86360000D01*
D25*
X204470000Y-72390000D02*
X212090000Y-80010000D01*
D24*
X132080000Y-83820000D02*
X143510000Y-72390000D01*
D25*
X212090000Y-80010000D02*
X212090000Y-81505000D01*
D23*
X73660000Y-86360000D02*
X68355000Y-81055000D01*
D24*
X132080000Y-86360000D02*
X132080000Y-83820000D01*
D25*
X143510000Y-72390000D02*
X204470000Y-72390000D01*
X48260000Y-80010000D02*
X55880000Y-72390000D01*
D23*
X68355000Y-81055000D02*
X48260000Y-81055000D01*
D25*
X48260000Y-81055000D02*
X48260000Y-80010000D01*
%TD*%
M02*
