%TF.GenerationSoftware,KiCad,Pcbnew,6.0.2-378541a8eb~116~ubuntu20.04.1*%
%TF.CreationDate,2022-03-18T17:44:59-05:00*%
%TF.ProjectId,daughter,64617567-6874-4657-922e-6b696361645f,rev?*%
%TF.SameCoordinates,Original*%
%TF.FileFunction,Copper,L1,Top*%
%TF.FilePolarity,Positive*%
%FSLAX46Y46*%
G04 Gerber Fmt 4.6, Leading zero omitted, Abs format (unit mm)*
G04 Created by KiCad (PCBNEW 6.0.2-378541a8eb~116~ubuntu20.04.1) date 2022-03-18 17:44:59*
%MOMM*%
%LPD*%
G01*
G04 APERTURE LIST*
G04 Aperture macros list*
%AMFreePoly0*
4,1,22,0.500000,-0.750000,0.000000,-0.750000,0.000000,-0.745033,-0.079941,-0.743568,-0.215256,-0.701293,-0.333266,-0.622738,-0.424486,-0.514219,-0.481581,-0.384460,-0.499164,-0.250000,-0.500000,-0.250000,-0.500000,0.250000,-0.499164,0.250000,-0.499963,0.256109,-0.478152,0.396186,-0.417904,0.524511,-0.324060,0.630769,-0.204165,0.706417,-0.067858,0.745374,0.000000,0.744959,0.000000,0.750000,
0.500000,0.750000,0.500000,-0.750000,0.500000,-0.750000,$1*%
%AMFreePoly1*
4,1,20,0.000000,0.744959,0.073905,0.744508,0.209726,0.703889,0.328688,0.626782,0.421226,0.519385,0.479903,0.390333,0.500000,0.250000,0.500000,-0.250000,0.499851,-0.262216,0.476331,-0.402017,0.414519,-0.529596,0.319384,-0.634700,0.198574,-0.708877,0.061801,-0.746166,0.000000,-0.745033,0.000000,-0.750000,-0.500000,-0.750000,-0.500000,0.750000,0.000000,0.750000,0.000000,0.744959,
0.000000,0.744959,$1*%
G04 Aperture macros list end*
%TA.AperFunction,ComponentPad*%
%ADD10R,3.000000X3.000000*%
%TD*%
%TA.AperFunction,ComponentPad*%
%ADD11C,3.000000*%
%TD*%
%TA.AperFunction,ComponentPad*%
%ADD12R,1.727200X1.727200*%
%TD*%
%TA.AperFunction,ComponentPad*%
%ADD13O,1.727200X1.727200*%
%TD*%
%TA.AperFunction,ComponentPad*%
%ADD14R,1.800000X1.800000*%
%TD*%
%TA.AperFunction,ComponentPad*%
%ADD15C,1.800000*%
%TD*%
%TA.AperFunction,SMDPad,CuDef*%
%ADD16FreePoly0,0.000000*%
%TD*%
%TA.AperFunction,SMDPad,CuDef*%
%ADD17FreePoly1,0.000000*%
%TD*%
%TA.AperFunction,ComponentPad*%
%ADD18R,3.960000X1.980000*%
%TD*%
%TA.AperFunction,ComponentPad*%
%ADD19O,3.960000X1.980000*%
%TD*%
%TA.AperFunction,ComponentPad*%
%ADD20C,1.600000*%
%TD*%
%TA.AperFunction,ComponentPad*%
%ADD21O,1.600000X1.600000*%
%TD*%
%TA.AperFunction,ComponentPad*%
%ADD22R,1.600000X1.600000*%
%TD*%
%TA.AperFunction,ComponentPad*%
%ADD23C,1.524000*%
%TD*%
%TA.AperFunction,ViaPad*%
%ADD24C,0.800000*%
%TD*%
%TA.AperFunction,Conductor*%
%ADD25C,7.000000*%
%TD*%
%TA.AperFunction,Conductor*%
%ADD26C,1.500000*%
%TD*%
%TA.AperFunction,Conductor*%
%ADD27C,0.250000*%
%TD*%
G04 APERTURE END LIST*
%TO.C,JP1*%
G36*
X63750000Y-86025000D02*
G01*
X63250000Y-86025000D01*
X63250000Y-85425000D01*
X63750000Y-85425000D01*
X63750000Y-86025000D01*
G37*
%TO.C,JP2*%
G36*
X84720000Y-86025000D02*
G01*
X84220000Y-86025000D01*
X84220000Y-85425000D01*
X84720000Y-85425000D01*
X84720000Y-86025000D01*
G37*
%TD*%
D10*
%TO.P,J7,1,Pin_1*%
%TO.N,/D6*%
X175260000Y-114300000D03*
D11*
%TO.P,J7,2,Pin_2*%
%TO.N,+VDC*%
X180340000Y-114300000D03*
%TD*%
D10*
%TO.P,J1,1,Pin_1*%
%TO.N,/D0*%
X54864000Y-114046000D03*
D11*
%TO.P,J1,2,Pin_2*%
%TO.N,+VDC*%
X59944000Y-114046000D03*
%TD*%
D12*
%TO.P,J10,1,Pin_1*%
%TO.N,GNDD*%
X46355000Y-97790000D03*
D13*
%TO.P,J10,2,Pin_2*%
%TO.N,Net-(J10-Pad2)*%
X48895000Y-97790000D03*
%TO.P,J10,3,Pin_3*%
%TO.N,/SERIN*%
X46355000Y-100330000D03*
%TO.P,J10,4,Pin_4*%
%TO.N,/CLOCK*%
X48895000Y-100330000D03*
%TO.P,J10,5,Pin_5*%
%TO.N,/LATCH*%
X46355000Y-102870000D03*
%TO.P,J10,6,Pin_6*%
%TO.N,unconnected-(J10-Pad6)*%
X48895000Y-102870000D03*
%TD*%
D14*
%TO.P,D2,1,K*%
%TO.N,/D1*%
X74925000Y-104394000D03*
D15*
%TO.P,D2,2,A*%
%TO.N,Net-(D2-Pad2)*%
X77465000Y-104394000D03*
%TD*%
D14*
%TO.P,D7,1,K*%
%TO.N,/D6*%
X176525000Y-104394000D03*
D15*
%TO.P,D7,2,A*%
%TO.N,Net-(D7-Pad2)*%
X179065000Y-104394000D03*
%TD*%
D12*
%TO.P,J9,1,Pin_1*%
%TO.N,GNDD*%
X212090000Y-97790000D03*
D13*
%TO.P,J9,2,Pin_2*%
%TO.N,+5V*%
X214630000Y-97790000D03*
%TO.P,J9,3,Pin_3*%
%TO.N,/SEROUT*%
X212090000Y-100330000D03*
%TO.P,J9,4,Pin_4*%
%TO.N,/CLOCK*%
X214630000Y-100330000D03*
%TO.P,J9,5,Pin_5*%
%TO.N,/LATCH*%
X212090000Y-102870000D03*
%TO.P,J9,6,Pin_6*%
%TO.N,unconnected-(J9-Pad6)*%
X214630000Y-102870000D03*
%TD*%
D10*
%TO.P,J2,1,Pin_1*%
%TO.N,/D1*%
X73660000Y-114046000D03*
D11*
%TO.P,J2,2,Pin_2*%
%TO.N,+VDC*%
X78740000Y-114046000D03*
%TD*%
D14*
%TO.P,D8,1,K*%
%TO.N,/D7*%
X196845000Y-104394000D03*
D15*
%TO.P,D8,2,A*%
%TO.N,Net-(D8-Pad2)*%
X199385000Y-104394000D03*
%TD*%
D16*
%TO.P,JP1,1,A*%
%TO.N,Net-(J10-Pad2)*%
X62850000Y-85725000D03*
D17*
%TO.P,JP1,2,B*%
%TO.N,+5V*%
X64150000Y-85725000D03*
%TD*%
D18*
%TO.P,J11,1,Pin_1*%
%TO.N,GNDPWR*%
X48260000Y-81055000D03*
D19*
%TO.P,J11,2,Pin_2*%
%TO.N,+VDC*%
X48260000Y-86135000D03*
%TD*%
D20*
%TO.P,R3,1*%
%TO.N,Net-(D3-Pad2)*%
X104140000Y-114300000D03*
D21*
%TO.P,R3,2*%
%TO.N,+5V*%
X104140000Y-104140000D03*
%TD*%
D10*
%TO.P,J8,1,Pin_1*%
%TO.N,/D7*%
X195580000Y-114300000D03*
D11*
%TO.P,J8,2,Pin_2*%
%TO.N,+VDC*%
X200660000Y-114300000D03*
%TD*%
D10*
%TO.P,J6,1,Pin_1*%
%TO.N,/D5*%
X154940000Y-114300000D03*
D11*
%TO.P,J6,2,Pin_2*%
%TO.N,+VDC*%
X160020000Y-114300000D03*
%TD*%
D20*
%TO.P,R4,1*%
%TO.N,Net-(D4-Pad2)*%
X124460000Y-114300000D03*
D21*
%TO.P,R4,2*%
%TO.N,+5V*%
X124460000Y-104140000D03*
%TD*%
D22*
%TO.P,U2,1,DRAIN2*%
%TO.N,/D2*%
X119380000Y-93980000D03*
D21*
%TO.P,U2,2,DRAIN3*%
%TO.N,/D3*%
X121920000Y-93980000D03*
%TO.P,U2,3,SRCLR*%
%TO.N,+5V*%
X124460000Y-93980000D03*
%TO.P,U2,4,G*%
%TO.N,GNDD*%
X127000000Y-93980000D03*
%TO.P,U2,5,PGND*%
%TO.N,GNDPWR*%
X129540000Y-93980000D03*
%TO.P,U2,6,PGND*%
X132080000Y-93980000D03*
%TO.P,U2,7,RCK*%
%TO.N,/LATCH*%
X134620000Y-93980000D03*
%TO.P,U2,8,SRCK*%
%TO.N,/CLOCK*%
X137160000Y-93980000D03*
%TO.P,U2,9,DRAIN4*%
%TO.N,/D4*%
X139700000Y-93980000D03*
%TO.P,U2,10,DRAIN5*%
%TO.N,/D5*%
X142240000Y-93980000D03*
%TO.P,U2,11,DRAIN6*%
%TO.N,/D6*%
X142240000Y-86360000D03*
%TO.P,U2,12,DRAIN7*%
%TO.N,/D7*%
X139700000Y-86360000D03*
%TO.P,U2,13,SEROUT*%
%TO.N,/SEROUT*%
X137160000Y-86360000D03*
%TO.P,U2,14,LGND*%
%TO.N,GNDD*%
X134620000Y-86360000D03*
%TO.P,U2,15,PGND*%
%TO.N,GNDPWR*%
X132080000Y-86360000D03*
%TO.P,U2,16,PGND*%
X129540000Y-86360000D03*
%TO.P,U2,17,VCC*%
%TO.N,+5V*%
X127000000Y-86360000D03*
%TO.P,U2,18,SERIN*%
%TO.N,/SERIN*%
X124460000Y-86360000D03*
%TO.P,U2,19,DRAIN0*%
%TO.N,/D0*%
X121920000Y-86360000D03*
%TO.P,U2,20,DRAIN1*%
%TO.N,/D1*%
X119380000Y-86360000D03*
%TD*%
D14*
%TO.P,D6,1,K*%
%TO.N,/D5*%
X156205000Y-104394000D03*
D15*
%TO.P,D6,2,A*%
%TO.N,Net-(D6-Pad2)*%
X158745000Y-104394000D03*
%TD*%
D20*
%TO.P,R6,1*%
%TO.N,Net-(D6-Pad2)*%
X165100000Y-114300000D03*
D21*
%TO.P,R6,2*%
%TO.N,+5V*%
X165100000Y-104140000D03*
%TD*%
D10*
%TO.P,J3,1,Pin_1*%
%TO.N,/D2*%
X93980000Y-114300000D03*
D11*
%TO.P,J3,2,Pin_2*%
%TO.N,+VDC*%
X99060000Y-114300000D03*
%TD*%
D20*
%TO.P,R7,1*%
%TO.N,Net-(D7-Pad2)*%
X185420000Y-114300000D03*
D21*
%TO.P,R7,2*%
%TO.N,+5V*%
X185420000Y-104140000D03*
%TD*%
D14*
%TO.P,D4,1,K*%
%TO.N,/D3*%
X115057000Y-104394000D03*
D15*
%TO.P,D4,2,A*%
%TO.N,Net-(D4-Pad2)*%
X117597000Y-104394000D03*
%TD*%
D14*
%TO.P,D5,1,K*%
%TO.N,/D4*%
X135885000Y-104394000D03*
D15*
%TO.P,D5,2,A*%
%TO.N,Net-(D5-Pad2)*%
X138425000Y-104394000D03*
%TD*%
D20*
%TO.P,R5,1*%
%TO.N,Net-(D5-Pad2)*%
X144780000Y-114300000D03*
D21*
%TO.P,R5,2*%
%TO.N,+5V*%
X144780000Y-104140000D03*
%TD*%
D14*
%TO.P,D3,1,K*%
%TO.N,/D2*%
X95245000Y-104394000D03*
D15*
%TO.P,D3,2,A*%
%TO.N,Net-(D3-Pad2)*%
X97785000Y-104394000D03*
%TD*%
D20*
%TO.P,R1,1*%
%TO.N,Net-(D1-Pad2)*%
X66040000Y-114300000D03*
D21*
%TO.P,R1,2*%
%TO.N,+5V*%
X66040000Y-104140000D03*
%TD*%
D16*
%TO.P,JP2,1,A*%
%TO.N,GNDPWR*%
X83820000Y-85725000D03*
D17*
%TO.P,JP2,2,B*%
%TO.N,GNDD*%
X85120000Y-85725000D03*
%TD*%
D10*
%TO.P,J5,1,Pin_1*%
%TO.N,/D4*%
X134620000Y-114300000D03*
D11*
%TO.P,J5,2,Pin_2*%
%TO.N,+VDC*%
X139700000Y-114300000D03*
%TD*%
D20*
%TO.P,R2,1*%
%TO.N,Net-(D2-Pad2)*%
X83820000Y-114300000D03*
D21*
%TO.P,R2,2*%
%TO.N,+5V*%
X83820000Y-104140000D03*
%TD*%
D23*
%TO.P,U1,1,PWR*%
%TO.N,+VDC*%
X71120000Y-86360000D03*
%TO.P,U1,2,GND*%
%TO.N,GNDPWR*%
X73660000Y-86360000D03*
%TO.P,U1,3,+5V*%
%TO.N,+5V*%
X76200000Y-86360000D03*
%TD*%
D10*
%TO.P,J4,1,Pin_1*%
%TO.N,/D3*%
X113870000Y-113980000D03*
D11*
%TO.P,J4,2,Pin_2*%
%TO.N,+VDC*%
X118950000Y-113980000D03*
%TD*%
D18*
%TO.P,J12,1,Pin_1*%
%TO.N,+VDC*%
X212090000Y-86585000D03*
D19*
%TO.P,J12,2,Pin_2*%
%TO.N,GNDPWR*%
X212090000Y-81505000D03*
%TD*%
D20*
%TO.P,R8,1*%
%TO.N,Net-(D8-Pad2)*%
X205740000Y-114300000D03*
D21*
%TO.P,R8,2*%
%TO.N,+5V*%
X205740000Y-104140000D03*
%TD*%
D14*
%TO.P,D1,1,K*%
%TO.N,/D0*%
X56129000Y-104394000D03*
D15*
%TO.P,D1,2,A*%
%TO.N,Net-(D1-Pad2)*%
X58669000Y-104394000D03*
%TD*%
D24*
%TO.N,/SERIN*%
X61214000Y-95250000D03*
%TD*%
D25*
%TO.N,+VDC*%
X53549022Y-86135000D02*
X57142011Y-82542011D01*
D26*
X217170000Y-103126480D02*
X217170000Y-90678000D01*
X43180000Y-104394000D02*
X43180000Y-91215000D01*
D27*
X67302011Y-82542011D02*
X57142011Y-82542011D01*
D25*
X48260000Y-86135000D02*
X53549022Y-86135000D01*
D27*
X71300000Y-86995000D02*
X71300000Y-86586060D01*
D25*
X202790000Y-86585000D02*
X212090000Y-86585000D01*
D26*
X57494489Y-111596489D02*
X50382489Y-111596489D01*
X200660000Y-114300000D02*
X209552480Y-105407520D01*
X50382489Y-111596489D02*
X43180000Y-104394000D01*
X59944000Y-114046000D02*
X57494489Y-111596489D01*
D25*
X57142011Y-82542011D02*
X62214022Y-77470000D01*
D26*
X214888960Y-105407520D02*
X217170000Y-103126480D01*
X213077000Y-86585000D02*
X212090000Y-86585000D01*
D25*
X62214022Y-77470000D02*
X193675000Y-77470000D01*
D26*
X43180000Y-91215000D02*
X48260000Y-86135000D01*
X209552480Y-105407520D02*
X214888960Y-105407520D01*
D27*
X71120000Y-86360000D02*
X67302011Y-82542011D01*
D26*
X217170000Y-90678000D02*
X213077000Y-86585000D01*
D25*
X193675000Y-77470000D02*
X202790000Y-86585000D01*
D27*
%TO.N,GNDD*%
X128124511Y-95104511D02*
X127000000Y-93980000D01*
X50881889Y-98978111D02*
X60960000Y-88900000D01*
X46355000Y-97790000D02*
X47543111Y-98978111D01*
X132080000Y-83820000D02*
X134620000Y-86360000D01*
X130664511Y-90315489D02*
X130664511Y-94633489D01*
X130193489Y-95104511D02*
X128124511Y-95104511D01*
X134620000Y-86360000D02*
X130664511Y-90315489D01*
X85120000Y-86133940D02*
X85120000Y-85725000D01*
X47543111Y-98978111D02*
X50881889Y-98978111D01*
X60960000Y-88900000D02*
X82353940Y-88900000D01*
X85120000Y-85725000D02*
X87025000Y-83820000D01*
X87025000Y-83820000D02*
X132080000Y-83820000D01*
X207010000Y-97790000D02*
X193040000Y-83820000D01*
X212090000Y-97790000D02*
X207010000Y-97790000D01*
X130664511Y-94633489D02*
X130193489Y-95104511D01*
X193040000Y-83820000D02*
X137160000Y-83820000D01*
X82353940Y-88900000D02*
X85120000Y-86133940D01*
X137160000Y-83820000D02*
X134620000Y-86360000D01*
%TO.N,+5V*%
X125430511Y-103169489D02*
X143809489Y-103169489D01*
X184449489Y-103169489D02*
X185420000Y-104140000D01*
X123489489Y-103169489D02*
X124460000Y-104140000D01*
X82849489Y-103169489D02*
X83820000Y-104140000D01*
X204769489Y-103169489D02*
X205740000Y-104140000D01*
X164129489Y-103169489D02*
X165100000Y-104140000D01*
X143809489Y-103169489D02*
X144780000Y-104140000D01*
X83820000Y-104140000D02*
X84790511Y-103169489D01*
X105110511Y-103169489D02*
X123489489Y-103169489D01*
X166070511Y-103169489D02*
X184449489Y-103169489D01*
X66040000Y-104140000D02*
X67010511Y-103169489D01*
X145750511Y-103169489D02*
X164129489Y-103169489D01*
X75113489Y-87446511D02*
X76200000Y-86360000D01*
X124460000Y-104140000D02*
X125430511Y-103169489D01*
X103169489Y-103169489D02*
X104140000Y-104140000D01*
X165100000Y-104140000D02*
X166070511Y-103169489D01*
X124460000Y-93980000D02*
X124460000Y-88900000D01*
X144780000Y-104140000D02*
X145750511Y-103169489D01*
X67010511Y-103169489D02*
X82849489Y-103169489D01*
X84790511Y-103169489D02*
X103169489Y-103169489D01*
X64150000Y-85725000D02*
X65871511Y-87446511D01*
X104140000Y-104140000D02*
X105110511Y-103169489D01*
X65871511Y-87446511D02*
X75113489Y-87446511D01*
X124460000Y-88900000D02*
X127000000Y-86360000D01*
X185420000Y-104140000D02*
X186390511Y-103169489D01*
X186390511Y-103169489D02*
X204769489Y-103169489D01*
%TO.N,/SEROUT*%
X137160000Y-86360000D02*
X151130000Y-100330000D01*
X151130000Y-100330000D02*
X212090000Y-100330000D01*
%TO.N,/CLOCK*%
X144698111Y-101518111D02*
X213441889Y-101518111D01*
X137160000Y-93980000D02*
X144698111Y-101518111D01*
X135890000Y-92710000D02*
X137160000Y-93980000D01*
X134299700Y-92710000D02*
X135890000Y-92710000D01*
X133350000Y-93659700D02*
X134299700Y-92710000D01*
X213441889Y-101518111D02*
X214630000Y-100330000D01*
X48895000Y-100330000D02*
X127320300Y-100330000D01*
X127320300Y-100330000D02*
X133350000Y-94300300D01*
X133350000Y-94300300D02*
X133350000Y-93659700D01*
%TO.N,/LATCH*%
X47543111Y-101681889D02*
X126918111Y-101681889D01*
X211836000Y-102616000D02*
X212090000Y-102870000D01*
X46355000Y-102870000D02*
X47543111Y-101681889D01*
X143256000Y-102616000D02*
X211836000Y-102616000D01*
X134620000Y-93980000D02*
X143256000Y-102616000D01*
X126918111Y-101681889D02*
X134620000Y-93980000D01*
%TO.N,/SERIN*%
X61214000Y-95250000D02*
X115570000Y-95250000D01*
X115570000Y-95250000D02*
X124460000Y-86360000D01*
%TO.N,GNDPWR*%
X83820000Y-85725000D02*
X83368489Y-85273489D01*
D26*
X129540000Y-86360000D02*
X129540000Y-93980000D01*
D27*
X83368489Y-85273489D02*
X74746511Y-85273489D01*
X74746511Y-85273489D02*
X73660000Y-86360000D01*
%TO.N,Net-(J10-Pad2)*%
X62850000Y-85725000D02*
X50785000Y-97790000D01*
X50785000Y-97790000D02*
X48895000Y-97790000D01*
%TD*%
M02*
