%TF.GenerationSoftware,KiCad,Pcbnew,6.0.2-378541a8eb~116~ubuntu20.04.1*%
%TF.CreationDate,2022-03-18T17:45:01-05:00*%
%TF.ProjectId,daughter,64617567-6874-4657-922e-6b696361645f,rev?*%
%TF.SameCoordinates,Original*%
%TF.FileFunction,Soldermask,Top*%
%TF.FilePolarity,Negative*%
%FSLAX46Y46*%
G04 Gerber Fmt 4.6, Leading zero omitted, Abs format (unit mm)*
G04 Created by KiCad (PCBNEW 6.0.2-378541a8eb~116~ubuntu20.04.1) date 2022-03-18 17:45:01*
%MOMM*%
%LPD*%
G01*
G04 APERTURE LIST*
G04 Aperture macros list*
%AMFreePoly0*
4,1,22,0.500000,-0.750000,0.000000,-0.750000,0.000000,-0.745033,-0.079941,-0.743568,-0.215256,-0.701293,-0.333266,-0.622738,-0.424486,-0.514219,-0.481581,-0.384460,-0.499164,-0.250000,-0.500000,-0.250000,-0.500000,0.250000,-0.499164,0.250000,-0.499963,0.256109,-0.478152,0.396186,-0.417904,0.524511,-0.324060,0.630769,-0.204165,0.706417,-0.067858,0.745374,0.000000,0.744959,0.000000,0.750000,
0.500000,0.750000,0.500000,-0.750000,0.500000,-0.750000,$1*%
%AMFreePoly1*
4,1,20,0.000000,0.744959,0.073905,0.744508,0.209726,0.703889,0.328688,0.626782,0.421226,0.519385,0.479903,0.390333,0.500000,0.250000,0.500000,-0.250000,0.499851,-0.262216,0.476331,-0.402017,0.414519,-0.529596,0.319384,-0.634700,0.198574,-0.708877,0.061801,-0.746166,0.000000,-0.745033,0.000000,-0.750000,-0.500000,-0.750000,-0.500000,0.750000,0.000000,0.750000,0.000000,0.744959,
0.000000,0.744959,$1*%
G04 Aperture macros list end*
%ADD10C,2.500000*%
%ADD11R,3.000000X3.000000*%
%ADD12C,3.000000*%
%ADD13R,1.727200X1.727200*%
%ADD14O,1.727200X1.727200*%
%ADD15R,1.800000X1.800000*%
%ADD16C,1.800000*%
%ADD17FreePoly0,0.000000*%
%ADD18FreePoly1,0.000000*%
%ADD19R,3.960000X1.980000*%
%ADD20O,3.960000X1.980000*%
%ADD21C,1.600000*%
%ADD22O,1.600000X1.600000*%
%ADD23R,1.600000X1.600000*%
%ADD24C,1.524000*%
G04 APERTURE END LIST*
D10*
%TO.C,REF\u002A\u002A*%
X215265000Y-114300000D03*
%TD*%
D11*
%TO.C,J7*%
X175260000Y-114300000D03*
D12*
X180340000Y-114300000D03*
%TD*%
D11*
%TO.C,J1*%
X54864000Y-114046000D03*
D12*
X59944000Y-114046000D03*
%TD*%
D13*
%TO.C,J10*%
X46355000Y-97790000D03*
D14*
X48895000Y-97790000D03*
X46355000Y-100330000D03*
X48895000Y-100330000D03*
X46355000Y-102870000D03*
X48895000Y-102870000D03*
%TD*%
D15*
%TO.C,D2*%
X74925000Y-104394000D03*
D16*
X77465000Y-104394000D03*
%TD*%
D15*
%TO.C,D7*%
X176525000Y-104394000D03*
D16*
X179065000Y-104394000D03*
%TD*%
D13*
%TO.C,J9*%
X212090000Y-97790000D03*
D14*
X214630000Y-97790000D03*
X212090000Y-100330000D03*
X214630000Y-100330000D03*
X212090000Y-102870000D03*
X214630000Y-102870000D03*
%TD*%
D11*
%TO.C,J2*%
X73660000Y-114046000D03*
D12*
X78740000Y-114046000D03*
%TD*%
D15*
%TO.C,D8*%
X196845000Y-104394000D03*
D16*
X199385000Y-104394000D03*
%TD*%
D17*
%TO.C,JP1*%
X62850000Y-85725000D03*
D18*
X64150000Y-85725000D03*
%TD*%
D19*
%TO.C,J11*%
X48260000Y-81055000D03*
D20*
X48260000Y-86135000D03*
%TD*%
D21*
%TO.C,R3*%
X104140000Y-114300000D03*
D22*
X104140000Y-104140000D03*
%TD*%
D11*
%TO.C,J8*%
X195580000Y-114300000D03*
D12*
X200660000Y-114300000D03*
%TD*%
D11*
%TO.C,J6*%
X154940000Y-114300000D03*
D12*
X160020000Y-114300000D03*
%TD*%
D21*
%TO.C,R4*%
X124460000Y-114300000D03*
D22*
X124460000Y-104140000D03*
%TD*%
D23*
%TO.C,U2*%
X119380000Y-93980000D03*
D22*
X121920000Y-93980000D03*
X124460000Y-93980000D03*
X127000000Y-93980000D03*
X129540000Y-93980000D03*
X132080000Y-93980000D03*
X134620000Y-93980000D03*
X137160000Y-93980000D03*
X139700000Y-93980000D03*
X142240000Y-93980000D03*
X142240000Y-86360000D03*
X139700000Y-86360000D03*
X137160000Y-86360000D03*
X134620000Y-86360000D03*
X132080000Y-86360000D03*
X129540000Y-86360000D03*
X127000000Y-86360000D03*
X124460000Y-86360000D03*
X121920000Y-86360000D03*
X119380000Y-86360000D03*
%TD*%
D15*
%TO.C,D6*%
X156205000Y-104394000D03*
D16*
X158745000Y-104394000D03*
%TD*%
D21*
%TO.C,R6*%
X165100000Y-114300000D03*
D22*
X165100000Y-104140000D03*
%TD*%
D10*
%TO.C,REF\u002A\u002A*%
X45720000Y-73025000D03*
%TD*%
%TO.C,REF\u002A\u002A*%
X45720000Y-114300000D03*
%TD*%
D11*
%TO.C,J3*%
X93980000Y-114300000D03*
D12*
X99060000Y-114300000D03*
%TD*%
D21*
%TO.C,R7*%
X185420000Y-114300000D03*
D22*
X185420000Y-104140000D03*
%TD*%
D15*
%TO.C,D4*%
X115057000Y-104394000D03*
D16*
X117597000Y-104394000D03*
%TD*%
D15*
%TO.C,D5*%
X135885000Y-104394000D03*
D16*
X138425000Y-104394000D03*
%TD*%
D21*
%TO.C,R5*%
X144780000Y-114300000D03*
D22*
X144780000Y-104140000D03*
%TD*%
D15*
%TO.C,D3*%
X95245000Y-104394000D03*
D16*
X97785000Y-104394000D03*
%TD*%
D10*
%TO.C,REF\u002A\u002A*%
X215265000Y-73025000D03*
%TD*%
D21*
%TO.C,R1*%
X66040000Y-114300000D03*
D22*
X66040000Y-104140000D03*
%TD*%
D17*
%TO.C,JP2*%
X83820000Y-85725000D03*
D18*
X85120000Y-85725000D03*
%TD*%
D11*
%TO.C,J5*%
X134620000Y-114300000D03*
D12*
X139700000Y-114300000D03*
%TD*%
D21*
%TO.C,R2*%
X83820000Y-114300000D03*
D22*
X83820000Y-104140000D03*
%TD*%
D24*
%TO.C,U1*%
X71120000Y-86360000D03*
X73660000Y-86360000D03*
X76200000Y-86360000D03*
%TD*%
D11*
%TO.C,J4*%
X113870000Y-113980000D03*
D12*
X118950000Y-113980000D03*
%TD*%
D19*
%TO.C,J12*%
X212090000Y-86585000D03*
D20*
X212090000Y-81505000D03*
%TD*%
D21*
%TO.C,R8*%
X205740000Y-114300000D03*
D22*
X205740000Y-104140000D03*
%TD*%
D15*
%TO.C,D1*%
X56129000Y-104394000D03*
D16*
X58669000Y-104394000D03*
%TD*%
M02*
